<?xml version="1.0" encoding="UTF-8" standalone="no"?>
<svg
   xmlns:dc="http://purl.org/dc/elements/1.1/"
   xmlns:cc="http://creativecommons.org/ns#"
   xmlns:rdf="http://www.w3.org/1999/02/22-rdf-syntax-ns#"
   xmlns:svg="http://www.w3.org/2000/svg"
   xmlns="http://www.w3.org/2000/svg"
   xmlns:sodipodi="http://sodipodi.sourceforge.net/DTD/sodipodi-0.dtd"
   xmlns:inkscape="http://www.inkscape.org/namespaces/inkscape"
   width="80"
   height="80"
   viewBox="0 0 80 80"
   version="1.1"
   id="svg8"
   sodipodi:docname="icon-reliable.svg"
   inkscape:version="0.92.3 (2405546, 2018-03-11)">
  <metadata
     id="metadata14">
    <rdf:RDF>
      <cc:Work
         rdf:about="">
        <dc:format>image/svg+xml</dc:format>
        <dc:type
           rdf:resource="http://purl.org/dc/dcmitype/StillImage" />
      </cc:Work>
    </rdf:RDF>
  </metadata>
  <defs
     id="defs12" />
  <sodipodi:namedview
     pagecolor="#ffffff"
     bordercolor="#666666"
     borderopacity="1"
     objecttolerance="10"
     gridtolerance="10"
     guidetolerance="10"
     inkscape:pageopacity="0"
     inkscape:pageshadow="2"
     inkscape:window-width="640"
     inkscape:window-height="480"
     id="namedview10"
     showgrid="false"
     inkscape:zoom="2.95"
     inkscape:cx="40"
     inkscape:cy="40"
     inkscape:window-x="67"
     inkscape:window-y="27"
     inkscape:window-maximized="0"
     inkscape:current-layer="svg8" />
  <path
     style="color:#000000;font-style:normal;font-variant:normal;font-weight:normal;font-stretch:normal;font-size:medium;line-height:normal;font-family:sans-serif;font-variant-ligatures:normal;font-variant-position:normal;font-variant-caps:normal;font-variant-numeric:normal;font-variant-alternates:normal;font-feature-settings:normal;text-indent:0;text-align:start;text-decoration:none;text-decoration-line:none;text-decoration-style:solid;text-decoration-color:#000000;letter-spacing:normal;word-spacing:normal;text-transform:none;writing-mode:lr-tb;direction:ltr;text-orientation:mixed;dominant-baseline:auto;baseline-shift:baseline;text-anchor:start;white-space:normal;shape-padding:0;clip-rule:nonzero;display:inline;overflow:visible;visibility:visible;opacity:1;isolation:auto;mix-blend-mode:normal;color-interpolation:sRGB;color-interpolation-filters:linearRGB;solid-color:#000000;solid-opacity:1;vector-effect:none;fill:#ffffff;fill-opacity:1;fill-rule:evenodd;stroke:none;stroke-width:2;stroke-linecap:round;stroke-linejoin:round;stroke-miterlimit:4;stroke-dasharray:none;stroke-dashoffset:0;stroke-opacity:1;color-rendering:auto;image-rendering:auto;shape-rendering:auto;text-rendering:auto;enable-background:accumulate"
     d="m 40.476562,7.9472656 a 1.0001,1.0001 0 0 0 -0.830078,0.4628906 l -4.148437,6.5136718 -6.916016,-3.443359 a 1.0001,1.0001 0 0 0 -1.443359,0.851562 l -0.337891,7.716797 -7.708984,0.47461 a 1.0001,1.0001 0 0 0 -0.824219,1.458984 l 3.566406,6.851562 -6.439453,4.265625 a 1.0001,1.0001 0 0 0 0.01563,1.677735 l 6.513672,4.148437 -3.443359,6.914063 a 1.0001,1.0001 0 0 0 0.851562,1.443359 l 7.716797,0.337891 0.47461,7.708984 a 1.0001,1.0001 0 0 0 1.460937,0.826172 l 6.849609,-3.568359 4.265625,6.439453 a 1.0001,1.0001 0 0 0 1.677735,-0.01563 l 4.148437,-6.515625 6.914063,3.445312 a 1.0001,1.0001 0 0 0 1.443359,-0.851562 l 0.335938,-7.716797 7.710937,-0.474609 a 1.0001,1.0001 0 0 0 0.826172,-1.458985 l -3.568359,-6.851562 6.439453,-4.265625 a 1.0001,1.0001 0 0 0 -0.01367,-1.677735 l -6.515625,-4.148437 3.443359,-6.914063 A 1.0001,1.0001 0 0 0 62.089844,20.138672 L 54.373047,19.802734 53.898438,12.091797 A 1.0001,1.0001 0 0 0 52.4375,11.267578 l -6.849609,3.56836 -4.263672,-6.4394536 A 1.0001,1.0001 0 0 0 40.476562,7.9472656 Z m 0.0293,2.8359374 3.91211,5.90625 a 1.0001,1.0001 0 0 0 1.296875,0.335938 l 6.28125,-3.273438 0.435547,7.072266 a 1.0001,1.0001 0 0 0 0.955078,0.9375 l 7.078125,0.308593 -3.158203,6.341797 a 1.0001,1.0001 0 0 0 0.357421,1.289063 l 5.976563,3.804687 -5.90625,3.91211 a 1.0001,1.0001 0 0 0 -0.335937,1.294922 l 3.273437,6.285156 -7.074219,0.435547 a 1.0001,1.0001 0 0 0 -0.9375,0.953125 l -0.308594,7.078125 -6.33789,-3.160156 a 1.0001,1.0001 0 0 0 -1.291016,0.357421 l -3.804687,5.976563 -3.914063,-5.90625 a 1.0001,1.0001 0 0 0 -1.294922,-0.333984 l -6.283203,3.273437 -0.435547,-7.072266 a 1.0001,1.0001 0 0 0 -0.955078,-0.9375 l -7.078125,-0.310547 3.158203,-6.339843 a 1.0001,1.0001 0 0 0 -0.357422,-1.291016 l -5.974609,-3.802734 5.90625,-3.914063 a 1.0001,1.0001 0 0 0 0.333985,-1.294922 l -3.271485,-6.283203 7.070313,-0.435547 a 1.0001,1.0001 0 0 0 0.9375,-0.955078 l 0.310546,-7.078125 6.341797,3.158203 a 1.0001,1.0001 0 0 0 1.289063,-0.357422 z"
     id="path2"
     inkscape:connector-curvature="0" />
  <path
     style="color:#000000;font-style:normal;font-variant:normal;font-weight:normal;font-stretch:normal;font-size:medium;line-height:normal;font-family:sans-serif;font-variant-ligatures:normal;font-variant-position:normal;font-variant-caps:normal;font-variant-numeric:normal;font-variant-alternates:normal;font-feature-settings:normal;text-indent:0;text-align:start;text-decoration:none;text-decoration-line:none;text-decoration-style:solid;text-decoration-color:#000000;letter-spacing:normal;word-spacing:normal;text-transform:none;writing-mode:lr-tb;direction:ltr;text-orientation:mixed;dominant-baseline:auto;baseline-shift:baseline;text-anchor:start;white-space:normal;shape-padding:0;clip-rule:nonzero;display:inline;overflow:visible;visibility:visible;opacity:1;isolation:auto;mix-blend-mode:normal;color-interpolation:sRGB;color-interpolation-filters:linearRGB;solid-color:#000000;solid-opacity:1;vector-effect:none;fill:#ffffff;fill-opacity:1;fill-rule:evenodd;stroke:none;stroke-width:2;stroke-linecap:round;stroke-linejoin:round;stroke-miterlimit:4;stroke-dasharray:none;stroke-dashoffset:0;stroke-opacity:1;color-rendering:auto;image-rendering:auto;shape-rendering:auto;text-rendering:auto;enable-background:accumulate"
     d="m 40.710938,20.527344 c -7.268528,0 -13.183594,5.915081 -13.183594,13.185547 0,7.269546 5.915165,13.18164 13.183594,13.18164 7.269347,0 13.185546,-5.912094 13.185546,-13.18164 0,-7.271287 -5.915279,-13.185547 -13.185546,-13.185547 z m 0,2 c 6.189732,0 11.185546,4.994833 11.185546,11.185547 0,6.188454 -4.996894,11.18164 -11.185546,11.18164 -6.187572,0 -11.183594,-4.993186 -11.183594,-11.18164 0,-6.189535 4.996121,-11.185547 11.183594,-11.185547 z m 12.980468,22.890625 a 1.0001,1.0001 0 0 0 -0.970703,1.355469 l 7.050781,19.353515 -4.289062,-1.449219 a 1.0001,1.0001 0 0 0 -1.175781,0.429688 l -2.332032,3.851562 -6.115234,-16.80664 a 1.0001,1.0001 0 1 0 -1.878906,0.683594 l 6.830078,18.767578 a 1.0001,1.0001 0 0 0 1.794922,0.175781 l 2.996093,-4.949219 5.501954,1.857422 a 1.0001,1.0001 0 0 0 1.259765,-1.289062 L 54.599609,46.087891 a 1.0001,1.0001 0 0 0 -0.908203,-0.669922 z m -25.976562,0.214843 a 1.0001,1.0001 0 0 0 -0.978516,0.671876 l -7.677734,21.09375 a 1.0001,1.0001 0 0 0 1.259765,1.289062 l 5.501953,-1.857422 2.996094,4.949219 a 1.0001,1.0001 0 0 0 1.794922,-0.175781 l 6.998047,-19.22461 a 1.0001,1.0001 0 1 0 -1.878906,-0.683594 l -6.283203,17.261719 -2.330078,-3.849609 a 1.0001,1.0001 0 0 0 -1.175782,-0.429688 l -4.291015,1.449219 6.964843,-19.138672 a 1.0001,1.0001 0 0 0 -0.90039,-1.355469 z"
     id="path4"
     inkscape:connector-curvature="0" />
</svg>
