<?xml version="1.0" encoding="UTF-8" standalone="no"?>
<svg
   xmlns:dc="http://purl.org/dc/elements/1.1/"
   xmlns:cc="http://creativecommons.org/ns#"
   xmlns:rdf="http://www.w3.org/1999/02/22-rdf-syntax-ns#"
   xmlns:svg="http://www.w3.org/2000/svg"
   xmlns="http://www.w3.org/2000/svg"
   xmlns:sodipodi="http://sodipodi.sourceforge.net/DTD/sodipodi-0.dtd"
   xmlns:inkscape="http://www.inkscape.org/namespaces/inkscape"
   width="24"
   height="24"
   viewBox="0 0 24 24"
   version="1.1"
   id="svg4"
   sodipodi:docname="icon-24-google-primary.svg"
   inkscape:version="0.92.3 (2405546, 2018-03-11)">
  <metadata
     id="metadata10">
    <rdf:RDF>
      <cc:Work
         rdf:about="">
        <dc:format>image/svg+xml</dc:format>
        <dc:type
           rdf:resource="http://purl.org/dc/dcmitype/StillImage" />
      </cc:Work>
    </rdf:RDF>
  </metadata>
  <defs
     id="defs8" />
  <sodipodi:namedview
     pagecolor="#ffffff"
     bordercolor="#666666"
     borderopacity="1"
     objecttolerance="10"
     gridtolerance="10"
     guidetolerance="10"
     inkscape:pageopacity="0"
     inkscape:pageshadow="2"
     inkscape:window-width="640"
     inkscape:window-height="480"
     id="namedview6"
     showgrid="false"
     inkscape:zoom="9.8333333"
     inkscape:cx="12"
     inkscape:cy="12"
     inkscape:window-x="67"
     inkscape:window-y="27"
     inkscape:window-maximized="0"
     inkscape:current-layer="svg4" />
  <path
     style="color:#000000;font-style:normal;font-variant:normal;font-weight:normal;font-stretch:normal;font-size:medium;line-height:normal;font-family:sans-serif;font-variant-ligatures:normal;font-variant-position:normal;font-variant-caps:normal;font-variant-numeric:normal;font-variant-alternates:normal;font-feature-settings:normal;text-indent:0;text-align:start;text-decoration:none;text-decoration-line:none;text-decoration-style:solid;text-decoration-color:#000000;letter-spacing:normal;word-spacing:normal;text-transform:none;writing-mode:lr-tb;direction:ltr;text-orientation:mixed;dominant-baseline:auto;baseline-shift:baseline;text-anchor:start;white-space:normal;shape-padding:0;clip-rule:nonzero;display:inline;overflow:visible;visibility:visible;opacity:1;isolation:auto;mix-blend-mode:normal;color-interpolation:sRGB;color-interpolation-filters:linearRGB;solid-color:#000000;solid-opacity:1;vector-effect:none;fill-opacity:1;fill-rule:evenodd;stroke:none;stroke-width:1;stroke-linecap:butt;stroke-linejoin:miter;stroke-miterlimit:4;stroke-dasharray:none;stroke-dashoffset:0;stroke-opacity:1;color-rendering:auto;image-rendering:auto;shape-rendering:auto;text-rendering:auto;enable-background:accumulate"
     d="m 12,-0.5 c -6.9045303,0 -12.5,5.5954697 -12.5,12.5 0,6.903571 5.5954195,12.5 12.5,12.5 3.579684,0 6.60264,-1.268242 8.714844,-3.443359 2.112203,-2.175118 3.304687,-5.243017 3.304687,-8.783203 0,-0.823957 -0.08956,-1.462169 -0.195312,-2.072266 L 23.751953,9.7851562 H 11.5 v 0.4999998 4.615235 h 6.619141 c -0.216509,0.734506 -0.607687,1.611775 -1.392579,2.396484 C 15.739006,18.284202 14.255386,19.074219 12,19.074219 8.1809463,19.074219 5.0605469,15.918572 5.0605469,12 5.0605469,8.0814277 8.1809463,4.9257812 12,4.9257812 c 2.18943,10e-8 3.61477,0.9175439 4.4375,1.7089844 L 16.785156,6.96875 20.765625,3.1308594 20.380859,2.7695312 C 18.2062,0.74047296 15.361914,-0.5 12,-0.5 Z m 0,1 c 2.911255,0 5.299917,1.0540529 7.244141,2.7089844 L 16.722656,5.640625 C 15.721914,4.7936514 14.220364,3.9257813 12,3.9257812 7.6290537,3.9257812 4.0605469,7.5485723 4.0605469,12 c 0,4.451428 3.5685068,8.074219 7.9394531,8.074219 2.494614,0 4.274651,-0.91164 5.433594,-2.070313 1.158943,-1.158673 1.710543,-2.53032 1.865234,-3.527344 l 0.08984,-0.576171 H 12.5 v -3.115235 h 10.376953 c 0.07012,0.459737 0.142578,0.899909 0.142578,1.488282 0,3.316813 -1.104938,6.112305 -3.021484,8.085937 C 18.081501,22.333007 15.345316,23.5 12,23.5 5.6345805,23.5 0.5,18.364429 0.5,12 0.5,5.6345303 5.6345303,0.5 12,0.5 Z"
     id="path2"
     inkscape:connector-curvature="0" />
</svg>
