<?xml version="1.0" encoding="UTF-8" standalone="no"?>
<svg
   xmlns:dc="http://purl.org/dc/elements/1.1/"
   xmlns:cc="http://creativecommons.org/ns#"
   xmlns:rdf="http://www.w3.org/1999/02/22-rdf-syntax-ns#"
   xmlns:svg="http://www.w3.org/2000/svg"
   xmlns="http://www.w3.org/2000/svg"
   xmlns:sodipodi="http://sodipodi.sourceforge.net/DTD/sodipodi-0.dtd"
   xmlns:inkscape="http://www.inkscape.org/namespaces/inkscape"
   width="24"
   height="24"
   viewBox="0 0 24 24"
   version="1.1"
   id="svg4"
   sodipodi:docname="icon-24-twitter-primary.svg"
   inkscape:version="0.92.3 (2405546, 2018-03-11)">
  <metadata
     id="metadata10">
    <rdf:RDF>
      <cc:Work
         rdf:about="">
        <dc:format>image/svg+xml</dc:format>
        <dc:type
           rdf:resource="http://purl.org/dc/dcmitype/StillImage" />
      </cc:Work>
    </rdf:RDF>
  </metadata>
  <defs
     id="defs8" />
  <sodipodi:namedview
     pagecolor="#ffffff"
     bordercolor="#666666"
     borderopacity="1"
     objecttolerance="10"
     gridtolerance="10"
     guidetolerance="10"
     inkscape:pageopacity="0"
     inkscape:pageshadow="2"
     inkscape:window-width="640"
     inkscape:window-height="480"
     id="namedview6"
     showgrid="false"
     inkscape:zoom="9.8333333"
     inkscape:cx="12"
     inkscape:cy="12"
     inkscape:window-x="67"
     inkscape:window-y="27"
     inkscape:window-maximized="0"
     inkscape:current-layer="svg4" />
  <path
     style="color:#000000;font-style:normal;font-variant:normal;font-weight:normal;font-stretch:normal;font-size:medium;line-height:normal;font-family:sans-serif;font-variant-ligatures:normal;font-variant-position:normal;font-variant-caps:normal;font-variant-numeric:normal;font-variant-alternates:normal;font-feature-settings:normal;text-indent:0;text-align:start;text-decoration:none;text-decoration-line:none;text-decoration-style:solid;text-decoration-color:#000000;letter-spacing:normal;word-spacing:normal;text-transform:none;writing-mode:lr-tb;direction:ltr;text-orientation:mixed;dominant-baseline:auto;baseline-shift:baseline;text-anchor:start;white-space:normal;shape-padding:0;clip-rule:nonzero;display:inline;overflow:visible;visibility:visible;opacity:1;isolation:auto;mix-blend-mode:normal;color-interpolation:sRGB;color-interpolation-filters:linearRGB;solid-color:#000000;solid-opacity:1;vector-effect:none;fill-opacity:1;fill-rule:evenodd;stroke:none;stroke-width:1;stroke-linecap:butt;stroke-linejoin:miter;stroke-miterlimit:4;stroke-dasharray:none;stroke-dashoffset:0;stroke-opacity:1;color-rendering:auto;image-rendering:auto;shape-rendering:auto;text-rendering:auto;enable-background:accumulate"
     d="M 24.183594,2.296875 23.054688,2.90625 C 22.198212,3.3678452 21.238098,3.6887819 20.228516,3.8925781 19.258839,3.0510314 17.995104,2.5 16.574219,2.5 c -2.96654,0 -5.419922,2.2407281 -5.419922,5.0371094 0,0.1571308 0.03984,0.3006622 0.05469,0.453125 C 7.5044791,7.6719946 4.2265402,6.0112639 2.0117188,3.5117188 L 1.5742188,3.0175781 1.2167969,3.5742188 C 0.72783413,4.336082 0.46945692,5.2236654 0.47265625,6.1289062 c 0,1.1023813 0.47142511,2.0454676 1.11328125,2.8730469 C 1.4481391,8.9474584 1.2908176,8.9620169 1.1582031,8.8945312 L 0.43164062,8.5253906 v 0.8691406 c 1e-8,1.6768498 0.91850868,3.1136788 2.26171878,4.0292968 l -0.7753906,-0.134766 0.2792968,0.802735 c 0.5399132,1.548495 1.8552034,2.737037 3.5019532,3.230469 -1.3585828,0.701617 -2.8629872,1.201172 -4.5292969,1.201172 -0.37290601,0 -0.74566851,-0.01858 -1.11718753,-0.05859 l -0.30468749,0.927734 C 2.1159381,20.780533 4.8119619,21.508136 7.5566406,21.5 16.864983,21.498952 22.056641,14.358582 22.056641,8.09375 c 0,-0.1193321 -0.0059,-0.2533131 -0.0098,-0.3828125 0.862607,-0.6109018 1.643941,-1.3289996 2.275391,-2.1777344 l 0.130859,-0.054687 V 5.3867188 L 24.785156,4.9296875 23.453125,4.4101562 v 0.3476563 c -0.154565,0.05725 -0.32815,0.073217 -0.486328,0.1230469 0.325749,-0.4196257 0.621526,-0.8651151 0.796875,-1.3710938 z M 16.574219,3.5 c 1.288004,0 2.43848,0.5031635 3.238281,1.2949219 L 20,4.9785156 20.255859,4.9296875 c 0.694939,-0.1288299 1.300808,-0.4328137 1.939453,-0.6777344 -0.353467,0.4610747 -0.778569,0.8728914 -1.310546,1.1679688 l 0.298828,0.9355469 c 0.409739,-0.045664 0.770897,-0.2071719 1.164062,-0.2949219 -0.366319,0.3418013 -0.66252,0.7575956 -1.082031,1.0351562 l -0.244141,0.1621094 0.02148,0.2929687 c 0.01299,0.1671933 0.01367,0.3499688 0.01367,0.5429688 0,5.714708 -4.701583,12.40625 -13.5019535,12.40625 h -0.00195 C 5.7072911,20.505471 3.9298589,20.037343 2.2285156,19.357422 4.2077305,19.16467 6.071954,18.56879 7.5644531,17.486328 l 1.2109375,-0.878906 -1.4960937,-0.02539 c -1.6542617,-0.02836 -2.9235182,-0.97395 -3.6582031,-2.197265 0.4619154,-0.0027 0.9260618,0.06208 1.3769531,-0.04883 L 4.9707031,13.357422 C 3.1543404,13.020431 1.8282264,11.662417 1.546875,10 c 0.5267013,0.173241 1.0442278,0.391066 1.6015625,0.40625 l 1.8554687,0.05078 -1.578125,-0.9746091 C 2.2389412,8.7490825 1.4726562,7.5220128 1.4726562,6.1289062 v -0.00195 C 1.4707177,5.6351289 1.6907414,5.1887659 1.8769531,4.7382812 4.3749066,7.23943 7.8424789,8.9018198 11.759766,9.0742188 l 0.666015,0.029297 -0.160156,-0.6484375 C 12.192805,8.160246 12.154297,7.8554427 12.154297,7.5371094 12.154297,5.3274907 14.106759,3.5 16.574219,3.5 Z"
     id="path2"
     inkscape:connector-curvature="0" />
</svg>
