<?xml version="1.0" encoding="UTF-8" standalone="no"?>
<svg
   xmlns:dc="http://purl.org/dc/elements/1.1/"
   xmlns:cc="http://creativecommons.org/ns#"
   xmlns:rdf="http://www.w3.org/1999/02/22-rdf-syntax-ns#"
   xmlns:svg="http://www.w3.org/2000/svg"
   xmlns="http://www.w3.org/2000/svg"
   xmlns:sodipodi="http://sodipodi.sourceforge.net/DTD/sodipodi-0.dtd"
   xmlns:inkscape="http://www.inkscape.org/namespaces/inkscape"
   width="24"
   height="24"
   viewBox="0 0 24 24"
   version="1.1"
   id="svg4"
   sodipodi:docname="icon-24-facebook-primary.svg"
   inkscape:version="0.92.3 (2405546, 2018-03-11)">
  <metadata
     id="metadata10">
    <rdf:RDF>
      <cc:Work
         rdf:about="">
        <dc:format>image/svg+xml</dc:format>
        <dc:type
           rdf:resource="http://purl.org/dc/dcmitype/StillImage" />
      </cc:Work>
    </rdf:RDF>
  </metadata>
  <defs
     id="defs8" />
  <sodipodi:namedview
     pagecolor="#ffffff"
     bordercolor="#666666"
     borderopacity="1"
     objecttolerance="10"
     gridtolerance="10"
     guidetolerance="10"
     inkscape:pageopacity="0"
     inkscape:pageshadow="2"
     inkscape:window-width="640"
     inkscape:window-height="480"
     id="namedview6"
     showgrid="false"
     inkscape:zoom="9.8333333"
     inkscape:cx="12"
     inkscape:cy="12"
     inkscape:window-x="67"
     inkscape:window-y="27"
     inkscape:window-maximized="0"
     inkscape:current-layer="svg4" />
  <path
     style="color:#000000;font-style:normal;font-variant:normal;font-weight:normal;font-stretch:normal;font-size:medium;line-height:normal;font-family:sans-serif;font-variant-ligatures:normal;font-variant-position:normal;font-variant-caps:normal;font-variant-numeric:normal;font-variant-alternates:normal;font-feature-settings:normal;text-indent:0;text-align:start;text-decoration:none;text-decoration-line:none;text-decoration-style:solid;text-decoration-color:#000000;letter-spacing:normal;word-spacing:normal;text-transform:none;writing-mode:lr-tb;direction:ltr;text-orientation:mixed;dominant-baseline:auto;baseline-shift:baseline;text-anchor:start;white-space:normal;shape-padding:0;clip-rule:nonzero;display:inline;overflow:visible;visibility:visible;opacity:1;isolation:auto;mix-blend-mode:normal;color-interpolation:sRGB;color-interpolation-filters:linearRGB;solid-color:#000000;solid-opacity:1;vector-effect:none;fill-opacity:1;fill-rule:evenodd;stroke:none;stroke-width:1;stroke-linecap:butt;stroke-linejoin:miter;stroke-miterlimit:4;stroke-dasharray:none;stroke-dashoffset:0;stroke-opacity:1;color-rendering:auto;image-rendering:auto;shape-rendering:auto;text-rendering:auto;enable-background:accumulate"
     d="M 1.3242188,-0.5 C 0.32218232,-0.5 -0.5,0.32218232 -0.5,1.3242188 V 22.675781 C -0.5,23.677818 0.32218232,24.5 1.3242188,24.5 H 13.318359 V 14.205078 h -3.128906 v -2.61914 h 3.128906 V 8.4101562 c 0,-1.4476929 0.432407,-2.4961152 1.144532,-3.1992187 0.712124,-0.7031035 1.734155,-1.0839844 3.015625,-1.0839844 1.093334,0 1.843702,0.069121 2.292968,0.1132813 v 2.265625 h -1.419922 c -0.829999,0 -1.461104,0.2150639 -1.841796,0.6699218 -0.380693,0.454858 -0.449219,1.0282602 -0.449219,1.5996094 v 2.8105474 h 3.515625 l -0.335938,2.630859 H 16.060547 V 24.5 h 6.615234 C 23.677818,24.5 24.5,23.677362 24.5,22.675781 V 1.3242188 C 24.5,0.32218232 23.677818,-0.5 22.675781,-0.5 Z m 0,1 H 22.675781 C 23.137745,0.5 23.5,0.86225518 23.5,1.3242188 V 22.675781 C 23.5,23.1382 23.137745,23.5 22.675781,23.5 h -5.615234 v -8.283203 h 3.058594 l 0.59375,-4.630859 H 17.060547 V 8.7753906 c 0,-0.4786508 0.07649,-0.7893892 0.216797,-0.9570312 0.140307,-0.1676421 0.404219,-0.3125 1.074218,-0.3125 h 2.419922 V 3.3300781 l -0.43164,-0.058594 C 19.950206,3.2185125 18.826433,3.1269531 17.478516,3.1269531 15.993985,3.1269531 14.685641,3.5858535 13.759766,4.5 12.83389,5.4141465 12.318359,6.7588492 12.318359,8.4101562 V 10.585938 H 9.1894531 v 4.61914 H 12.318359 V 23.5 H 1.3242188 C 0.86225518,23.5 0.5,23.137745 0.5,22.675781 V 1.3242188 C 0.5,0.86225518 0.86225518,0.5 1.3242188,0.5 Z"
     id="path2"
     inkscape:connector-curvature="0" />
</svg>
