<?xml version="1.0" encoding="UTF-8" standalone="no"?>
<svg
   xmlns:dc="http://purl.org/dc/elements/1.1/"
   xmlns:cc="http://creativecommons.org/ns#"
   xmlns:rdf="http://www.w3.org/1999/02/22-rdf-syntax-ns#"
   xmlns:svg="http://www.w3.org/2000/svg"
   xmlns="http://www.w3.org/2000/svg"
   xmlns:sodipodi="http://sodipodi.sourceforge.net/DTD/sodipodi-0.dtd"
   xmlns:inkscape="http://www.inkscape.org/namespaces/inkscape"
   width="24"
   height="24"
   viewBox="0 0 24 24"
   version="1.1"
   id="svg4"
   sodipodi:docname="icon-24-location-primary-copy.svg"
   inkscape:version="0.92.3 (2405546, 2018-03-11)">
  <metadata
     id="metadata10">
    <rdf:RDF>
      <cc:Work
         rdf:about="">
        <dc:format>image/svg+xml</dc:format>
        <dc:type
           rdf:resource="http://purl.org/dc/dcmitype/StillImage" />
      </cc:Work>
    </rdf:RDF>
  </metadata>
  <defs
     id="defs8" />
  <sodipodi:namedview
     pagecolor="#ffffff"
     bordercolor="#666666"
     borderopacity="1"
     objecttolerance="10"
     gridtolerance="10"
     guidetolerance="10"
     inkscape:pageopacity="0"
     inkscape:pageshadow="2"
     inkscape:window-width="640"
     inkscape:window-height="480"
     id="namedview6"
     showgrid="false"
     inkscape:zoom="9.8333333"
     inkscape:cx="12"
     inkscape:cy="12"
     inkscape:window-x="67"
     inkscape:window-y="27"
     inkscape:window-maximized="0"
     inkscape:current-layer="svg4" />
  <path
     style="color:#000000;font-style:normal;font-variant:normal;font-weight:normal;font-stretch:normal;font-size:medium;line-height:normal;font-family:sans-serif;font-variant-ligatures:normal;font-variant-position:normal;font-variant-caps:normal;font-variant-numeric:normal;font-variant-alternates:normal;font-feature-settings:normal;text-indent:0;text-align:start;text-decoration:none;text-decoration-line:none;text-decoration-style:solid;text-decoration-color:#000000;letter-spacing:normal;word-spacing:normal;text-transform:none;writing-mode:lr-tb;direction:ltr;text-orientation:mixed;dominant-baseline:auto;baseline-shift:baseline;text-anchor:start;white-space:normal;shape-padding:0;clip-rule:nonzero;display:inline;overflow:visible;visibility:visible;opacity:1;isolation:auto;mix-blend-mode:normal;color-interpolation:sRGB;color-interpolation-filters:linearRGB;solid-color:#000000;solid-opacity:1;vector-effect:none;fill:#d2652a;fill-opacity:1;fill-rule:evenodd;stroke:none;stroke-width:2;stroke-linecap:round;stroke-linejoin:miter;stroke-miterlimit:4;stroke-dasharray:none;stroke-dashoffset:0;stroke-opacity:1;color-rendering:auto;image-rendering:auto;shape-rendering:auto;text-rendering:auto;enable-background:accumulate"
     d="M 12.25,0 C 7.1676923,0 3,4.0804118 3,9.0996094 c 0,1.3040556 0.2750394,2.5673086 0.8144531,3.7285156 2.1556993,4.629059 6.1460728,9.315152 7.3359379,10.673828 v 0.002 c 0.571178,0.650866 1.62804,0.650866 2.199218,0 v -0.002 c 1.189888,-1.358703 5.178318,-6.043795 7.333985,-10.673828 h 0.002 v -0.002 C 21.227532,11.657949 21.505326,10.385455 21.5,9.0976562 21.498897,4.0792221 17.330752,0 12.25,0 Z m 0,2 c 4.016575,0 7.25,3.1849562 7.25,7.0996094 v 0.00195 0.00195 c 0.0043,0.9948284 -0.210225,1.9784134 -0.628906,2.8808594 C 17.025314,15.94882 13.62621,20.07899 12.25,21.679688 10.873703,20.078915 7.4727317,15.947923 5.6269531,11.984375 5.2103669,11.087582 5,10.125554 5,9.0996094 5,5.184807 8.2323077,2 12.25,2 Z m 0,1.8925781 c -2.8953741,0 -5.2851563,2.3344451 -5.2851562,5.2070313 0,2.8725866 2.3895,5.2070316 5.2851562,5.2070316 2.895656,0 5.285156,-2.334733 5.285156,-5.2070316 0,-2.8725862 -2.390557,-5.2070313 -5.285156,-5.2070313 z m 0,2 c 1.829401,0 3.285156,1.4396175 3.285156,3.2070313 0,1.7677016 -1.454812,3.2070316 -3.285156,3.2070316 -1.830344,0 -3.2851562,-1.439618 -3.2851562,-3.2070316 0,-1.7674138 1.4545302,-3.2070313 3.2851562,-3.2070313 z"
     id="path2"
     inkscape:connector-curvature="0" />
</svg>
