<?xml version="1.0" encoding="UTF-8" standalone="no"?>
<svg
   xmlns:dc="http://purl.org/dc/elements/1.1/"
   xmlns:cc="http://creativecommons.org/ns#"
   xmlns:rdf="http://www.w3.org/1999/02/22-rdf-syntax-ns#"
   xmlns:svg="http://www.w3.org/2000/svg"
   xmlns="http://www.w3.org/2000/svg"
   xmlns:sodipodi="http://sodipodi.sourceforge.net/DTD/sodipodi-0.dtd"
   xmlns:inkscape="http://www.inkscape.org/namespaces/inkscape"
   width="38"
   height="24"
   viewBox="0 0 38 24"
   version="1.1"
   id="svg4"
   sodipodi:docname="icon-24-world-white.svg"
   inkscape:version="0.92.3 (2405546, 2018-03-11)">
  <metadata
     id="metadata10">
    <rdf:RDF>
      <cc:Work
         rdf:about="">
        <dc:format>image/svg+xml</dc:format>
        <dc:type
           rdf:resource="http://purl.org/dc/dcmitype/StillImage" />
      </cc:Work>
    </rdf:RDF>
  </metadata>
  <defs
     id="defs8" />
  <sodipodi:namedview
     pagecolor="#ffffff"
     bordercolor="#666666"
     borderopacity="1"
     objecttolerance="10"
     gridtolerance="10"
     guidetolerance="10"
     inkscape:pageopacity="0"
     inkscape:pageshadow="2"
     inkscape:window-width="640"
     inkscape:window-height="480"
     id="namedview6"
     showgrid="false"
     inkscape:zoom="9"
     inkscape:cx="19"
     inkscape:cy="12"
     inkscape:window-x="67"
     inkscape:window-y="27"
     inkscape:window-maximized="0"
     inkscape:current-layer="svg4" />
  <path
     style="color:#000000;font-style:normal;font-variant:normal;font-weight:normal;font-stretch:normal;font-size:medium;line-height:normal;font-family:sans-serif;font-variant-ligatures:normal;font-variant-position:normal;font-variant-caps:normal;font-variant-numeric:normal;font-variant-alternates:normal;font-feature-settings:normal;text-indent:0;text-align:start;text-decoration:none;text-decoration-line:none;text-decoration-style:solid;text-decoration-color:#000000;letter-spacing:normal;word-spacing:normal;text-transform:none;writing-mode:lr-tb;direction:ltr;text-orientation:mixed;dominant-baseline:auto;baseline-shift:baseline;text-anchor:start;white-space:normal;shape-padding:0;clip-rule:nonzero;display:inline;overflow:visible;visibility:visible;opacity:1;isolation:auto;mix-blend-mode:normal;color-interpolation:sRGB;color-interpolation-filters:linearRGB;solid-color:#000000;solid-opacity:1;vector-effect:none;fill-opacity:1;fill-rule:nonzero;stroke:none;stroke-width:1;stroke-linecap:butt;stroke-linejoin:miter;stroke-miterlimit:4;stroke-dasharray:none;stroke-dashoffset:0;stroke-opacity:1;color-rendering:auto;image-rendering:auto;shape-rendering:auto;text-rendering:auto;enable-background:accumulate"
     d="m 19,-0.5 c -2.517874,0 -4.728149,0.93309199 -6.691406,2.2167969 -0.103045,0.065882 -0.199823,0.1340858 -0.300782,0.203125 C 10.166315,3.2019775 8.594977,4.8119831 7.6582031,6.875 l -0.1816406,0.060547 0.046875,0.140625 C 6.8720049,8.5895611 6.5,10.249376 6.5,12 6.5,18.897258 12.102742,24.5 19,24.5 25.897258,24.5 31.5,18.897258 31.5,12 31.5,5.102742 25.897258,-0.5 19,-0.5 Z m -0.744141,2.2070312 c -0.06388,0.00476 -0.120039,0.031202 -0.183593,0.037109 -0.0065,-0.00125 -0.0091,-0.00866 -0.01563,-0.00977 0.06698,-0.00415 0.132196,-0.024542 0.199218,-0.027344 z m -3.603515,0.00195 0.83789,0.5585937 c -3.038974,1.099401 -5.321228,3.532829 -6.3046871,6.625 L 8.6992188,7.4355469 v -0.00195 l 0.013672,-0.03125 C 9.5619694,5.4179479 10.96015,3.7840727 12.683594,2.640625 c 0.01412,-0.00956 0.0288,-0.017847 0.04297,-0.027344 0.592899,-0.3893369 1.265326,-0.6371416 1.925782,-0.9042968 z m 8.785156,0.34375 c 1.087305,0.5418148 2.116126,1.1860645 2.957031,2.0449218 L 26.001953,4.3613281 C 25.080981,3.5172625 24.043297,2.812469 22.865234,2.3398438 Z M 19,2.5566406 c 0.191975,0 0.351897,0.098112 0.541016,0.109375 L 19.011719,3.71875 v 0.00195 c -0.231666,0.4692397 0.01181,1.055805 0.507812,1.2226563 L 19.875,5.0625 18.802734,6.1347656 c -0.194656,0.1946817 -0.286451,0.4715291 -0.248046,0.7441406 l 0.376953,2.6464844 v 0.00195 c 0.04429,0.3021423 0.2444,0.5601212 0.52539,0.6796872 l 2.640625,1.13086 c 0.17684,0.07725 0.37336,0.09379 0.560547,0.04687 l 1.134766,-0.283204 0.417969,0.279297 v 1.033203 c -0.0022,0.135933 0.02717,0.269989 0.08594,0.392579 l 0.002,0.0039 1.423828,2.841797 v 1.302734 c -2.63e-4,0.232202 0.09015,0.456464 0.253906,0.621094 h 0.002 l 0.265625,0.265625 c -0.188602,0.233865 -0.292244,0.531409 -0.501953,0.746094 -0.07347,0.07487 -0.157058,0.132917 -0.232422,0.205078 -1.695438,1.623867 -3.973044,2.65039 -6.509766,2.65039 -1.0354,0 -1.986162,-0.282659 -2.917969,-0.589843 0.0084,-0.04683 0.06227,-0.06987 0.0625,-0.119141 v -1.451172 l 1.158203,-0.869141 C 17.526108,18.248859 17.65625,17.9868 17.65625,17.710938 V 16.941406 L 18.910156,15.6875 c 0.122159,-0.122551 0.206425,-0.279518 0.240235,-0.449219 l 0.376953,-1.884765 v -0.002 C 19.63618,12.817751 19.209156,12.298227 18.664062,12.300781 H 17.652344 L 16.775391,10.835938 C 16.617083,10.572867 16.331876,10.410156 16.023438,10.410156 H 13.921875 L 13.412109,9.3847656 h -0.002 C 13.188102,8.9420087 12.653098,8.86819 12.236328,9.0839844 12.193015,8.9811285 12.192696,8.8606649 12.111328,8.7792969 L 11.613281,8.28125 v -0.00781 l 1.892578,-0.2714844 c 0.114634,-0.016874 0.224832,-0.055672 0.324219,-0.1152343 h 0.002 l 1.884766,-1.1328126 0.002,-0.00195 c 0.122619,-0.073507 0.226704,-0.1765203 0.300781,-0.2988281 l 0.96875,-1.6132812 0.822266,-0.2734376 0.002,-0.00195 C 18.073353,4.47743 18.280584,4.2727669 18.367188,4.0117188 v -0.00195 L 18.744141,2.8769531 V 2.875 C 18.773773,2.7850633 18.713449,2.705379 18.712891,2.6152344 18.814022,2.6120382 18.898085,2.5566406 19,2.5566406 Z M 17.708984,2.8164062 17.4375,3.6367188 16.320312,4.0097656 15.181641,5.9082031 13.335938,7.015625 10.947266,7.3574219 c 1.418733,-2.4496692 3.840368,-4.1241405 6.761718,-4.5410157 z m 2.845704,0.054688 c 1.491963,0.2569641 2.828118,0.8188566 3.992187,1.6875 L 23.597656,4.3671875 h -0.0039 L 22.447266,3.984375 20.9375,4.3613281 19.970703,4.0390625 Z m 3.183593,2.5449218 1.552735,0.3105469 c 0.202131,0.040863 0.404218,-0.017486 0.583984,-0.1152344 0.130677,0.1407125 0.200281,0.3280541 0.322266,0.4765625 L 25.771484,6.2304688 24.095703,5.953125 Z m -3.130859,0.328125 h 2.146484 l 0.75,1.1230469 2.347656,0.390625 0.925782,-0.3085937 C 27.742398,8.4302882 28.443359,10.09802 28.443359,12 c 0,1.878561 -0.687695,3.526281 -1.630859,4.996094 l -0.08984,-0.08984 V 15.416016 L 25.210938,12.398438 V 10.845703 L 23.978516,10.023438 22.455078,10.404297 19.912109,9.3144531 19.552734,6.7988281 Z M 28.03125,6.5292969 C 28.88538,8.0792738 29.5,9.771096 29.5,11.667969 c 0,0.108883 -0.05932,0.198537 -0.0625,0.30664 -0.0051,-1.9977369 -0.718667,-3.7596985 -1.699219,-5.3457028 z M 10.613281,7.8554688 v 0.8398437 l 0.753907,0.7539063 V 10.681641 L 10.005859,9.7734375 c 0.165652,-0.666195 0.308883,-1.316329 0.607422,-1.9179687 z m 1.978516,2.1289062 0.710937,1.425781 h 2.650391 l 1.132813,1.890625 h 1.43164 l -0.339844,1.705078 -1.521484,1.521485 v 1.121094 l -1.511719,1.134765 V 20.5625 l -0.05469,-0.01758 c -0.378394,-0.173594 -0.672067,-0.467362 -1.021485,-0.6875 l -0.564453,-1.417969 v -3.851562 l -1.93164,-0.384766 -0.714844,-1.433594 V 11.71875 l 0.826172,-0.826172 -0.002,-0.002 z m -3.7695314,0.201172 0.089844,0.06055 C 8.8187006,10.774971 8.6041128,11.259585 8.59375,11.8125 8.5859186,11.270891 8.7409733,10.729521 8.8222656,10.185547 Z m 0.9707032,0.648437 0.3222652,0.214844 c -0.1651149,0.165815 -0.2578121,0.386433 -0.2578121,0.619141 v 1.132812 c 8.42e-5,0.136272 0.03274,0.270727 0.09375,0.392578 l 0.7539061,1.509766 0.002,0.002 c 0.121102,0.240973 0.346974,0.413698 0.611328,0.466797 l 1.185547,0.236328 v 3.058594 c 8.8e-5,0.111387 0.02116,0.220788 0.0625,0.324219 l 0.0293,0.07422 C 10.747313,17.142066 9.5566406,14.729544 9.5566406,12 c 0,-0.413787 0.1848518,-0.766358 0.2363282,-1.166016 z m 20.6738282,1 C 30.467677,11.892666 30.5,11.941107 30.5,12 c 0,6.356742 -5.143258,11.5 -11.5,11.5 -0.05956,0 -0.108626,-0.0323 -0.167969,-0.0332 6.388614,-0.09253 11.541205,-5.242326 11.634766,-11.632813 z M 8.9355469,13.875 c 0.065292,0.345489 0.110483,0.694711 0.2089843,1.027344 C 9.0314398,14.569677 9.013391,14.217959 8.9355469,13.875 Z"
     id="path2"
     inkscape:connector-curvature="0" />
</svg>
