<?xml version="1.0" encoding="UTF-8" standalone="no"?>
<svg
   xmlns:dc="http://purl.org/dc/elements/1.1/"
   xmlns:cc="http://creativecommons.org/ns#"
   xmlns:rdf="http://www.w3.org/1999/02/22-rdf-syntax-ns#"
   xmlns:svg="http://www.w3.org/2000/svg"
   xmlns="http://www.w3.org/2000/svg"
   xmlns:sodipodi="http://sodipodi.sourceforge.net/DTD/sodipodi-0.dtd"
   xmlns:inkscape="http://www.inkscape.org/namespaces/inkscape"
   width="24"
   height="24"
   viewBox="0 0 24 24"
   version="1.1"
   id="svg4"
   sodipodi:docname="icon-24-email-primary.svg"
   inkscape:version="0.92.3 (2405546, 2018-03-11)">
  <metadata
     id="metadata10">
    <rdf:RDF>
      <cc:Work
         rdf:about="">
        <dc:format>image/svg+xml</dc:format>
        <dc:type
           rdf:resource="http://purl.org/dc/dcmitype/StillImage" />
      </cc:Work>
    </rdf:RDF>
  </metadata>
  <defs
     id="defs8" />
  <sodipodi:namedview
     pagecolor="#ffffff"
     bordercolor="#666666"
     borderopacity="1"
     objecttolerance="10"
     gridtolerance="10"
     guidetolerance="10"
     inkscape:pageopacity="0"
     inkscape:pageshadow="2"
     inkscape:window-width="640"
     inkscape:window-height="480"
     id="namedview6"
     showgrid="false"
     inkscape:zoom="9.8333333"
     inkscape:cx="12"
     inkscape:cy="12"
     inkscape:window-x="67"
     inkscape:window-y="27"
     inkscape:window-maximized="0"
     inkscape:current-layer="svg4" />
  <path
     style="color:#000000;font-style:normal;font-variant:normal;font-weight:normal;font-stretch:normal;font-size:medium;line-height:normal;font-family:sans-serif;font-variant-ligatures:normal;font-variant-position:normal;font-variant-caps:normal;font-variant-numeric:normal;font-variant-alternates:normal;font-feature-settings:normal;text-indent:0;text-align:start;text-decoration:none;text-decoration-line:none;text-decoration-style:solid;text-decoration-color:#000000;letter-spacing:normal;word-spacing:normal;text-transform:none;writing-mode:lr-tb;direction:ltr;text-orientation:mixed;dominant-baseline:auto;baseline-shift:baseline;text-anchor:start;white-space:normal;shape-padding:0;clip-rule:nonzero;display:inline;overflow:visible;visibility:visible;opacity:1;isolation:auto;mix-blend-mode:normal;color-interpolation:sRGB;color-interpolation-filters:linearRGB;solid-color:#000000;solid-opacity:1;vector-effect:none;fill-opacity:1;fill-rule:evenodd;stroke:none;stroke-width:1;stroke-linecap:butt;stroke-linejoin:miter;stroke-miterlimit:4;stroke-dasharray:none;stroke-dashoffset:0;stroke-opacity:1;color-rendering:auto;image-rendering:auto;shape-rendering:auto;text-rendering:auto;enable-background:accumulate"
     d="M 1.8378906,2.5 C 1.2626035,2.502461 0.71185325,2.7342106 0.30664062,3.1425781 L -0.0625,3.5136719 12.107422,14.519531 24.857422,2.9902344 H 23.564453 C 23.209868,2.7430884 22.835833,2.5 22.375,2.5 H 1.8398438 Z M -0.5,3.4863281 V 4.6152344 20.726562 L -0.26953125,20.523438 0.09375,20.875 C 0.48944345,21.257888 1.0309237,21.5 1.625,21.5 h 20.535156 c 0.572584,-9.82e-4 1.123475,-0.226944 1.53125,-0.628906 L 24.070312,20.498047 14.857422,12.25 11.892578,14.957031 8.9980469,12.310547 9.1152344,12.205078 Z m 25,0 -9.615234,8.7207029 0.416015,0.371094 L 24.5,20.726562 Z M 1.8398438,3.5 H 22.375 c 0.114197,0 0.189512,0.09117 0.292969,0.1210938 L 12.107422,13.171875 1.5488281,3.6230469 C 1.6521063,3.5929696 1.730287,3.5006434 1.8398438,3.5 Z M 0.5,5.7441406 7.6171875,12.195312 0.5,18.503906 Z m 23,0 V 18.503906 l -7.117188,-6.304687 z m -14.578125,7.8535154 2.230469,2.03711 -0.548828,0.5 h 1.289062 1.289063 l -0.548829,-0.5 2.230469,-2.03711 7.580078,6.785156 C 22.342273,20.41068 22.264946,20.499817 22.158203,20.5 H 1.625 c -0.1111348,0 -0.1853126,-0.08852 -0.2871094,-0.117188 z"
     id="path2"
     inkscape:connector-curvature="0" />
</svg>
