<?xml version="1.0" encoding="UTF-8" standalone="no"?>
<svg
   xmlns:dc="http://purl.org/dc/elements/1.1/"
   xmlns:cc="http://creativecommons.org/ns#"
   xmlns:rdf="http://www.w3.org/1999/02/22-rdf-syntax-ns#"
   xmlns:svg="http://www.w3.org/2000/svg"
   xmlns="http://www.w3.org/2000/svg"
   xmlns:sodipodi="http://sodipodi.sourceforge.net/DTD/sodipodi-0.dtd"
   xmlns:inkscape="http://www.inkscape.org/namespaces/inkscape"
   width="24"
   height="24"
   viewBox="0 0 24 24"
   version="1.1"
   id="svg4"
   sodipodi:docname="icon-24-whatsapp-primary.svg"
   inkscape:version="0.92.3 (2405546, 2018-03-11)">
  <metadata
     id="metadata10">
    <rdf:RDF>
      <cc:Work
         rdf:about="">
        <dc:format>image/svg+xml</dc:format>
        <dc:type
           rdf:resource="http://purl.org/dc/dcmitype/StillImage" />
      </cc:Work>
    </rdf:RDF>
  </metadata>
  <defs
     id="defs8" />
  <sodipodi:namedview
     pagecolor="#ffffff"
     bordercolor="#666666"
     borderopacity="1"
     objecttolerance="10"
     gridtolerance="10"
     guidetolerance="10"
     inkscape:pageopacity="0"
     inkscape:pageshadow="2"
     inkscape:window-width="640"
     inkscape:window-height="480"
     id="namedview6"
     showgrid="false"
     inkscape:zoom="9.8333333"
     inkscape:cx="12"
     inkscape:cy="12"
     inkscape:window-x="67"
     inkscape:window-y="27"
     inkscape:window-maximized="0"
     inkscape:current-layer="svg4" />
  <path
     style="color:#000000;font-style:normal;font-variant:normal;font-weight:normal;font-stretch:normal;font-size:medium;line-height:normal;font-family:sans-serif;font-variant-ligatures:normal;font-variant-position:normal;font-variant-caps:normal;font-variant-numeric:normal;font-variant-alternates:normal;font-feature-settings:normal;text-indent:0;text-align:start;text-decoration:none;text-decoration-line:none;text-decoration-style:solid;text-decoration-color:#000000;letter-spacing:normal;word-spacing:normal;text-transform:none;writing-mode:lr-tb;direction:ltr;text-orientation:mixed;dominant-baseline:auto;baseline-shift:baseline;text-anchor:start;white-space:normal;shape-padding:0;clip-rule:nonzero;display:inline;overflow:visible;visibility:visible;opacity:1;isolation:auto;mix-blend-mode:normal;color-interpolation:sRGB;color-interpolation-filters:linearRGB;solid-color:#000000;solid-opacity:1;vector-effect:none;fill-opacity:1;fill-rule:evenodd;stroke:none;stroke-width:1;stroke-linecap:butt;stroke-linejoin:miter;stroke-miterlimit:4;stroke-dasharray:none;stroke-dashoffset:0;stroke-opacity:1;color-rendering:auto;image-rendering:auto;shape-rendering:auto;text-rendering:auto;enable-background:accumulate"
     d="m 12.212891,-0.5 c -6.7692311,0 -12.28710975,5.4768947 -12.28710975,12.199219 -0.0013509,2.082786 0.56501233,4.116583 1.58398435,5.929687 l -1.96679685,5.798828 c -0.097573,0.287548 -0.0237922,0.608236 0.1875,0.826172 0.21319337,0.219564 0.53640982,0.301863 0.828125,0.208985 L 6.6230469,22.533203 c 1.7241509,0.877313 3.6392771,1.365234 5.5898441,1.365235 C 18.98106,23.898437 24.5,18.4225 24.5,11.699219 24.5,4.9740735 18.982019,-0.5 12.212891,-0.5 Z m 0,1 C 18.443762,0.5 23.5,5.520364 23.5,11.699219 c 0,6.176718 -5.057279,11.199218 -11.287109,11.199219 -1.867778,0 -3.7121975,-0.462228 -5.3437504,-1.333985 l -0.1875,-0.09961 -6.0722656,1.93164 1.9785156,-5.83789 -0.1171875,-0.197266 C 1.457079,15.646589 0.92448927,13.691143 0.92578125,11.699219 0.92578125,5.5235428 5.9821214,0.5 12.212891,0.5 Z m 0,1.4375 c -5.4179846,0 -9.8359379,4.3813684 -9.8359379,9.761719 0,2.030163 0.6415952,3.972703 1.8222657,5.626953 l -1.3007813,3.833984 3.9941406,-1.269531 c 1.5887296,1.019487 3.4311769,1.572899 5.3203129,1.570313 h 0.5 v -0.101563 c 5.173058,-0.27374 9.335937,-4.456737 9.335937,-9.660156 0,-5.381297 -4.418901,-9.761719 -9.835937,-9.761719 z m 0,1 c 4.878963,0 8.835937,3.9270155 8.835937,8.761719 0,4.832596 -3.956909,8.761718 -8.835937,8.761719 -1.727895,0.0024 -3.4188366,-0.500955 -4.8632816,-1.449219 C 7.1461385,18.877861 6.89251,18.841056 6.6601562,18.914062 v 0.002 l -2.1796874,0.693359 0.6894531,-2.033203 v -0.002 c 0.08604,-0.252401 0.041002,-0.52938 -0.1132813,-0.740235 C 3.9556592,15.327478 3.3769531,13.557787 3.3769531,11.699219 3.3769531,6.8655691 7.3328749,2.9375 12.212891,2.9375 Z M 9.0234375,5.7050781 c -0.033,0 -0.026814,0.00197 -0.1582031,0.00781 C 8.7021395,5.7199282 8.4633311,5.7514792 8.1445312,5.8183594 7.8248855,5.885417 7.4776748,5.9668099 7.1660156,6.1640625 6.5549431,6.5481653 5.8027344,7.535148 5.8027344,9.1777344 c 0,1.5456446 0.9204999,2.8577326 1.3125,3.3749996 l 0.00586,0.0098 0.00781,0.0078 c -0.040725,-0.04887 -0.0067,-0.0059 0.021484,0.03516 1.4373716,2.098789 3.2318284,3.673489 5.1152344,4.425781 1.732115,0.692233 2.626003,0.791016 3.140625,0.791016 h 0.002 0.002 c 0.17452,-0.0014 0.348029,-0.01199 0.521485,-0.03125 l 0.08398,-0.0078 c 0.447832,-0.03981 0.929818,-0.246883 1.416016,-0.556641 0.486198,-0.309757 0.96505,-0.71729 1.175781,-1.302734 h -0.002 c 0.13057,-0.361752 0.213088,-0.731217 0.242187,-1.068359 0.0291,-0.337143 0.05163,-0.627478 -0.144531,-0.953125 l -0.002,-0.002 c -0.197704,-0.323857 -0.492991,-0.448438 -0.722656,-0.558594 -4.8e-5,-2.3e-5 -0.0038,-0.0019 -0.0039,-0.002 l -0.0078,-0.0039 c -0.02237,-0.01097 -0.466678,-0.230429 -0.945313,-0.460938 -0.484597,-0.23338 -0.94354,-0.457882 -1.199218,-0.550781 h -0.002 l -0.002,-0.002 c -0.13323,-0.04721 -0.32577,-0.119141 -0.574218,-0.119141 -0.401741,0 -0.783113,0.241178 -1.003907,0.572266 -0.0947,0.140699 -0.433796,0.537222 -0.658203,0.800781 -0.0068,-0.0029 -0.02504,-0.0099 -0.0293,-0.01172 h -0.002 c -0.846692,-0.368088 -1.633988,-1.02112 -2.220703,-1.625 -0.488025,-0.502303 -0.732452,-0.864605 -0.86914,-1.0625 0.0491,-0.05686 0.10312,-0.113589 0.148437,-0.167969 l 0.136719,-0.164062 0.0039,-0.0059 c 0.175558,-0.206477 0.275466,-0.397599 0.349609,-0.5468745 v -0.00195 l 0.03711,-0.074219 c 0.285264,-0.5658524 0.0248,-1.1232331 -0.02344,-1.21875 v -0.00195 c 0.02421,0.047838 -0.0095,-0.01879 -0.0332,-0.074219 -0.02368,-0.055428 -0.05575,-0.1322646 -0.09375,-0.2226563 -0.076,-0.1807835 -0.173667,-0.4167503 -0.273437,-0.65625 C 10.513349,7.2631881 10.309908,6.7725823 10.269531,6.6757812 10.155438,6.4023186 10.01046,6.1664822 9.796875,5.9863281 9.5832903,5.8061741 9.2975936,5.7050781 9.0234375,5.7050781 Z m 0,1 c 0.071844,0 0.083741,0.00683 0.1289063,0.044922 0.045165,0.038096 0.118453,0.1329626 0.1933593,0.3125 0.038087,0.09132 0.2437131,0.5852021 0.4433594,1.0644531 0.099979,0.2400003 0.198578,0.4774397 0.2753905,0.6601563 0.03841,0.091358 0.07258,0.1678657 0.09766,0.2265625 0.02508,0.058697 0.02389,0.066177 0.05859,0.1347656 0.05144,0.101286 0.103681,0.1572359 0.02344,0.3164063 l -0.002,0.00195 -0.03906,0.080078 C 10.128073,9.69798 10.097083,9.7675956 9.9882812,9.8945312 l -0.00391,0.00195 -0.1425781,0.1718746 c -0.0993,0.119161 -0.1972103,0.23504 -0.265625,0.302735 -0.067386,0.06344 -0.1269862,0.134172 -0.1757813,0.21289 l -0.082031,0.132813 0.00781,0.154297 c 0,0 0.012898,0.103146 0.029297,0.152344 0.016399,0.0492 0.037721,0.09536 0.066406,0.144531 v 0.002 l 0.00195,0.002 c 0.1483124,0.25099 0.5456681,0.802224 1.1894529,1.464844 0.643785,0.66262 1.508755,1.397791 2.539063,1.845703 0.05355,0.02347 0.137991,0.0584 0.220703,0.0918 0.0418,0.01688 0.08091,0.03185 0.115234,0.04492 0.01716,0.0065 0.03266,0.01328 0.05078,0.01953 0.0091,0.0031 0.01884,0.005 0.03516,0.0098 0.0082,0.0024 0.01781,0.0059 0.03516,0.0098 0.0087,0.0019 0.0192,0.0035 0.03516,0.0059 0.01595,0.0024 0.07398,0.0059 0.07422,0.0059 0.277519,0 0.310492,-0.09674 0.355469,-0.134766 0.04351,-0.03678 0.06839,-0.06365 0.08789,-0.08594 l 0.002,-0.0039 c 0.178006,-0.200846 0.676243,-0.769603 0.90625,-1.111328 v -0.002 l 0.002,-0.002 c 0.08744,-0.131729 0.102541,-0.126953 0.171875,-0.126953 0.04155,0 0.119465,0.01971 0.240234,0.0625 0.05879,0.02175 0.625329,0.281425 1.103516,0.511719 0.479903,0.231119 0.915807,0.445584 0.951171,0.46289 l 0.02344,0.01172 c 0.192487,0.09478 0.271887,0.148266 0.283203,0.166016 -0.04316,-0.07165 0.02626,0.115205 0.0059,0.351562 -0.0204,0.236358 -0.08512,0.536205 -0.185546,0.814453 -0.08227,0.228556 -0.395183,0.561039 -0.771485,0.800782 -0.376302,0.239742 -0.829628,0.390151 -0.966797,0.402343 h -0.002 l -0.0918,0.0098 h -0.0039 c -0.140822,0.01591 -0.282118,0.02409 -0.423828,0.02539 -0.399378,0 -1.113647,-0.05698 -2.769531,-0.71875 -1.636594,-0.653708 -3.3134812,-2.09329 -4.6621096,-4.0625 -0.019813,-0.0289 -0.0174,-0.03651 -0.078125,-0.109375 l 0.015625,0.01758 C 7.5781095,11.508486 6.8027344,10.30009 6.8027344,9.1777344 c 0,-1.3234136 0.6675569,-2.0240715 0.8964844,-2.1679688 h 0.00195 c 0.083341,-0.052747 0.3805832,-0.1566982 0.6484375,-0.2128906 0.2678542,-0.056192 0.5586678,-0.085858 0.5605468,-0.085937 0.1386107,-0.00616 0.080281,-0.00586 0.1132813,-0.00586 z"
     id="path2"
     inkscape:connector-curvature="0" />
</svg>
