<?xml version="1.0" encoding="UTF-8" standalone="no"?>
<svg
   xmlns:dc="http://purl.org/dc/elements/1.1/"
   xmlns:cc="http://creativecommons.org/ns#"
   xmlns:rdf="http://www.w3.org/1999/02/22-rdf-syntax-ns#"
   xmlns:svg="http://www.w3.org/2000/svg"
   xmlns="http://www.w3.org/2000/svg"
   xmlns:sodipodi="http://sodipodi.sourceforge.net/DTD/sodipodi-0.dtd"
   xmlns:inkscape="http://www.inkscape.org/namespaces/inkscape"
   width="32"
   height="32"
   viewBox="0 0 32 32"
   version="1.1"
   id="svg8"
   sodipodi:docname="icon-32-facebook-white.svg"
   inkscape:version="0.92.3 (2405546, 2018-03-11)">
  <metadata
     id="metadata14">
    <rdf:RDF>
      <cc:Work
         rdf:about="">
        <dc:format>image/svg+xml</dc:format>
        <dc:type
           rdf:resource="http://purl.org/dc/dcmitype/StillImage" />
      </cc:Work>
    </rdf:RDF>
  </metadata>
  <defs
     id="defs12" />
  <sodipodi:namedview
     pagecolor="#ffffff"
     bordercolor="#666666"
     borderopacity="1"
     objecttolerance="10"
     gridtolerance="10"
     guidetolerance="10"
     inkscape:pageopacity="0"
     inkscape:pageshadow="2"
     inkscape:window-width="640"
     inkscape:window-height="480"
     id="namedview10"
     showgrid="false"
     inkscape:zoom="7.375"
     inkscape:cx="16"
     inkscape:cy="16"
     inkscape:window-x="67"
     inkscape:window-y="27"
     inkscape:window-maximized="0"
     inkscape:current-layer="svg8" />
  <path
     style="color:#000000;font-style:normal;font-variant:normal;font-weight:normal;font-stretch:normal;font-size:medium;line-height:normal;font-family:sans-serif;font-variant-ligatures:normal;font-variant-position:normal;font-variant-caps:normal;font-variant-numeric:normal;font-variant-alternates:normal;font-feature-settings:normal;text-indent:0;text-align:start;text-decoration:none;text-decoration-line:none;text-decoration-style:solid;text-decoration-color:#000000;letter-spacing:normal;word-spacing:normal;text-transform:none;writing-mode:lr-tb;direction:ltr;text-orientation:mixed;dominant-baseline:auto;baseline-shift:baseline;text-anchor:start;white-space:normal;shape-padding:0;clip-rule:nonzero;display:inline;overflow:visible;visibility:visible;opacity:1;isolation:auto;mix-blend-mode:normal;color-interpolation:sRGB;color-interpolation-filters:linearRGB;solid-color:#000000;solid-opacity:1;vector-effect:none;fill:#ffffff;fill-opacity:1;fill-rule:evenodd;stroke:none;stroke-width:2;stroke-linecap:round;stroke-linejoin:miter;stroke-miterlimit:4;stroke-dasharray:none;stroke-dashoffset:0;stroke-opacity:1;color-rendering:auto;image-rendering:auto;shape-rendering:auto;text-rendering:auto;enable-background:accumulate"
     d="M 3.4199219,0 C 1.5429527,0 0,1.5429527 0,3.4199219 V 28.580078 C -1.6020361e-7,30.456511 1.5415362,31.999225 3.4179688,32 H 15.121094 a 1.0001,1.0001 0 1 0 0,-2 H 3.4199219 C 2.6240773,29.999671 1.9999999,29.375923 2,28.580078 V 3.4199219 C 2,2.6238329 2.6238329,2 3.4199219,2 H 28.580078 C 29.376167,2 30,2.6238329 30,3.4199219 V 28.580078 C 30,29.376167 29.376167,30 28.580078,30 h -7.822266 a 1.0001,1.0001 0 1 0 0,2 h 7.822266 C 30.457047,32 32,30.457047 32,28.580078 V 3.4199219 C 32,1.5429527 30.457047,0 28.580078,0 Z"
     id="path2"
     inkscape:connector-curvature="0" />
  <path
     style="color:#000000;font-style:normal;font-variant:normal;font-weight:normal;font-stretch:normal;font-size:medium;line-height:normal;font-family:sans-serif;font-variant-ligatures:normal;font-variant-position:normal;font-variant-caps:normal;font-variant-numeric:normal;font-variant-alternates:normal;font-feature-settings:normal;text-indent:0;text-align:start;text-decoration:none;text-decoration-line:none;text-decoration-style:solid;text-decoration-color:#000000;letter-spacing:normal;word-spacing:normal;text-transform:none;writing-mode:lr-tb;direction:ltr;text-orientation:mixed;dominant-baseline:auto;baseline-shift:baseline;text-anchor:start;white-space:normal;shape-padding:0;clip-rule:nonzero;display:inline;overflow:visible;visibility:visible;opacity:1;isolation:auto;mix-blend-mode:normal;color-interpolation:sRGB;color-interpolation-filters:linearRGB;solid-color:#000000;solid-opacity:1;vector-effect:none;fill:#ffffff;fill-opacity:1;fill-rule:evenodd;stroke:none;stroke-width:2;stroke-linecap:round;stroke-linejoin:round;stroke-miterlimit:4;stroke-dasharray:none;stroke-dashoffset:0;stroke-opacity:1;color-rendering:auto;image-rendering:auto;shape-rendering:auto;text-rendering:auto;enable-background:accumulate"
     d="m 21.115234,5.625 c -3.854148,0 -7,3.1458514 -7,7 V 15 H 11.3125 a 1.0001,1.0001 0 0 0 -1,1 v 5.675781 a 1.0001,1.0001 0 0 0 1,1 h 2.802734 V 31 a 1.0001,1.0001 0 1 0 2,0 v -9.324219 a 1.0001,1.0001 0 0 0 -1,-1 H 12.3125 V 17 h 2.802734 a 1.0001,1.0001 0 0 0 1,-1 v -3.375 c 0,-2.7732684 2.226732,-5 5,-5 h 4.273438 v 3.625 h -4.753906 a 1.0001,1.0001 0 0 0 -1,1 V 16 a 1.0001,1.0001 0 0 0 1,1 h 4.539062 l -0.720703,3.675781 h -3.816406 a 1.0001,1.0001 0 0 0 -1,1 V 31 a 1.0001,1.0001 0 0 0 1,1 h 1.021484 a 1.0001,1.0001 0 1 0 0,-2 h -0.02148 v -7.324219 h 3.638672 a 1.0001,1.0001 0 0 0 0.982421,-0.80664 l 1.113282,-5.675782 A 1.0001,1.0001 0 0 0 26.388672,15 h -4.753906 v -1.75 h 4.753906 a 1.0001,1.0001 0 0 0 1,-1 V 6.625 a 1.0001,1.0001 0 0 0 -1,-1 z"
     id="path4"
     inkscape:connector-curvature="0" />
</svg>
