<?xml version="1.0" encoding="UTF-8" standalone="no"?>
<svg
   xmlns:dc="http://purl.org/dc/elements/1.1/"
   xmlns:cc="http://creativecommons.org/ns#"
   xmlns:rdf="http://www.w3.org/1999/02/22-rdf-syntax-ns#"
   xmlns:svg="http://www.w3.org/2000/svg"
   xmlns="http://www.w3.org/2000/svg"
   xmlns:sodipodi="http://sodipodi.sourceforge.net/DTD/sodipodi-0.dtd"
   xmlns:inkscape="http://www.inkscape.org/namespaces/inkscape"
   width="30"
   height="24"
   viewBox="0 0 30 24"
   version="1.1"
   id="svg10"
   sodipodi:docname="icon-cart-white.svg"
   inkscape:version="0.92.3 (2405546, 2018-03-11)">
  <metadata
     id="metadata16">
    <rdf:RDF>
      <cc:Work
         rdf:about="">
        <dc:format>image/svg+xml</dc:format>
        <dc:type
           rdf:resource="http://purl.org/dc/dcmitype/StillImage" />
      </cc:Work>
    </rdf:RDF>
  </metadata>
  <defs
     id="defs14" />
  <sodipodi:namedview
     pagecolor="#ffffff"
     bordercolor="#666666"
     borderopacity="1"
     objecttolerance="10"
     gridtolerance="10"
     guidetolerance="10"
     inkscape:pageopacity="0"
     inkscape:pageshadow="2"
     inkscape:window-width="640"
     inkscape:window-height="480"
     id="namedview12"
     showgrid="false"
     inkscape:zoom="9.8333333"
     inkscape:cx="15"
     inkscape:cy="12"
     inkscape:window-x="67"
     inkscape:window-y="27"
     inkscape:window-maximized="0"
     inkscape:current-layer="svg10" />
  <path
     style="color:#000000;font-style:normal;font-variant:normal;font-weight:normal;font-stretch:normal;font-size:medium;line-height:normal;font-family:sans-serif;font-variant-ligatures:normal;font-variant-position:normal;font-variant-caps:normal;font-variant-numeric:normal;font-variant-alternates:normal;font-feature-settings:normal;text-indent:0;text-align:start;text-decoration:none;text-decoration-line:none;text-decoration-style:solid;text-decoration-color:#000000;letter-spacing:normal;word-spacing:normal;text-transform:none;writing-mode:lr-tb;direction:ltr;text-orientation:mixed;dominant-baseline:auto;baseline-shift:baseline;text-anchor:start;white-space:normal;shape-padding:0;clip-rule:nonzero;display:inline;overflow:visible;visibility:visible;opacity:1;isolation:auto;mix-blend-mode:normal;color-interpolation:sRGB;color-interpolation-filters:linearRGB;solid-color:#000000;solid-opacity:1;vector-effect:none;fill:#ffffff;fill-opacity:1;fill-rule:evenodd;stroke:none;stroke-width:2;stroke-linecap:round;stroke-linejoin:miter;stroke-miterlimit:4;stroke-dasharray:none;stroke-dashoffset:0;stroke-opacity:1;color-rendering:auto;image-rendering:auto;shape-rendering:auto;text-rendering:auto;enable-background:accumulate"
     d="M 2,1 A 1.0001,1.0001 0 1 0 2,3 H 3.71875 L 4.0527344,4.3320312 H 3.984375 L 4.390625,5.671875 7.9257812,17.332031 H 23.523438 L 28.447266,4.3320312 H 27 6.1132812 L 5.28125,1 Z M 6.6796875,6.3320312 H 25.550781 L 22.142578,15.332031 H 9.4082031 Z m 4.8886715,1.3203126 a 1.0001,1.0001 0 0 0 -0.986328,1.015625 v 4.1640622 a 1.0001,1.0001 0 1 0 2,0 V 8.6679688 a 1.0001,1.0001 0 0 0 -1.013672,-1.015625 z m 4.166016,0 A 1.0001,1.0001 0 0 0 14.75,8.6679688 v 4.1640622 a 1.0001,1.0001 0 1 0 2,0 V 8.6679688 a 1.0001,1.0001 0 0 0 -1.015625,-1.015625 z m 4.167969,0 a 1.0001,1.0001 0 0 0 -0.984375,1.015625 v 4.1640622 a 1.0001,1.0001 0 1 0 2,0 V 8.6679688 a 1.0001,1.0001 0 0 0 -1.015625,-1.015625 z"
     id="path2"
     inkscape:connector-curvature="0" />
  <path
     style="color:#000000;font-style:normal;font-variant:normal;font-weight:normal;font-stretch:normal;font-size:medium;line-height:normal;font-family:sans-serif;font-variant-ligatures:normal;font-variant-position:normal;font-variant-caps:normal;font-variant-numeric:normal;font-variant-alternates:normal;font-feature-settings:normal;text-indent:0;text-align:start;text-decoration:none;text-decoration-line:none;text-decoration-style:solid;text-decoration-color:#000000;letter-spacing:normal;word-spacing:normal;text-transform:none;writing-mode:lr-tb;direction:ltr;text-orientation:mixed;dominant-baseline:auto;baseline-shift:baseline;text-anchor:start;white-space:normal;shape-padding:0;clip-rule:nonzero;display:inline;overflow:visible;visibility:visible;opacity:1;isolation:auto;mix-blend-mode:normal;color-interpolation:sRGB;color-interpolation-filters:linearRGB;solid-color:#000000;solid-opacity:1;vector-effect:none;fill:#ffffff;fill-opacity:1;fill-rule:evenodd;stroke:none;stroke-width:2;stroke-linecap:round;stroke-linejoin:miter;stroke-miterlimit:4;stroke-dasharray:none;stroke-dashoffset:0;stroke-opacity:1;color-rendering:auto;image-rendering:auto;shape-rendering:auto;text-rendering:auto;enable-background:accumulate"
     d="M 20.332031,17.666016 C 21.79313,17.666016 23,18.870933 23,20.332031 23,21.79313 21.79313,23 20.332031,23 c -1.461098,0 -2.666015,-1.20687 -2.666015,-2.667969 0,-1.461098 1.204917,-2.666015 2.666015,-2.666015 z m 0,2 c -0.380218,0 -0.666015,0.285797 -0.666015,0.666015 C 19.666016,20.71225 19.951813,21 20.332031,21 20.71225,21 21,20.71225 21,20.332031 21,19.951813 20.71225,19.666016 20.332031,19.666016 Z"
     id="circle4"
     inkscape:connector-curvature="0" />
  <path
     style="color:#000000;font-style:normal;font-variant:normal;font-weight:normal;font-stretch:normal;font-size:medium;line-height:normal;font-family:sans-serif;font-variant-ligatures:normal;font-variant-position:normal;font-variant-caps:normal;font-variant-numeric:normal;font-variant-alternates:normal;font-feature-settings:normal;text-indent:0;text-align:start;text-decoration:none;text-decoration-line:none;text-decoration-style:solid;text-decoration-color:#000000;letter-spacing:normal;word-spacing:normal;text-transform:none;writing-mode:lr-tb;direction:ltr;text-orientation:mixed;dominant-baseline:auto;baseline-shift:baseline;text-anchor:start;white-space:normal;shape-padding:0;clip-rule:nonzero;display:inline;overflow:visible;visibility:visible;opacity:1;isolation:auto;mix-blend-mode:normal;color-interpolation:sRGB;color-interpolation-filters:linearRGB;solid-color:#000000;solid-opacity:1;vector-effect:none;fill:#ffffff;fill-opacity:1;fill-rule:evenodd;stroke:none;stroke-width:2;stroke-linecap:round;stroke-linejoin:miter;stroke-miterlimit:4;stroke-dasharray:none;stroke-dashoffset:0;stroke-opacity:1;color-rendering:auto;image-rendering:auto;shape-rendering:auto;text-rendering:auto;enable-background:accumulate"
     d="m 11.167969,17.666016 c 1.461098,0 2.666015,1.204917 2.666015,2.666015 C 13.833984,21.79313 12.629067,23 11.167969,23 9.7068699,23 8.5000001,21.79313 8.5,20.332031 c 10e-8,-1.461099 1.2068699,-2.666015 2.667969,-2.666015 z m 0,2 C 10.78775,19.666016 10.5,19.951813 10.5,20.332031 10.5,20.71225 10.78775,21 11.167969,21 c 0.380218,0 0.666015,-0.28775 0.666015,-0.667969 0,-0.380218 -0.285797,-0.666015 -0.666015,-0.666015 z"
     id="circle6"
     inkscape:connector-curvature="0" />
</svg>
