<?xml version="1.0" encoding="UTF-8" standalone="no"?>
<svg
   xmlns:dc="http://purl.org/dc/elements/1.1/"
   xmlns:cc="http://creativecommons.org/ns#"
   xmlns:rdf="http://www.w3.org/1999/02/22-rdf-syntax-ns#"
   xmlns:svg="http://www.w3.org/2000/svg"
   xmlns="http://www.w3.org/2000/svg"
   xmlns:sodipodi="http://sodipodi.sourceforge.net/DTD/sodipodi-0.dtd"
   xmlns:inkscape="http://www.inkscape.org/namespaces/inkscape"
   width="80"
   height="80"
   viewBox="0 0 80 80"
   version="1.1"
   id="svg10"
   sodipodi:docname="icon-delivery.svg"
   inkscape:version="0.92.3 (2405546, 2018-03-11)">
  <metadata
     id="metadata16">
    <rdf:RDF>
      <cc:Work
         rdf:about="">
        <dc:format>image/svg+xml</dc:format>
        <dc:type
           rdf:resource="http://purl.org/dc/dcmitype/StillImage" />
      </cc:Work>
    </rdf:RDF>
  </metadata>
  <defs
     id="defs14" />
  <sodipodi:namedview
     pagecolor="#ffffff"
     bordercolor="#666666"
     borderopacity="1"
     objecttolerance="10"
     gridtolerance="10"
     guidetolerance="10"
     inkscape:pageopacity="0"
     inkscape:pageshadow="2"
     inkscape:window-width="640"
     inkscape:window-height="480"
     id="namedview12"
     showgrid="false"
     inkscape:zoom="2.95"
     inkscape:cx="40"
     inkscape:cy="40"
     inkscape:window-x="67"
     inkscape:window-y="27"
     inkscape:window-maximized="0"
     inkscape:current-layer="svg10" />
  <path
     style="color:#000000;font-style:normal;font-variant:normal;font-weight:normal;font-stretch:normal;font-size:medium;line-height:normal;font-family:sans-serif;font-variant-ligatures:normal;font-variant-position:normal;font-variant-caps:normal;font-variant-numeric:normal;font-variant-alternates:normal;font-feature-settings:normal;text-indent:0;text-align:start;text-decoration:none;text-decoration-line:none;text-decoration-style:solid;text-decoration-color:#000000;letter-spacing:normal;word-spacing:normal;text-transform:none;writing-mode:lr-tb;direction:ltr;text-orientation:mixed;dominant-baseline:auto;baseline-shift:baseline;text-anchor:start;white-space:normal;shape-padding:0;clip-rule:nonzero;display:inline;overflow:visible;visibility:visible;opacity:1;isolation:auto;mix-blend-mode:normal;color-interpolation:sRGB;color-interpolation-filters:linearRGB;solid-color:#000000;solid-opacity:1;vector-effect:none;fill:#ffffff;fill-opacity:1;fill-rule:evenodd;stroke:none;stroke-width:2;stroke-linecap:round;stroke-linejoin:miter;stroke-miterlimit:4;stroke-dasharray:none;stroke-dashoffset:0;stroke-opacity:1;color-rendering:auto;image-rendering:auto;shape-rendering:auto;text-rendering:auto;enable-background:accumulate"
     d="m 30.875,46.349609 c -4.309784,0 -7.824219,3.516389 -7.824219,7.826172 0,4.309784 3.514435,7.824219 7.824219,7.824219 4.309784,0 7.824219,-3.514435 7.824219,-7.824219 0,-4.309783 -3.514435,-7.826172 -7.824219,-7.826172 z m 0,2 c 3.228903,0 5.824219,2.597269 5.824219,5.826172 C 36.699219,57.404685 34.103903,60 30.875,60 c -3.228903,0 -5.824219,-2.595315 -5.824219,-5.824219 0,-3.228903 2.595316,-5.826172 5.824219,-5.826172 z"
     id="circle2"
     inkscape:connector-curvature="0" />
  <path
     style="color:#000000;font-style:normal;font-variant:normal;font-weight:normal;font-stretch:normal;font-size:medium;line-height:normal;font-family:sans-serif;font-variant-ligatures:normal;font-variant-position:normal;font-variant-caps:normal;font-variant-numeric:normal;font-variant-alternates:normal;font-feature-settings:normal;text-indent:0;text-align:start;text-decoration:none;text-decoration-line:none;text-decoration-style:solid;text-decoration-color:#000000;letter-spacing:normal;word-spacing:normal;text-transform:none;writing-mode:lr-tb;direction:ltr;text-orientation:mixed;dominant-baseline:auto;baseline-shift:baseline;text-anchor:start;white-space:normal;shape-padding:0;clip-rule:nonzero;display:inline;overflow:visible;visibility:visible;opacity:1;isolation:auto;mix-blend-mode:normal;color-interpolation:sRGB;color-interpolation-filters:linearRGB;solid-color:#000000;solid-opacity:1;vector-effect:none;fill:#ffffff;fill-opacity:1;fill-rule:evenodd;stroke:none;stroke-width:2;stroke-linecap:round;stroke-linejoin:miter;stroke-miterlimit:4;stroke-dasharray:none;stroke-dashoffset:0;stroke-opacity:1;color-rendering:auto;image-rendering:auto;shape-rendering:auto;text-rendering:auto;enable-background:accumulate"
     d="m 67.625,46.349609 c -4.309784,0 -7.824219,3.516389 -7.824219,7.826172 0,4.309784 3.514435,7.824219 7.824219,7.824219 4.309784,0 7.824219,-3.514435 7.824219,-7.824219 0,-4.309783 -3.514435,-7.826172 -7.824219,-7.826172 z m 0,2 c 3.228903,0 5.824219,2.597269 5.824219,5.826172 C 73.449219,57.404685 70.853903,60 67.625,60 c -3.228903,0 -5.824219,-2.595315 -5.824219,-5.824219 0,-3.228903 2.595316,-5.826172 5.824219,-5.826172 z"
     id="circle4"
     inkscape:connector-curvature="0" />
  <path
     style="color:#000000;font-style:normal;font-variant:normal;font-weight:normal;font-stretch:normal;font-size:medium;line-height:normal;font-family:sans-serif;font-variant-ligatures:normal;font-variant-position:normal;font-variant-caps:normal;font-variant-numeric:normal;font-variant-alternates:normal;font-feature-settings:normal;text-indent:0;text-align:start;text-decoration:none;text-decoration-line:none;text-decoration-style:solid;text-decoration-color:#000000;letter-spacing:normal;word-spacing:normal;text-transform:none;writing-mode:lr-tb;direction:ltr;text-orientation:mixed;dominant-baseline:auto;baseline-shift:baseline;text-anchor:start;white-space:normal;shape-padding:0;clip-rule:nonzero;display:inline;overflow:visible;visibility:visible;opacity:1;isolation:auto;mix-blend-mode:normal;color-interpolation:sRGB;color-interpolation-filters:linearRGB;solid-color:#000000;solid-opacity:1;vector-effect:none;fill:#ffffff;fill-opacity:1;fill-rule:evenodd;stroke:none;stroke-width:2;stroke-linecap:round;stroke-linejoin:miter;stroke-miterlimit:4;stroke-dasharray:none;stroke-dashoffset:0;stroke-opacity:1;color-rendering:auto;image-rendering:auto;shape-rendering:auto;text-rendering:auto;enable-background:accumulate"
     d="m 16.75,18 v 7.349609 H 9.3496094 a 1.0001,1.0001 0 1 0 0,2 H 16.75 V 33.75 h -2.150391 a 1.0001,1.0001 0 1 0 0,2 H 16.75 v 5.349609 H 2 a 1.0001,1.0001 0 1 0 0,2 h 14.75 v 13.392579 h 7.820312 a 1.0001,1.0001 0 1 0 0,-2 H 18.75 V 43.099609 h 8.449219 a 1.0001,1.0001 0 1 0 0,-2 H 18.75 V 35.75 h 13.699219 a 1.0001,1.0001 0 1 0 0,-2 H 18.75 v -6.400391 h 24.199219 a 1.0001,1.0001 0 1 0 0,-2 H 18.75 V 20 h 35.800781 v 6.179688 a 1.0001,1.0001 0 0 0 0,0.333984 v 19.726562 a 1.0001,1.0001 0 1 0 2,0 V 27.349609 h 8.953125 l 12.146485,12.205079 v 14.939453 h -3.083985 a 1.0001,1.0001 0 1 0 0,2 h 5.083985 V 38.728516 L 66.335938,25.349609 H 56.550781 V 18 Z m 21.105469,36.492188 a 1.0001,1.0001 0 1 0 0,2 h 17.625 a 1.0001,1.0001 0 0 0 0.07031,0.002 h 4.619141 a 1.0001,1.0001 0 1 0 0,-2 h -4.550781 a 1.0001,1.0001 0 0 0 -0.06836,-0.002 z"
     id="path6"
     inkscape:connector-curvature="0" />
</svg>
