<?xml version="1.0" encoding="UTF-8" standalone="no"?>
<svg
   xmlns:dc="http://purl.org/dc/elements/1.1/"
   xmlns:cc="http://creativecommons.org/ns#"
   xmlns:rdf="http://www.w3.org/1999/02/22-rdf-syntax-ns#"
   xmlns:svg="http://www.w3.org/2000/svg"
   xmlns="http://www.w3.org/2000/svg"
   xmlns:sodipodi="http://sodipodi.sourceforge.net/DTD/sodipodi-0.dtd"
   xmlns:inkscape="http://www.inkscape.org/namespaces/inkscape"
   width="80"
   height="80"
   viewBox="0 0 80 80"
   version="1.1"
   id="svg20"
   sodipodi:docname="icon-quality.svg"
   inkscape:version="0.92.3 (2405546, 2018-03-11)">
  <metadata
     id="metadata26">
    <rdf:RDF>
      <cc:Work
         rdf:about="">
        <dc:format>image/svg+xml</dc:format>
        <dc:type
           rdf:resource="http://purl.org/dc/dcmitype/StillImage" />
      </cc:Work>
    </rdf:RDF>
  </metadata>
  <defs
     id="defs24" />
  <sodipodi:namedview
     pagecolor="#ffffff"
     bordercolor="#666666"
     borderopacity="1"
     objecttolerance="10"
     gridtolerance="10"
     guidetolerance="10"
     inkscape:pageopacity="0"
     inkscape:pageshadow="2"
     inkscape:window-width="640"
     inkscape:window-height="480"
     id="namedview22"
     showgrid="false"
     inkscape:zoom="2.95"
     inkscape:cx="40"
     inkscape:cy="40"
     inkscape:window-x="67"
     inkscape:window-y="27"
     inkscape:window-maximized="0"
     inkscape:current-layer="svg20" />
  <path
     style="color:#000000;font-style:normal;font-variant:normal;font-weight:normal;font-stretch:normal;font-size:medium;line-height:normal;font-family:sans-serif;font-variant-ligatures:normal;font-variant-position:normal;font-variant-caps:normal;font-variant-numeric:normal;font-variant-alternates:normal;font-feature-settings:normal;text-indent:0;text-align:start;text-decoration:none;text-decoration-line:none;text-decoration-style:solid;text-decoration-color:#000000;letter-spacing:normal;word-spacing:normal;text-transform:none;writing-mode:lr-tb;direction:ltr;text-orientation:mixed;dominant-baseline:auto;baseline-shift:baseline;text-anchor:start;white-space:normal;shape-padding:0;clip-rule:nonzero;display:inline;overflow:visible;visibility:visible;opacity:1;isolation:auto;mix-blend-mode:normal;color-interpolation:sRGB;color-interpolation-filters:linearRGB;solid-color:#000000;solid-opacity:1;vector-effect:none;fill:#ffffff;fill-opacity:1;fill-rule:evenodd;stroke:none;stroke-width:2;stroke-linecap:round;stroke-linejoin:round;stroke-miterlimit:4;stroke-dasharray:none;stroke-dashoffset:0;stroke-opacity:1;color-rendering:auto;image-rendering:auto;shape-rendering:auto;text-rendering:auto;enable-background:accumulate"
     d="M 5.5195312,14.609375 A 1.0001,1.0001 0 0 0 4.5,15.441406 c 0,0 -0.4975175,2.833887 0.390625,5.978516 0.8361451,2.960523 3.1471654,6.211449 7.923828,7.511719 -0.573584,2.042883 -1.087542,4.298943 -1.326172,6.912109 -0.778844,8.528883 1.231318,19.671092 12.070313,29.685547 a 1.0001,1.0001 0 1 0 1.357422,-1.46875 C 14.525011,54.460002 12.743313,44.097758 13.480469,36.025391 14.217625,27.953024 17.517578,22.289063 17.517578,22.289062 A 1.0001,1.0001 0 1 0 15.791016,21.28125 c 0,0 -0.618586,1.404986 -1.019532,2.240234 -0.575581,-2.750781 -2.040779,-4.84471 -3.705078,-6.183593 C 8.5203699,15.289673 5.7167969,14.636719 5.7167969,14.636719 a 1.0001,1.0001 0 0 0 -0.1972657,-0.02734 z m 0.8691407,2.363281 c 0.8973718,0.327697 2.101389,0.858009 3.4238281,1.921875 1.954414,1.572273 3.564268,4.013546 3.132812,7.994141 C 9.113434,25.727602 7.4981116,23.290654 6.8164062,20.876953 6.3549626,19.243128 6.3388391,17.926607 6.3886719,16.972656 Z"
     id="path2"
     inkscape:connector-curvature="0" />
  <path
     style="color:#000000;font-style:normal;font-variant:normal;font-weight:normal;font-stretch:normal;font-size:medium;line-height:normal;font-family:sans-serif;font-variant-ligatures:normal;font-variant-position:normal;font-variant-caps:normal;font-variant-numeric:normal;font-variant-alternates:normal;font-feature-settings:normal;text-indent:0;text-align:start;text-decoration:none;text-decoration-line:none;text-decoration-style:solid;text-decoration-color:#000000;letter-spacing:normal;word-spacing:normal;text-transform:none;writing-mode:lr-tb;direction:ltr;text-orientation:mixed;dominant-baseline:auto;baseline-shift:baseline;text-anchor:start;white-space:normal;shape-padding:0;clip-rule:nonzero;display:inline;overflow:visible;visibility:visible;opacity:1;isolation:auto;mix-blend-mode:normal;color-interpolation:sRGB;color-interpolation-filters:linearRGB;solid-color:#000000;solid-opacity:1;vector-effect:none;fill:#ffffff;fill-opacity:1;fill-rule:evenodd;stroke:none;stroke-width:2;stroke-linecap:round;stroke-linejoin:round;stroke-miterlimit:4;stroke-dasharray:none;stroke-dashoffset:0;stroke-opacity:1;color-rendering:auto;image-rendering:auto;shape-rendering:auto;text-rendering:auto;enable-background:accumulate"
     d="m 24.003906,24.208984 c 0,0 -2.875844,-0.125827 -5.878906,1.16211 -3.003062,1.287936 -6.208578,4.172038 -6.601562,9.685547 a 1.0001,1.0001 0 0 0 -0.0039,0.111328 C 10.196179,32.857605 8.2929888,31.333907 6.3984375,30.544922 3.3819483,29.288707 0.5078125,29.443359 0.5078125,29.443359 A 1.0001,1.0001 0 0 0 -0.4375,30.556641 c 0,0 0.31448784,2.860918 2.0449219,5.632812 1.730434,2.771894 5.0708596,5.501885 10.5800781,5.050781 a 1.0001,1.0001 0 0 0 0.917969,-0.998046 1.0001,1.0001 0 0 0 -0.0039,-0.08203 C 12.966543,38.511199 12.531934,37.16788 11.978516,35.966797 A 1.0001,1.0001 0 0 0 12.449219,36.125 c 5.513933,0.392976 8.824342,-2.370448 10.52539,-5.160156 1.701049,-2.789708 1.984375,-5.654297 1.984375,-5.654297 a 1.0001,1.0001 0 0 0 -0.955078,-1.101563 z m -1.27539,2.070313 c -0.208686,0.93221 -0.579572,2.195893 -1.462891,3.644531 -1.305799,2.141502 -3.515965,4.05316 -7.519531,4.140625 0.654761,-3.949042 2.860993,-5.866903 5.166015,-6.855469 1.560289,-0.669168 2.863997,-0.855487 3.816407,-0.929687 z M 1.8046875,31.501953 c 0.9531923,0.0642 2.2573388,0.236146 3.8242187,0.888672 2.3156795,0.964363 4.5423028,2.859384 5.2382818,6.802734 -4.0031831,-0.04568 -6.2342239,-1.934801 -7.5625005,-4.0625 -0.8988098,-1.439757 -1.2814928,-2.698853 -1.5,-3.628906 z m 20.9218745,5.017578 a 1.0001,1.0001 0 0 0 -0.232421,0.01758 c 0,0 -2.826987,0.546434 -5.449219,2.496094 -2.622233,1.94966 -5.070704,5.49882 -4.173828,10.953125 a 1.0001,1.0001 0 0 0 1.148437,0.824219 c 5.454769,-0.896864 8.031751,-4.352507 9.039063,-7.460938 1.007311,-3.10843 0.61914,-5.960937 0.61914,-5.960937 a 1.0001,1.0001 0 0 0 -0.951172,-0.869141 z m -0.99414,2.328125 c 0.01338,0.955206 -0.05293,2.270123 -0.576172,3.884766 -0.77327,2.386208 -2.479376,4.75961 -6.353516,5.773437 -0.279723,-3.994 1.422629,-6.370559 3.435547,-7.867187 1.361479,-1.012275 2.58485,-1.497645 3.494141,-1.791016 z m 3.46875,8.125 a 1.0001,1.0001 0 0 0 -0.503906,0.16211 c 0,0 -2.414556,1.566116 -4.113282,4.357422 -1.698725,2.791305 -2.636093,7.001239 0.242188,11.720703 a 1.0001,1.0001 0 0 0 1.375,0.332031 c 4.719561,-2.877807 5.811172,-7.049049 5.578125,-10.308594 -0.233047,-3.259544 -1.664063,-5.757812 -1.664063,-5.757812 a 1.0001,1.0001 0 0 0 -0.914062,-0.50586 z m -0.339844,2.587891 c 0.370982,0.880458 0.802735,2.124674 0.923828,3.818359 0.178905,2.502279 -0.512334,5.343171 -3.722656,7.736328 -1.758297,-3.597507 -1.073523,-6.439342 0.230469,-8.582031 0.883024,-1.450964 1.835746,-2.359878 2.568359,-2.972656 z"
     id="path4"
     inkscape:connector-curvature="0" />
  <path
     style="color:#000000;font-style:normal;font-variant:normal;font-weight:normal;font-stretch:normal;font-size:medium;line-height:normal;font-family:sans-serif;font-variant-ligatures:normal;font-variant-position:normal;font-variant-caps:normal;font-variant-numeric:normal;font-variant-alternates:normal;font-feature-settings:normal;text-indent:0;text-align:start;text-decoration:none;text-decoration-line:none;text-decoration-style:solid;text-decoration-color:#000000;letter-spacing:normal;word-spacing:normal;text-transform:none;writing-mode:lr-tb;direction:ltr;text-orientation:mixed;dominant-baseline:auto;baseline-shift:baseline;text-anchor:start;white-space:normal;shape-padding:0;clip-rule:nonzero;display:inline;overflow:visible;visibility:visible;opacity:1;isolation:auto;mix-blend-mode:normal;color-interpolation:sRGB;color-interpolation-filters:linearRGB;solid-color:#000000;solid-opacity:1;vector-effect:none;fill:#ffffff;fill-opacity:1;fill-rule:evenodd;stroke:none;stroke-width:2;stroke-linecap:round;stroke-linejoin:round;stroke-miterlimit:4;stroke-dasharray:none;stroke-dashoffset:0;stroke-opacity:1;color-rendering:auto;image-rendering:auto;shape-rendering:auto;text-rendering:auto;enable-background:accumulate"
     d="m 3.7226562,44.662109 c -1.098558,0.08655 -1.7988281,0.257813 -1.7988281,0.257813 A 1.0001,1.0001 0 0 0 1.203125,46.1875 c 0,0 0.8378027,2.754336 3.0507812,5.158203 2.2129786,2.403867 5.9975498,4.466522 11.3281248,3.003906 a 1.0001,1.0001 0 0 0 0.701172,-1.228515 c -1.462615,-5.330573 -5.170517,-7.532341 -8.3671874,-8.208985 -1.5983353,-0.338322 -3.0948013,-0.336547 -4.1933594,-0.25 z m 11.8593748,9.6875 -0.263672,0.03711 a 1.0001,1.0001 0 0 0 0.263672,-0.03711 z M 3.9355469,46.652344 c 0.9405357,-0.07036 2.2173666,-0.06876 3.5664062,0.216797 2.4535288,0.519342 4.9925269,1.967992 6.4062499,5.71289 C 9.9650489,53.278369 7.4233909,51.83555 5.7246094,49.990234 4.5745867,48.741012 3.9646233,47.574636 3.578125,46.701172 c 0.1783448,-0.02131 0.1395911,-0.03253 0.3574219,-0.04883 z M 14.677734,58.292969 c -0.905501,-0.02396 -1.772281,0.06702 -2.572265,0.232422 -3.199939,0.661598 -5.4863284,2.410156 -5.4863284,2.410156 a 1.0001,1.0001 0 0 0 -0.1542968,1.449219 c 0,0 1.8720109,2.1869 4.8632812,3.501953 2.99127,1.315052 7.286278,1.689447 11.583984,-1.78711 a 1.0001,1.0001 0 0 0 0.148438,-1.40625 c -2.607805,-3.223264 -5.66631,-4.328501 -8.382813,-4.40039 z m -0.05078,1.96875 c 1.931561,0.01304 4.014809,0.812643 6.042969,2.890625 -3.333447,2.21793 -6.240981,1.913744 -8.53711,0.904297 -1.552219,-0.682403 -2.5784456,-1.507103 -3.2832026,-2.152344 0.823904,-0.483933 1.9994526,-1.076566 3.6601566,-1.419922 0.675202,-0.1396 1.384973,-0.227599 2.117187,-0.222656 z"
     id="path6"
     inkscape:connector-curvature="0" />
  <g
     style="fill:none;fill-rule:evenodd;stroke:#ffffff;stroke-width:2;stroke-linecap:round;stroke-linejoin:round"
     id="g14">
    <path
       inkscape:connector-curvature="0"
       id="path8"
       d="m 65.996,28.242 c -2.07,-10.158 8.355,-12.633 8.355,-12.633 0,0 1.803,10.562 -8.355,12.633 z m -2.812,-6.457 c 0,0 13.647,23.395 -7.583,43.01" />
    <path
       inkscape:connector-curvature="0"
       id="path10"
       d="m 67.318,35.128 c -0.737,-10.34 -11.444,-9.92 -11.444,-9.92 0,0 1.103,10.657 11.444,9.92 z m 0.414,5.114 c 0.847,-10.332 11.549,-9.799 11.549,-9.799 0,0 -1.216,10.646 -11.55,9.8 z m -1.752,9.582 c 1.683,-10.229 -8.83,-12.305 -8.83,-12.305 0,0 -1.4,10.623 8.83,12.305 z m -7.822,12.868 c 5.398,-8.851 -3.567,-14.72 -3.567,-14.72 0,0 -5.284,9.323 3.567,14.72 z" />
    <path
       inkscape:connector-curvature="0"
       id="path12"
       d="m 64.519,53.386 c 2.743,-9.997 13.161,-7.494 13.161,-7.494 0,0 -3.163,10.237 -13.161,7.494 z m -6.965,9.936 c 6.521,-8.06 15.062,-1.59 15.062,-1.59 0,0 -7.002,8.11 -15.062,1.59 z" />
  </g>
  <path
     style="color:#000000;font-style:normal;font-variant:normal;font-weight:normal;font-stretch:normal;font-size:medium;line-height:normal;font-family:sans-serif;font-variant-ligatures:normal;font-variant-position:normal;font-variant-caps:normal;font-variant-numeric:normal;font-variant-alternates:normal;font-feature-settings:normal;text-indent:0;text-align:start;text-decoration:none;text-decoration-line:none;text-decoration-style:solid;text-decoration-color:#000000;letter-spacing:normal;word-spacing:normal;text-transform:none;writing-mode:lr-tb;direction:ltr;text-orientation:mixed;dominant-baseline:auto;baseline-shift:baseline;text-anchor:start;white-space:normal;shape-padding:0;clip-rule:nonzero;display:inline;overflow:visible;visibility:visible;opacity:1;isolation:auto;mix-blend-mode:normal;color-interpolation:sRGB;color-interpolation-filters:linearRGB;solid-color:#000000;solid-opacity:1;vector-effect:none;fill:#ffffff;fill-opacity:1;fill-rule:evenodd;stroke:none;stroke-width:2;stroke-linecap:round;stroke-linejoin:round;stroke-miterlimit:4;stroke-dasharray:none;stroke-dashoffset:0;stroke-opacity:1;color-rendering:auto;image-rendering:auto;shape-rendering:auto;text-rendering:auto;enable-background:accumulate"
     d="m 40.447266,31 a 1.0001,1.0001 0 0 0 -0.867188,0.53125 l -2.488281,4.689453 -5.261719,0.90625 a 1.0001,1.0001 0 0 0 -0.544922,1.683594 l 3.716797,3.800781 -0.757812,5.246094 a 1.0001,1.0001 0 0 0 1.427734,1.041016 l 4.792969,-2.341797 4.791015,2.341797 a 1.0001,1.0001 0 0 0 1.427735,-1.041016 l -0.759766,-5.246094 3.71875,-3.800781 A 1.0001,1.0001 0 0 0 49.095703,37.126953 L 43.835938,36.220703 41.347656,31.53125 A 1.0001,1.0001 0 0 0 40.447266,31 Z m 0.01563,3.134766 1.835937,3.457031 a 1.0001,1.0001 0 0 0 0.714844,0.517578 l 3.867187,0.666016 -2.732421,2.791015 A 1.0001,1.0001 0 0 0 43.875,42.410156 l 0.558594,3.861328 -3.53125,-1.726562 a 1.0001,1.0001 0 0 0 -0.876953,0 l -3.53125,1.726562 0.558593,-3.861328 a 1.0001,1.0001 0 0 0 -0.27539,-0.84375 l -2.730469,-2.791015 3.867187,-0.666016 a 1.0001,1.0001 0 0 0 0.712891,-0.515625 z"
     id="path16"
     inkscape:connector-curvature="0" />
</svg>
