<?xml version="1.0" encoding="UTF-8" standalone="no"?>
<svg
   xmlns:dc="http://purl.org/dc/elements/1.1/"
   xmlns:cc="http://creativecommons.org/ns#"
   xmlns:rdf="http://www.w3.org/1999/02/22-rdf-syntax-ns#"
   xmlns:svg="http://www.w3.org/2000/svg"
   xmlns="http://www.w3.org/2000/svg"
   xmlns:sodipodi="http://sodipodi.sourceforge.net/DTD/sodipodi-0.dtd"
   xmlns:inkscape="http://www.inkscape.org/namespaces/inkscape"
   width="24"
   height="24"
   viewBox="0 0 24 24"
   version="1.1"
   id="svg4"
   sodipodi:docname="icon-24-call-primary.svg"
   inkscape:version="0.92.3 (2405546, 2018-03-11)">
  <metadata
     id="metadata10">
    <rdf:RDF>
      <cc:Work
         rdf:about="">
        <dc:format>image/svg+xml</dc:format>
        <dc:type
           rdf:resource="http://purl.org/dc/dcmitype/StillImage" />
      </cc:Work>
    </rdf:RDF>
  </metadata>
  <defs
     id="defs8" />
  <sodipodi:namedview
     pagecolor="#ffffff"
     bordercolor="#666666"
     borderopacity="1"
     objecttolerance="10"
     gridtolerance="10"
     guidetolerance="10"
     inkscape:pageopacity="0"
     inkscape:pageshadow="2"
     inkscape:window-width="513"
     inkscape:window-height="401"
     id="namedview6"
     showgrid="false"
     inkscape:zoom="9.8333333"
     inkscape:cx="12"
     inkscape:cy="12"
     inkscape:window-x="67"
     inkscape:window-y="27"
     inkscape:window-maximized="0"
     inkscape:current-layer="svg4" />
  <path
     style="color:#000000;font-style:normal;font-variant:normal;font-weight:normal;font-stretch:normal;font-size:medium;line-height:normal;font-family:sans-serif;font-variant-ligatures:normal;font-variant-position:normal;font-variant-caps:normal;font-variant-numeric:normal;font-variant-alternates:normal;font-feature-settings:normal;text-indent:0;text-align:start;text-decoration:none;text-decoration-line:none;text-decoration-style:solid;text-decoration-color:#000000;letter-spacing:normal;word-spacing:normal;text-transform:none;writing-mode:lr-tb;direction:ltr;text-orientation:mixed;dominant-baseline:auto;baseline-shift:baseline;text-anchor:start;white-space:normal;shape-padding:0;clip-rule:nonzero;display:inline;overflow:visible;visibility:visible;opacity:1;isolation:auto;mix-blend-mode:normal;color-interpolation:sRGB;color-interpolation-filters:linearRGB;solid-color:#000000;solid-opacity:1;vector-effect:none;fill:#d2652a;fill-opacity:1;fill-rule:evenodd;stroke:none;stroke-width:2;stroke-linecap:round;stroke-linejoin:miter;stroke-miterlimit:4;stroke-dasharray:none;stroke-dashoffset:0;stroke-opacity:1;color-rendering:auto;image-rendering:auto;shape-rendering:auto;text-rendering:auto;enable-background:accumulate"
     d="M 5.59375,0.00390625 C 5.1979577,0.00698256 4.7843924,0.07016449 4.2988281,0.18164062 3.8099443,0.29387885 3.4071294,0.41327291 3.0566406,0.56640625 2.1397737,0.95699639 1.5507624,1.771448 0.921875,2.90625 l -0.001953,0.00391 -0.001953,0.00391 C 0.32220757,4.0135841 0,5.1537671 0,6.296875 0,6.6205796 0.02054106,6.9394009 0.06445312,7.2539062 0.10857416,7.5783644 0.18374678,7.9198423 0.28710938,8.2871094 0.38427097,8.6313095 0.46409887,8.8891378 0.53515625,9.0898438 h -0.001953 C 0.595875,9.2679638 0.7031284,9.556376 0.86132812,9.9765625 1.0160216,10.390126 1.119704,10.676765 1.125,10.693359 l 0.00391,0.01758 0.00586,0.01562 c 0.3858189,1.078179 0.8496425,2.054913 1.3925782,2.925782 0.8736488,1.41689 2.0457138,2.848307 3.5078124,4.310547 1.4622918,1.46332 2.8943329,2.636009 4.3105468,3.509765 0.870869,0.542936 1.847877,1.005642 2.927735,1.390625 l 0.01172,0.0039 0.0098,0.0039 c 0.03383,0.01116 0.3135,0.111686 0.726562,0.267578 h 0.002 c 0.418464,0.156548 0.707521,0.263421 0.884765,0.326172 v 0.002 c 0.200893,0.07068 0.46039,0.149165 0.802735,0.246094 h 0.002 c 0.368093,0.103595 0.709319,0.178558 1.035156,0.222656 C 17.05815,23.977516 17.375934,24 17.701172,24 c 1.143108,0 2.283753,-0.32185 3.382812,-0.917969 l 0.0039,-0.002 0.0039,-0.002 c 1.134153,-0.628528 1.94993,-1.217489 2.339844,-2.138672 0.154985,-0.352968 0.273512,-0.752044 0.384765,-1.236328 v -0.002 c 0.112744,-0.487858 0.17521,-0.903456 0.177735,-1.300781 0.0044,-0.119311 -0.03257,-0.234037 -0.05078,-0.351563 l 0.0078,-0.002 v -0.002 l -0.0078,0.002 c -0.01639,-0.105081 -0.01077,-0.213268 -0.04492,-0.314453 h 0.0039 c -0.0011,-0.0035 -0.0028,-0.0024 -0.0039,-0.0059 -0.0011,-0.0032 -8.57e-4,-0.0066 -0.002,-0.0098 l -0.0059,0.002 c -0.18357,-0.534286 -0.449907,-0.659867 -0.710937,-0.841797 -0.249925,-0.17419 -0.552323,-0.341999 -0.91211,-0.523437 l -0.05664,-0.03125 c -0.211918,-0.122511 -0.469316,-0.26462 -0.810547,-0.451172 h -0.002 C 21.036859,15.674411 20.7108,15.493636 20.419922,15.330078 h -0.002 c -0.265903,-0.148812 -0.529453,-0.302671 -0.791016,-0.458984 -0.114234,-0.08176 -0.22989,-0.162681 -0.345703,-0.242188 l -0.01367,-0.0098 c -0.212935,-0.15026 -0.435547,-0.284415 -0.667969,-0.402344 l -0.0098,-0.0059 -0.0098,-0.0039 c -0.263977,-0.126709 -0.563791,-0.208984 -0.878906,-0.208984 -0.685564,0 -1.075117,0.349109 -1.466797,0.720703 -0.354197,0.336091 -0.680166,0.703244 -0.974609,1.099609 -0.226653,0.304344 -0.474641,0.592251 -0.740235,0.863282 -0.05958,0.06026 -0.0774,0.06253 -0.115234,0.08594 -0.03923,-0.01583 -0.07876,-0.03113 -0.117188,-0.04883 -0.09493,-0.05195 -0.190007,-0.105861 -0.28125,-0.164062 l -0.002,-0.0039 -0.0039,-0.002 c -0.108435,-0.06782 -0.21927,-0.133395 -0.330078,-0.197266 l -0.0059,-0.0039 -0.0078,-0.0039 C 12.300209,15.591133 11.15485,14.738835 10.207031,13.791016 9.2602838,12.844268 8.4087434,11.698565 7.65625,10.341797 l -0.00586,-0.0098 -0.00586,-0.0078 C 7.5800049,10.213384 7.5140336,10.104377 7.4453125,9.9960938 7.3844059,9.8998055 7.3290351,9.801683 7.2753906,9.7011719 7.2591106,9.666091 7.2450217,9.6295735 7.2304688,9.59375 c 0.023359,-0.037855 0.026078,-0.055618 0.085937,-0.1152344 l 0.00195,-0.00195 C 7.5894346,9.2116444 7.8773396,8.9662119 8.1816406,8.7402344 h 0.00195 v -0.00195 C 8.577139,8.4450957 8.942278,8.119579 9.2773438,7.765625 9.6504734,7.3736504 10,6.9824391 10,6.296875 v -0.00781 -0.00586 C 9.9954898,5.9760759 9.9200676,5.6724396 9.78125,5.3984375 9.6606242,5.1612747 9.5217544,4.9333744 9.3671875,4.7167969 9.2876489,4.6002684 9.2068157,4.4840811 9.125,4.3691406 8.9694297,4.108461 8.8183105,3.8468658 8.6699219,3.5820312 v -0.00195 C 8.487991,3.2556721 8.3081241,2.9304947 8.1308594,2.6035156 l -0.00195,-0.00195 C 7.9816381,2.3282825 7.8296746,2.0567125 7.6757812,1.7871094 7.4809839,1.3969794 7.3059619,1.0834375 7.1210938,0.81835938 6.9366804,0.5539334 6.8211938,0.28333634 6.2675781,0.09960937 6.0508406,0.02623574 5.8223672,-0.00493598 5.59375,0.00390625 Z M 5.5117188,2.0175781 c 0.091641,0.1371971 0.2187057,0.3510447 0.375,0.6640625 l 0.011719,0.025391 0.015625,0.023438 c 0.1556766,0.2717728 0.3065163,0.5465391 0.4550781,0.8222656 h 0.00195 v 0.00195 c 0.1822379,0.33618 0.3656875,0.6703779 0.5527343,1.0039063 0.1619897,0.2891089 0.3279847,0.5768927 0.4980469,0.8613281 l 0.021484,0.035156 0.025391,0.033203 c 0.088002,0.1229682 0.1726936,0.2461129 0.2578125,0.3710938 l 0.00781,0.00977 0.00586,0.00781 c 0.095347,0.1335993 0.1791915,0.27574 0.2539062,0.421875 0.00279,-0.236896 0.049807,-0.1367799 -0.1640625,0.087891 l -0.00195,0.00195 v 0.00195 C 7.5719796,6.6614815 7.2916019,6.9087961 6.9882812,7.1347656 6.6111391,7.4149195 6.2538624,7.7203483 5.9179688,8.0488281 l -0.00195,0.00195 -0.00195,0.00195 C 5.5417561,8.4200266 5.171875,8.7715523 5.171875,9.484375 v 0.023437 l 0.00195,0.023437 c 0.011025,0.2307046 0.061978,0.4577606 0.1484375,0.671875 0.047496,0.129913 0.098643,0.257955 0.1582032,0.382813 l 0.00977,0.01758 0.00977,0.01953 c 0.079838,0.150826 0.1646322,0.299137 0.2558594,0.443359 0.05146,0.08109 0.1018654,0.16322 0.1503906,0.246094 0.8315066,1.499232 1.7934662,2.801279 2.8867188,3.894531 1.0941808,1.094181 2.3946192,2.053383 3.8925782,2.884766 0.08536,0.04941 0.170286,0.100043 0.253906,0.152344 0.140825,0.08958 0.284639,0.17487 0.431641,0.253906 l 0.02344,0.01172 0.02539,0.01172 c 0.130561,0.06127 0.262747,0.11716 0.398437,0.166016 0.206526,0.07617 0.418869,0.138672 0.697266,0.138672 0.712823,0 1.064828,-0.369094 1.431641,-0.742188 v -0.002 c 0.329109,-0.335845 0.635225,-0.693135 0.916015,-1.070312 l 0.002,-0.002 c 0.225557,-0.303635 0.472338,-0.581935 0.744141,-0.839844 0.227115,-0.215468 0.336054,-0.17 0.08984,-0.167969 -0.0056,4.7e-5 0.008,-0.0039 0.002,-0.0039 -0.02511,0 -0.02235,-0.0056 0.01367,0.01172 l -0.01563,-0.0078 c 0.147937,0.0753 0.288493,0.161679 0.423828,0.257813 l 0.0078,0.0039 0.0059,0.0059 c 0.124669,0.08544 0.248442,0.17145 0.371093,0.259766 l 0.03516,0.02539 0.03711,0.02148 c 0.284154,0.170086 0.570393,0.336299 0.859375,0.498047 0.302669,0.170187 0.636173,0.35376 1.001953,0.552734 0.362974,0.198439 0.642327,0.352318 0.81836,0.455078 l 0.0293,0.01563 0.0293,0.01563 c 0.312681,0.155912 0.524722,0.281445 0.66211,0.373047 -0.0084,0.17122 -0.03058,0.408034 -0.113281,0.765625 v 0.002 c -0.09554,0.416158 -0.195002,0.724586 -0.267579,0.888672 l -0.0039,0.0078 -0.0039,0.0098 c -0.04908,0.116763 -0.502235,0.631353 -1.464844,1.166016 C 19.269681,21.790393 18.47275,22 17.701172,22 c -0.234762,0 -0.46365,-0.01684 -0.685547,-0.04687 -0.205659,-0.02783 -0.460807,-0.08196 -0.759766,-0.166016 h -0.002 c -0.319535,-0.0905 -0.556628,-0.163784 -0.679687,-0.207031 h -0.002 c -0.144647,-0.05123 -0.432852,-0.158059 -0.845704,-0.3125 l -0.002,-0.002 C 14.320017,21.112932 14.099005,21.029797 13.945312,20.978516 12.98317,20.635499 12.135475,20.232455 11.402344,19.775391 l -0.002,-0.002 h -0.002 C 10.149712,19.003406 8.8278057,17.930338 7.4492188,16.550781 6.0693203,15.170883 4.9964018,13.848959 4.2265625,12.599609 l -0.00195,-0.002 -0.00195,-0.002 C 3.7655919,11.862572 3.3617593,11.014556 3.0175781,10.052734 2.9627044,9.8841481 2.8846784,9.6752101 2.734375,9.2734375 h -0.00195 v -0.00195 C 2.5766216,8.8576709 2.47125,8.5716612 2.4199219,8.4257812 v -0.00195 C 2.3769793,8.302534 2.303729,8.0659405 2.2128906,7.7441406 2.1286267,7.4447348 2.0748215,7.1889152 2.046875,6.9824219 l -0.00195,-0.00195 v -0.00195 C 2.0148339,6.763021 2,6.5351704 2,6.296875 2,5.5252966 2.2092513,4.7298916 2.6738281,3.8710938 3.2081314,2.9091311 3.7226948,2.4546862 3.8417969,2.4042969 l 0.00586,-0.00195 0.00781,-0.00195 C 4.0238202,2.326575 4.331299,2.2260882 4.7460938,2.1308594 5.1021009,2.0491271 5.3405925,2.0261427 5.5117188,2.0175781 Z M 23.722656,18.083984 22.007812,18.373047 c -0.0015,-0.0044 -9.16e-4,-0.0092 -0.002,-0.01367 z"
     id="path2"
     inkscape:connector-curvature="0" />
</svg>
