<?xml version="1.0" encoding="UTF-8"?>
<svg enable-background="new 0 0 376.5 165.3" version="1.1" viewBox="0 0 376.5 165.3" xml:space="preserve" xmlns="http://www.w3.org/2000/svg">
<style type="text/css">
	.st0{fill:#CAAD59;}
</style>
	<path class="st0" d="m291.9 129.1c0-0.6-0.4-0.9-1.1-0.9h-1.2v3h0.5v-1.3h0.5l0.8 1.3h0.5l-0.9-1.3c0.5-0.1 0.9-0.3 0.9-0.8m-1.8 0.4v-0.9h0.6c0.3 0 0.7 0.1 0.7 0.4 0 0.5-0.4 0.5-0.7 0.5h-0.6zm0.6-2.4c-1.5 0-2.7 1.1-2.7 2.6s1.2 2.6 2.7 2.6c1.4 0 2.7-1.1 2.7-2.6-0.1-1.5-1.3-2.6-2.7-2.6m0 4.8c-1.2 0-2.1-0.9-2.1-2.2 0-1.2 0.9-2.2 2.1-2.2s2.1 0.9 2.1 2.2-0.9 2.2-2.1 2.2"/>
	<path class="st0" d="m60.6 156.4v-16.7c0.2-3.9-1.2-6.8-4.2-9.1-6-3.5-13.4-0.5-18.5 2.8l-0.2-4.6h-2.8c-2.8 2.3-6.1 3.4-9.6 3.9v1.9c1 0.1 3.6 0.7 3.8 2.7v19.3c0 2.2-2.9 3.1-5 3.3v2.2c5.9-0.3 12.9-0.5 19.1 0v-2.2c-2.1-0.1-5-1.5-5-3.3v-18.4c1.4-2.9 5.8-5 10-3.8 1.9 0.5 3.3 3.1 3.5 5.4v16.8c0 2.2-2.9 3.1-5 3.3v2.2c5.9-0.3 12.9-0.5 19.1 0v-2.2c-2.3-0.3-5.2-1.7-5.2-3.5m21.9 1.4c-2.5 0-3-3.3-3-3.3v-21.9h7.2v-2.9h-7.2v-8.3h-2.5s-1.7 3-4.4 5.2-6 4-6 4v2h4.6v22.1c0 3.9 2.1 7.7 8.3 7.7s8.1-4.4 8.1-4.4l-2-1.4c0-0.1-0.8 1.2-3.1 1.2m27.8-1.4c-7.6-0.6-9.2-5-9.2-5l19.7-16-0.9-1.6s-1-0.1-2.4-1.2c-1.4-1-6.9-5.4-14.9-3.3-7.7 2-14.9 9.5-12.1 20.7 2.6 10.6 12.1 12.2 17.3 12.3 7.3 0.1 12.6-5.9 13.1-6.7l-1.5-2c-0.2 0-3.2 3.3-9.1 2.8m-10.9-17.8c0.8-3.9 1.7-5.9 5-7 3.4-1.1 5.6 1.2 6.4 2.4 0.7 1.2 2.2 3.8 1.3 4.5l-12.3 9.8c0.1 0-1.2-5.6-0.4-9.7m43.3-9.2c-3 0.9-5.1 3.9-6 6.7l-0.1-7.4h-2.5c-2.8 2.3-6.1 3.4-9.6 3.9v1.9c1 0.1 3.6 0.7 3.8 2.7v19.3c0 2.2-2.9 3.1-5 3.3v2.2c5.9-0.3 12.6-0.5 18.8 0v-2.2c-2.1-0.1-5-1.5-5-3.3v-15.1c0.1-1.9 1-3.8 2.3-5 1.1-1.1 3 0.2 4.2 0.9 1.9 0.7 3.9 0.2 5.3-1.6 0.9-1.1 0.9-3.2-0.5-4.9-1.6-1.4-3.6-2.1-5.7-1.4m109.5 0c-3 0.9-5.1 3.9-6 6.7l-0.1-7.4h-2.5c-2.8 2.3-6.1 3.4-9.6 3.9v1.9c1 0.1 3.6 0.7 3.8 2.7v19.3c0 2.2-2.9 3.1-5 3.3v2.2c5.9-0.3 12.6-0.5 18.8 0v-2.2c-2.1-0.1-5-1.5-5-3.3v-15.1c0-1.9 1-3.8 2.3-5 1.1-1.1 3 0.2 4.2 0.9 1.8 0.7 3.9 0.2 5.3-1.6 0.9-1.1 0.9-3.2-0.5-4.9-1.5-1.4-3.6-2.1-5.7-1.4m-62.1 27v-40.7h-2.9c-2.8 2.3-6.1 3.4-9.6 3.9v1.9c1 0.1 3.6 0.7 3.8 2.7v32.2c0 2.2-2.9 3.1-5 3.3v2.2c5.9-0.3 12.6-0.5 18.8 0v-2.2c-2.2-0.1-5.1-1.5-5.1-3.3m-8.2-40c2.1-1.2 3.2-3.5 2.6-5.8-0.9-2.1-3.2-3.5-5.3-3.9-7.4-1.6-13.4 0.8-19 7.4-4.4 5.1-3.6 12.4-3.8 18.5h-5.1v2.7h5.1v21.1c0 2.2-2.9 3.1-5 3.3v2.2c5.9-0.3 12.4-0.5 18.6 0v-2.2c-2.1-0.1-5-1.5-5-3.3v-21.1h6.5v-2.7h-6.5s-0.3-16.9 1.4-19.5c1.6-2.6 2.9-2.4 5-2.4 2.8 0.2 3.7 3.5 5.8 5.1 1 1.1 3.1 1.1 4.7 0.6m31.7 12c-9.9 0-18 7-17.9 17 0.1 9.3 8 16.9 17.9 16.9s17.9-7.6 17.9-16.9c-0.1-9.8-7.1-17-17.9-17m0 31.1c-5.4 0-8.5-6.2-8.5-14.2s3.1-14.5 8.5-14.4c5.4 0 8.4 6.5 8.5 14.4 0 8.1-2.9 14.2-8.5 14.2m74.5-1.7c-1.5 0-2.3-0.9-2.3-4.3v-16.8s-0.3-8.5-12.3-8.5c-10.4 0-13.4 6.4-13 8.8 0.2 1.2 1.5 2.1 2.9 2.2 2.8 0.1 4.5-3.5 6.1-5.9 1.5-2.4 3-2.7 4.2-2.6 1.9 0.1 4 2.3 4 4.6v5.8s-1.6 0.6-3.6 1.2c-3 0.9-6.6 1.7-7.4 2.1-0.9 0.4-6.9 2.5-6.9 9.9 0 0 0.4 7.6 9.2 7.7 5.2 0 9.1-4 9.1-4s2.4 4.3 7.1 4.1c5.9-0.2 7.6-6.2 7.6-6.2l-1.4-0.7c-0.1 0.2-1.8 2.5-3.3 2.6m-10.5-6.4c-0.1 1.2 0.9 5.9-5.2 6-4 0-4.1-3.7-4.1-5.1-0.2-6.7 9.3-7.6 9.3-7.6v6.7zm-274.8-41.7v2.2c2.1 0.1 5 1.5 5 3.3v41.3c0 2.2-2.9 3.1-5 3.3v2.2c5.9-0.3 13.2-0.5 19.4 0v-2.2c-2.1-0.1-5-1.5-5-3.3v-41.3c0-2.2 2.9-3.1 5-3.3v-2.2c-5.8 0.3-13.2 0.5-19.4 0"/>
	<path class="st0" d="m213.8 65.8c0.4 0 0.8-0.3 1-0.7 2.6-8.3 4.3-11.6 8.1-18 0.3-0.5 0.1-1.1-0.3-1.3-0.5-0.3-1.1-0.1-1.3 0.3-4 6.9-5.5 10.1-8.3 18.6-0.2 0.5 0.2 1 0.7 1.2 0-0.1 0-0.1 0.1-0.1m147.5-3.4c-0.2-0.5-0.7-0.8-1.2-0.6s-0.8 0.7-0.6 1.2c2.4 7.4 3.7 15.2 3.7 23.4 0 15.9-4.9 30.7-13.3 42.8-0.3 0.4-0.2 1 0.2 1.4 0.2 0.1 0.4 0.2 0.6 0.2 0.3 0 0.6-0.1 0.8-0.4 8.6-12.5 13.6-27.6 13.6-43.9 0-8.5-1.3-16.6-3.8-24.1m-123.2-33.7c0.2 0 0.4-0.1 0.6-0.2 13.2-11.1 30.2-17.8 48.8-17.8 11.6 0 22.5 2.6 32.3 7.2 0.5 0.2 1.1 0 1.3-0.5s0-1.1-0.5-1.3c-10-4.7-21.3-7.4-33.1-7.4-19 0-36.5 6.9-50 18.2-0.4 0.3-0.5 1-0.1 1.4 0.1 0.3 0.4 0.4 0.7 0.4"/>
	<path class="st0" d="m366.1 159.2c0-0.6-0.4-0.9-1.1-0.9h-1.2v3h0.5v-1.3h0.5l0.8 1.3h0.5l-0.9-1.3c0.5 0 0.9-0.3 0.9-0.8m-1.8 0.5v-0.9h0.6c0.3 0 0.7 0.1 0.7 0.4 0 0.5-0.4 0.5-0.7 0.5h-0.6zm0.6-2.5c-1.4 0-2.7 1.1-2.7 2.6s1.2 2.6 2.7 2.6c1.4 0 2.7-1.1 2.7-2.6-0.1-1.5-1.3-2.6-2.7-2.6m0 4.8c-1.2 0-2.1-0.9-2.1-2.2 0-1.2 0.9-2.2 2.1-2.2s2.1 0.9 2.1 2.2-1 2.2-2.1 2.2"/>
	<path class="st0" d="m351.5 52.8c-2.9 1.4-5.2 1.8-8.3 1.4-1.2-0.2-2-0.2-2.6-0.3-0.4 0-0.7-0.1-1.1-0.1 4.3-2.5 5.2-7.3 5.2-7.3s2.4 1.4 6.8 2.2c2.5 0.5 4.9 0.4 5.9 0.9-1.9 0.7-3.4 2-5.9 3.2m-21.7-15c-1.3 0.3-3.8 0.5-6.2 0.6-2.7 0.1-5.7 0.4-6.4 0.4-1.3 0-1.1-1.2 1.8-1.7s7.2-1.6 9.4-3.8 1.5-6.8 2.4-6.9c0.8-0.1-0.3 4.7 3.4 5.6-3.7 2.2-1.9 5.1-4.4 5.8m-20.2 19.7c-6.6 3.8-6.5 6.9-6.8 7.5s-2.9-1.1-2.8-2.4 0.4-3 1-5.8c0.7-3.4 1.4-5.6 1.8-5.8s3.7-1.3 5.3-2.4c1.5-1.2 2.1-3.8 2.8-3.8 0.6 0-0.6 4.6 1.8 6.5s7.9 2.6 7.8 3.1-4.3-0.7-10.9 3.1m4.6 44.9c-0.5 1.2-4.5-1.1-14.2-7.2-8.5-5.3-12.1-7.1-11.8-12.3 0.2-3.6 4.1-6.8 7.5-7.6 1.6-0.3 2.1-0.1 4 1.1 2.3 1.5 2.8 2.1 2.3 2.4-2.8 1.5-5 5.8-3.8 8.4 2.2 5.1 16.5 14 16 15.2m-23.9-10c-0.1 0.5-6.3 1.9-12 2.8s-7.8 1.6-7.7 0.6 4.1-0.7 8.4-3 5.2-5.3 6.2-5.4 0.3 0.3 1.9 2c1.7 1.8 3.4 2.5 3.2 3m-68.8-62.7c-3 0.8-4.9-0.8-5.2-1.2s-0.1-0.8 0.5-0.5c1.6 0.7 2.3 0.4 2.3 0.4s-0.3-1.3 0.2-2.8c0.2-0.6 0.7-1.2 1.2-1.5 0.4-0.3 0.7 0.3 0.4 0.5-0.2 0.3-0.5 0.8-0.6 1.5-0.2 1.4 1.3 1.7 2.1 1s1-1.7 1.2-2.3 0.6-0.3 0.7 0.1c-0.1 0.3 0.2 4-2.8 4.8m-7-9.8c-3 0.8-4.8-0.9-5.2-1.3-0.3-0.4-0.1-0.8 0.5-0.5 1.5 0.7 2.3 0.5 2.3 0.5s-0.4-1.7 0.1-2.8c0.5-1.2 2-1.9 2.2-2 0.6-0.2 0.7 0.4 0.4 0.5s-1.4 0.6-1.6 2 1.3 1.7 2.1 1 1-1.7 1.2-2.3 0.6-0.3 0.7 0.1c0.1 0.3 0.4 4-2.7 4.8m158.2 27c-1.1-0.7-2.9-1.5-6-3.1-6.2-3.2-8.8-3-11.8-3.6-3.9-0.9-2.8-1.6-8.7-3.3-5.7-1.6-7.6-1.4-7.6-1.4 1.4-4.5 4.3-2 5.8-2.3 1.3-0.3 2-1 1.9-3s1.2-3.9 1.2-3.9 1-0.3 1.2-0.5c0.2-0.1 0.2-0.4 0-0.7-0.3-0.5-0.9-1.6-1.1-2.8-0.3-1.7 0.5-3 0.2-3.6-5.1-1.6-14.9 3.1-13.9 1.8 7.8-5.3 17.8-5 15.8-6.2-2.7-1.6-2.1-2.7-5.7-5.3-1.9-1.3-4.4-1.7-7-1.4 0.5-0.9 1.8-3.2 1.3-4.4-0.6-1.4-9.1 0.6-14.9 0.8s-9.2-1.1-9.2-1.1 0.9 2.3 4.8 3.2c3.6 0.8 6.6 0.2 7.4 0.1 0.1 0 0.6 0.8 0.6 0.8s-1.3 0.5-4.6 0.5-6.1-1.1-6.1-1.1 2.1 2.5 5.7 3c3.8 0.5 6.2-0.3 6.2-0.3l0.6 0.8c-5.4 2.1-9.8-0.5-9.8-0.5s0.8 1.9 3.9 2.5c2.9 0.6 4.7 0.1 5 0-0.9 1.2-1.2 2.7-1.5 4.2-0.3 1.1-0.5 2.2-0.6 3.5-0.9 3.8-5 6.9-4.4 7.3s7.5-3.2 7.5-3.2 0 4.6-2.3 7.6-5.2 2.4-9.2 3.4c-2.2 0.6-2.8 1.1-4.2 0.9-2-0.2-4.7-0.3-7.2 0.3-3.3 0.9-7.2 3.3-9.4 3.8-1.9 0.4-8.1 1-10.7 1.8l-1.9 0.6c-1.6 0.6-2.8 1-4 1.1-0.7 0-1.6 0-2.6-0.2-1.5-0.4-3.3-0.8-5.6-0.7-2.4 0.1-3.7 0.3-7.7 1.4-4.1 1.1-8.5 2.5-10.6 2.5-3.1 0-4-0.7-6.5-1.7-1.2-0.5-4.2-0.3-6.3 0.3-1.2-0.9-2.3-1.8-2.9-2.5-1.3-1.5-1.3-4.2-3.1-6.2s-2.1-4.5-2-6.3 0.4-2.3 0-4.3-1.7-2.9-2-2.8-0.7 2-0.2 3.4c0.6 2 0.3 3.8 0.3 5.7 0 1.1 0.7 3 0.5 3s-1.6-1.1-1.9-3.1c-0.1-0.8-0.1-5.1-1.2-6.5s-1.2-4.1-1.4-5.1c-0.6-3.6-1.5-6.4-2-6.1-0.2 0.1-0.4 0.7-0.5 1.6-0.3 2 0 4.4 0.2 5.8-0.7-1.1-1.8-1.7-2.8-1-0.2 0.1-0.5 0.4-0.8 0.6 0.3-1.7 0.4-3.5 0.4-4.7 0-2.1-0.7-2.2-2-2.6-1.2-0.4-1.2-0.8-1.8-1.9-0.7-1.1-1.7-1.7-2.7-1.1s-2.8 2.5-4.2 2.5-1.9 0.4-2.7 2.3c-0.9 1.9-1.4 1.2-1.6 2.6-0.2 1 1.3 5.1 5.3 6.4 1.2 0.4 2.3 0.6 3.3 0.8-0.7 0.4-1.6 1.1-1.7 2.6-0.2 2.4 2 5.8 5.5 6.9 1.6 0.5 4.1 0.7 6.1 0.5 2.8 0.4 4.6 2.1 6.5 3.4 1.2 0.9 3.3 3.4 4.4 4.4 0.4 0.4 3.1 2.3 3.3 2.5-0.2 0.1-0.3 0.3-0.4 0.4-0.6-0.2-3.6-2.4-4.4-3-1.2-1-4.5-4.8-8.2-6.3-0.6-0.2-1.6 0.2-3.4 0.4-1.9 0.2-3.2-0.1-3.7-0.2-0.6-0.1-1 0.6-3.8 1.6s-4.9 2.5-5.6 3-0.3 0.9 0.2 1 5.6 1.2 7.9-0.1 4.4-2.1 6.2-2.1 3.6 0.7 5.7 2.7 2.5 1.6 3.7 1.9 3.4 1.7 5 3 2 1.6 4.1 2.7 13.8 9.2 14.5 9.5 1.5-0.9 1.2-1.2-1.1-0.8-1.3-1.1-0.3-1.3-0.5-1.6-1.8-1.1-3.7-2.3c-1.4-0.8-2.8-1.8-4.1-2.7 3.7-0.4 9.3-0.3 17.2-0.1 5.2 0.2 9.7-1 13.3-1 4 0 7.1 1.2 11.2 1.2 7.5 0 9.1-0.1 9.1-0.1s-2.2 8.3-2.2 14.4c0 5-2.4 5.2-7.6 8.5-3.7 2.4-5.1 5.4-5.1 5.4-0.1 0-9.8 0.4-17.6 4.3-7.6 3.8-9.1 4.1-9.6 4.3-0.6 0.2-0.9 0.1-0.9 0.1-0.1-0.1-7.9-3.4-14-4.3-5.3-0.7-8.6 0.3-9.6 0.3-5.6 0-11.1 0.2-11.1 0.2l3.6-2.7c1-0.6 2.7-1.8 2.9-2.8 0.2-1.5-8.2-4.1-13.2-6.9-5.1-2.8-7.4-5.7-7.4-5.7s-0.4 2.4 2.6 5.2c2.7 2.5 5.5 3.4 6.3 3.8v0.1 0.9c-0.1 0-1.4-0.2-4.1-1.8-2.8-1.7-4.7-4-4.7-4s0.6 3.3 3.4 5.5c3.1 2.4 5.5 2.8 5.5 2.8l0.1 0.5v0.5c-5.7-1-8.2-5.4-8.2-5.4s-0.3 1.9 2.1 4.1c1.7 1.6 3.9 2.9 6.2 3.7l0.1 1.7c-1.4-0.3-2.7-0.7-3.2-1.5-0.8-1.1-2.1-2.4-3.2-2.6-2.6-0.3-4.1 1.7-6.1 3.4-2 1.6-3.6 0.8-6.7 1.9-3 1.1-4.6 4.6-4.3 5.4s-0.2 0.9 4.3-0.2 4.7-1.2 9.1-0.6 7.2-0.6 10.2-0.7c4.8-0.1 5.1 0.8 13.8 2.7s22.9 5.3 23.1 5.4 3.2 1.6 8.1 1.2c5.1-0.4 7.9 0.1 14.2-0.7 13.2-1.8 16.6-3.8 16.6-3.8s4.7 3.2 11.1 6.8c10.2 5.8 17.4 8.9 17.4 8.9s2.5 10.3 5.7 15.2c1.6 2.5 4.1 4.6 4.4 5 2.4 2.8 4.6 5.3 6.7 7.9-0.5 0-0.9 0.1-1.4 0.1-5.8 0.2-9.2-1.1-9.2-1.1s0.9 2.3 4.8 3.2c3.6 0.8 6.6 0.2 7.4 0.1 0.1 0 0.6 0.8 0.6 0.8s-1.3 0.5-4.6 0.5-6.1-1.1-6.1-1.1 2.1 2.5 5.7 3c3.8 0.5 6.2-0.3 6.2-0.3l0.5 0.6c0 0.1 0.1 0.1 0.1 0.2-5.4 2-9.8-0.5-9.8-0.5s0.7 1.8 3.9 2.5c2.5 0.6 4.4 0.7 6.5 0.1 0.1 1.1-0.4 1.7-0.8 2.7-0.6 1.3-1.6 3.4-1.1 4.4 1.1 2.4 4.7 2 7.2 2.8 2.4 0.9 2.6 2.7 5.1 4.7s6.4 1.6 6.8 0.9c0.5-0.6 0.9-0.3-2.4-3.6-3.3-3.2-3.5-3.4-5.3-7.5-1.7-3.8-1.8-2.9-4.7-7.2 0.7-0.7 1-1.2 1-1.2s2.1-3.3 1.5-4.7c-0.3-0.8-2.7-0.6-5.7-0.2 0 0-3.2-10.4-5.5-17.3s-5.8-14.1-6-14.3c-0.1-0.3-0.3-1.1-0.4-1.5s-0.6-1.8-1.5-2.9c-0.9-1-3.8-3.2-4.1-3.5s-2-2.7-6.1-7c-4-4.3-11.3-10.5-11.3-10.5 0.3-1.7 0.8-2.1 2.4-3.9s3.7-3.6 5-4.5c5.4-3.5 10.3-8.7 12.3-11-0.5-0.2-0.9-0.4-1-0.7l-0.1-0.2v-0.2c0-0.1 0.1-3 3.7-3.9 0.5-0.1 0.9-0.2 1.3-0.3 0 0 0.2 0 0.5-0.1-0.8-0.5-1-1.1-0.9-1 0.2 0.1 2 0.4 2.8 0.5h0.2c1.2 0.1 2.5 0.3 1.4 0.7-2 0.6-2.1 0.5-5 1.3s-3 3-3 3c0.2 0.3 2.4 0.8 5.9 0.6s7.3-2.1 10-2.5c4.6-0.7 12.2 1.3 18.3-1.1 3.9-1.6 4.9-3.3 6.3-4.2 1.4-0.8 3.2-1.9 3.7-2.6 0.8-0.2 1-2-0.3-2.8"/>
	<path class="st0" d="m201.1 33.5c1.9 0 2.5-0.5 2.5-0.5s-0.9-1.2-1-2.9c0-0.8 0.2-1.6 0.5-2.1s0.8 0 0.6 0.4c-0.1 0.4-0.2 1 0 1.7 0.4 1.5 2 1.2 2.5 0.1s0.3-2.1 0.2-2.9c-0.1-0.7 0.5-0.6 0.7-0.2s2 4-0.7 6.1-5.3 1.2-5.8 1c-0.2-0.2-0.2-0.7 0.5-0.7m-2.7 2.2c0.2 0.8 1.2 1.6 3 2.2 0.5 0.2 0.2 1.4 1.6 1.5 5 0.6 12.5-1.1 13.9-2.2 0.7-0.5 0.2-1.8-1.3-2.9-1.7-1.2-3.7-2.8-5-6-1.3-3.3-2.7-3.7-3.8-4.1-0.8-0.3-2.1-0.2-3.8 1.2s-3.1 1.3-4 3.1 0.2 2.9 0 4c-0.2 1.2-0.9 1.9-0.6 3.2"/>
	<path class="st0" d="m330.1 149c-6.3 4.3-13.3 7.7-20.8 9.9h-0.1c-0.5 0.2-0.8 0.7-0.6 1.2s0.7 0.8 1.2 0.6c7.7-2.3 14.8-5.8 21.3-10.2 0.4-0.3 0.6-0.9 0.3-1.4-0.3-0.3-0.9-0.4-1.3-0.1"/>
</svg>
