<svg xmlns="http://www.w3.org/2000/svg" width="216" height="54" viewBox="0 0 216 54">
    <g fill="none" fill-rule="evenodd">
        <g stroke="#191919">
            <path d="M.5 4.5h215v45H.5z"/>
            <path d="M4.5.5h207v53H4.5z"/>
        </g>
        <path fill="#191919" d="M27.292 28.507v6.196H25V19h4.541c3.756 0 5.539 1.952 5.539 4.753s-1.783 4.754-5.539 4.754h-2.25zm0-7.406v5.305h2.25c2.61 0 3.246-1.486 3.246-2.653s-.637-2.652-3.247-2.652h-2.25zm21.475 13.602H46.56v-1.825h-.043C45.668 34.321 44.12 35 42.527 35c-3.967 0-6.238-3.034-6.238-6.133 0-2.864 2.016-6.238 6.239-6.238 1.634 0 3.14.679 3.99 1.973h.042v-1.655h2.207v11.756zm-2.165-5.857c0-2.504-1.804-4.201-4.074-4.201-2.716 0-4.032 2.355-4.032 4.201 0 2.122 1.676 4.138 4.01 4.138 2.314 0 4.096-1.889 4.096-4.138zM53.817 19v15.703H51.61V19h2.207zm14.196 10.78h-9.74c.552 2.27 2.377 3.204 3.862 3.204 1.634 0 2.823-.955 3.353-1.973h2.207C66.57 34.045 63.875 35 62.05 35c-3.331 0-5.984-2.865-5.984-6.196 0-3.523 2.716-6.175 6.027-6.175 3.183 0 5.963 2.589 5.984 6.026 0 .382-.043.976-.064 1.125zm-9.74-1.698h7.597c-.106-1.719-1.676-3.437-3.798-3.437s-3.693 1.718-3.799 3.437zm14.472-3.12v9.74h-2.207v-9.74h-1.591v-2.015h1.591V19h2.207v3.947h1.931v2.016h-1.93zm5.878 0v9.74h-2.207v-9.74h-1.591v-2.015h1.591V19h2.207v3.947h1.931v2.016h-1.93zm14.77 4.818h-9.74c.551 2.27 2.376 3.204 3.862 3.204 1.634 0 2.822-.955 3.352-1.973h2.207C91.95 34.045 89.254 35 87.43 35c-3.332 0-5.984-2.865-5.984-6.196 0-3.523 2.716-6.175 6.026-6.175 3.183 0 5.963 2.589 5.984 6.026 0 .382-.042.976-.063 1.125zm-9.74-1.698h7.596c-.106-1.719-1.676-3.437-3.798-3.437s-3.692 1.718-3.798 3.437zm29.623 6.62h-2.037v-1.675h-.043c-.933 1.294-2.44 1.973-4.159 1.973-3.904 0-6.111-3.034-6.111-6.133 0-2.864 1.952-6.238 6.111-6.238 1.634 0 3.14.679 3.99 1.76h.042V19h2.207v15.703zm-2.037-5.856c0-2.504-1.804-4.201-4.075-4.201-2.716 0-4.031 2.355-4.031 4.201 0 2.122 1.676 4.138 4.01 4.138 2.313 0 4.096-1.889 4.096-4.138zm16.233.934h-9.74c.552 2.27 2.377 3.204 3.862 3.204 1.634 0 2.822-.955 3.353-1.973h2.207c-1.125 3.034-3.82 3.989-5.645 3.989-3.331 0-5.984-2.865-5.984-6.196 0-3.523 2.716-6.175 6.027-6.175 3.183 0 5.963 2.589 5.984 6.026 0 .382-.043.976-.064 1.125zm-9.74-1.698h7.597c-.106-1.719-1.676-3.437-3.798-3.437-2.123 0-3.693 1.718-3.799 3.437zm20.138 6.62h-2.292V19h7.937v2.1h-5.645v4.712h5.645v2.1h-5.645v6.79zM148.056 19v15.703h-2.207V19h2.207zm14.196 10.78h-9.74c.552 2.27 2.377 3.204 3.862 3.204 1.634 0 2.822-.955 3.353-1.973h2.207c-1.125 3.034-3.82 3.989-5.645 3.989-3.331 0-5.984-2.865-5.984-6.196 0-3.523 2.716-6.175 6.027-6.175 3.183 0 5.962 2.589 5.984 6.026 0 .382-.043.976-.064 1.125zm-9.74-1.698h7.597c-.106-1.719-1.677-3.437-3.799-3.437s-3.692 1.718-3.798 3.437zm11.99-5.135h2.206v6.366c0 2.907 1.295 3.671 2.929 3.671 1.825 0 3.077-1.167 3.077-3.735v-6.302h2.206v11.756h-2.015V33.43h-.043c-.594 1.018-1.973 1.57-3.459 1.57-1.337 0-2.504-.424-3.353-1.167-.976-.849-1.549-2.165-1.549-4.52v-6.366zm15.469 11.756h-2.207V22.947h2.058v1.061h.043c.933-1.316 2.44-1.358 2.992-1.38V24.9c-.34 0-1.061.149-1.592.425-.7.382-1.294 1.273-1.294 2.95v6.429zm11.416-8.637h-2.207c-.127-.955-.7-1.421-1.506-1.421-.807 0-1.38.509-1.38 1.252 0 .976.85 1.23 1.825 1.527.913.276 3.544 1.019 3.544 3.82 0 2.08-1.443 3.756-3.947 3.756-1.485 0-4.159-.934-4.159-4.16h2.207c.085 1.316.764 2.144 1.995 2.144.997 0 1.697-.615 1.697-1.613 0-1.04-.912-1.4-2.058-1.803-1.273-.467-3.31-1.04-3.31-3.544 0-1.74 1.464-3.395 3.692-3.395 1.337 0 3.544.827 3.607 3.437z"/>
    </g>
</svg>
