<?xml version="1.0" encoding="utf-8"?><svg width="78" height="72" viewBox="0 0 78 72" xmlns="http://www.w3.org/2000/svg" xmlns:xlink="http://www.w3.org/1999/xlink"><svg width="48" height="24" viewBox="0 0 48 24" id="icon-24-toggle-off" xmlns="http://www.w3.org/2000/svg"><g fill="none" fill-rule="evenodd"><rect width="48" height="24" fill="#A5A9AF" rx="12"/><circle cx="12" cy="12" r="10" fill="#F5F7F9"/></g></svg><svg width="48" height="24" viewBox="0 0 48 24" id="icon-24-toggle-on" y="24" xmlns="http://www.w3.org/2000/svg"><g fill="none" fill-rule="evenodd"><rect width="48" height="24" fill="#3BA941" rx="12"/><circle cx="36" cy="12" r="10" fill="#F5F7F9"/></g></svg><svg width="30" height="24" viewBox="0 0 30 24" id="icon-cart-black" x="48" xmlns="http://www.w3.org/2000/svg"><g fill="none" fill-rule="evenodd" stroke="#191919" stroke-linecap="round" stroke-width="2" transform="matrix(-1 0 0 1 27 2)"><path d="M0 3.333h21.667l-3.334 11H4.167zm21.667 0L22.5 0H25M7.083 6.667v4.166m4.167-4.166v4.166m4.167-4.166v4.166"/><circle cx="6.667" cy="18.333" r="1.667"/><circle cx="15.833" cy="18.333" r="1.667"/></g></svg><svg width="30" height="24" viewBox="0 0 30 24" id="icon-cart-black-full" x="48" y="24" xmlns="http://www.w3.org/2000/svg"><g fill="none" fill-rule="evenodd"><g stroke="#191919" stroke-linecap="round" stroke-width="2" transform="matrix(-1 0 0 1 27 2)"><path d="M0 3.333h21.667l-3.334 11H4.167zm21.667 0L22.5 0H25M7.083 6.667v4.166m4.167-4.166v4.166m4.167-4.166v4.166"/><circle cx="6.667" cy="18.333" r="1.667"/><circle cx="15.833" cy="18.333" r="1.667"/></g><circle cx="25" cy="5" r="4.5" fill="#D2652A" stroke="#FFF"/></g></svg><svg width="30" height="24" viewBox="0 0 30 24" id="icon-cart-white" y="48" xmlns="http://www.w3.org/2000/svg"><g fill="none" fill-rule="evenodd" stroke="#FFF" stroke-linecap="round" stroke-width="2" transform="matrix(-1 0 0 1 27 2)"><path d="M0 3.333h21.667l-3.334 11H4.167zm21.667 0L22.5 0H25M7.083 6.667v4.166m4.167-4.166v4.166m4.167-4.166v4.166"/><circle cx="6.667" cy="18.333" r="1.667"/><circle cx="15.833" cy="18.333" r="1.667"/></g></svg></svg>