<svg xmlns="http://www.w3.org/2000/svg" width="24" height="24" viewBox="0 0 24 24">
    <path fill="#D2652A" fill-rule="evenodd" d="M20.448 20.453h-3.555v-5.57c0-1.329-.027-3.037-1.851-3.037-1.852 0-2.136 1.445-2.136 2.94v5.667H9.351V9h3.414v1.56h.045c.477-.9 1.638-1.85 3.37-1.85 3.6 0 4.268 2.37 4.268 5.456v6.287zM5.337 7.433a2.063 2.063 0 1 1-.001-4.127 2.063 2.063 0 0 1 .001 4.127zm1.782 13.02H3.555V9h3.564v11.453zM22.224 0H1.77C.792 0 0 .774 0 1.73v20.54C0 23.226.792 24 1.77 24h20.453C23.2 24 24 23.226 24 22.27V1.73C24 .774 23.2 0 22.223 0h.001z"/>
</svg>
