<svg xmlns="http://www.w3.org/2000/svg" width="80" height="80" viewBox="0 0 80 80">
    <g fill="none" fill-rule="evenodd" stroke="#FFF" stroke-linecap="round" stroke-linejoin="round" stroke-width="2">
        <path d="M52.9 12.154l.53 8.608 8.616.375-3.845 7.72 7.275 4.632-7.19 4.763 3.983 7.649-8.61.53-.374 8.616-7.718-3.847-4.634 7.275-4.762-7.19-7.649 3.984-.53-8.608-8.616-.376 3.845-7.72-7.274-4.631 7.19-4.763-3.983-7.65 8.607-.529.376-8.616 7.72 3.845 4.633-7.273 4.762 7.19z"/>
        <path d="M52.896 33.712c0 6.729-5.456 12.183-12.185 12.183-6.728 0-12.184-5.454-12.184-12.183 0-6.73 5.456-12.185 12.184-12.185 6.73 0 12.185 5.454 12.185 12.185zM36.67 52.037l-6.998 19.225-3.411-5.636-6.262 2.115 7.677-21.095M44.92 52.494l6.83 18.768 3.412-5.636 6.262 2.115-7.764-21.31"/>
    </g>
</svg>
