<svg xmlns="http://www.w3.org/2000/svg" width="24" height="24" viewBox="0 0 24 24">
    <path fill="none" fill-rule="evenodd" stroke="#D2652A" stroke-linecap="round" stroke-width="2" d="M12.25 1C7.7 1 4 4.633 4 9.1c0 1.165.243 2.277.721 3.306 2.063 4.43 6.018 9.11 7.181 10.438a.463.463 0 0 0 .696 0c1.163-1.328 5.117-6.007 7.18-10.438A7.775 7.775 0 0 0 20.5 9.1c0-4.467-3.701-8.1-8.25-8.1zm0 12.307c-2.363 0-4.286-1.888-4.286-4.208 0-2.32 1.923-4.207 4.286-4.207 2.362 0 4.285 1.887 4.285 4.207s-1.922 4.208-4.285 4.208z"/>
</svg>
