<svg xmlns="http://www.w3.org/2000/svg" width="24" height="24" viewBox="0 0 24 24">
    <path fill="#D2652A" fill-rule="evenodd" d="M23.954 5.143c-.885.36-1.83.604-2.826.715 1.015-.563 1.796-1.453 2.163-2.512-.95.512-2.004.885-3.126 1.093C19.27 3.553 17.992 3 16.574 3c-2.717 0-4.92 2.034-4.92 4.537 0 .36.045.706.127 1.038-4.09-.18-7.716-1.992-10.143-4.731a4.198 4.198 0 0 0-.665 2.284c0 1.577.87 2.964 2.189 3.779a5.231 5.231 0 0 1-2.23-.567v.055c0 2.2 1.694 4.037 3.947 4.455a5.396 5.396 0 0 1-2.21.077c.629 1.804 2.443 3.117 4.601 3.154-1.678 1.217-3.807 1.942-6.1 1.942-.39 0-.78-.02-1.17-.062A14.853 14.853 0 0 0 7.555 21c9.055 0 14.002-6.917 14.002-12.907 0-.193 0-.387-.015-.58A9.552 9.552 0 0 0 24 5.16l-.046-.018z"/>
</svg>
