<svg xmlns="http://www.w3.org/2000/svg" width="38" height="24" viewBox="0 0 38 24">
    <path fill="#FFF" fill-rule="nonzero" d="M18.67.333C24.93.334 30 5.41 30 11.668c0 6.26-5.075 11.333-11.333 11.332-1.46 0-2.908-.281-4.261-.83-5.796-2.35-8.59-8.956-6.24-14.753l-.055-.164.142-.047A11.33 11.33 0 0 1 18.67.333zm-6.35 19.793c4.67 3.505 11.298 2.56 14.802-2.113l-.79-.79a.378.378 0 0 1-.11-.267v-1.422l-1.474-2.943a.377.377 0 0 1-.037-.169v-1.309l-.825-.55-1.349.337a.373.373 0 0 1-.24-.02l-2.644-1.133a.378.378 0 0 1-.226-.293l-.378-2.645a.378.378 0 0 1 .107-.32l1.133-1.134c.07-.07.167-.11.267-.11h2.266c.126 0 .243.063.312.168l.665.997 2.012.335 1.858-.62a10.657 10.657 0 0 0-1.136-1.517l-.86.573a.375.375 0 0 1-.283.056l-1.889-.378a.278.278 0 0 1-.045-.012l-1.029-.343-1.404.351a.37.37 0 0 1-.21-.008l-1.134-.378a.379.379 0 0 1-.219-.527l.756-1.51a.378.378 0 0 1 .34-.21h1.421l.69-.344a10.544 10.544 0 0 0-7.263-.27l.384.256 2.186.364a.378.378 0 0 1 .296.491l-.378 1.134a.374.374 0 0 1-.238.238l-1 .334-1.062 1.77a.378.378 0 0 1-.13.129l-1.888 1.133a.38.38 0 0 1-.14.05l-2.32.332v.649l.644.645c.07.07.11.167.11.267v.6l.491-.49a.378.378 0 0 1 .605.098l.649 1.303h2.41c.133 0 .256.07.324.183L17.37 12.8h1.297a.376.376 0 0 1 .37.452l-.377 1.889a.378.378 0 0 1-.103.193l-1.4 1.4v.977c0 .119-.056.231-.152.302l-1.36 1.02v1.7a.378.378 0 0 1-.494.358l-1.134-.377a.378.378 0 0 1-.231-.218l-.755-1.89a.378.378 0 0 1-.027-.14v-3.468l-1.587-.317a.378.378 0 0 1-.264-.201l-.755-1.511a.378.378 0 0 1-.04-.169v-1.133c0-.1.04-.197.11-.267l.43-.43-1.883-1.256a.378.378 0 0 1-.148-.195l-.314-.941a10.576 10.576 0 0 0 3.767 11.548zM19 24c-6.627 0-12-5.373-12-12S12.373 0 19 0s12 5.373 12 12-5.373 12-12 12zm0-2.057c5.491 0 9.943-4.452 9.943-9.943S24.49 2.057 19 2.057 9.057 6.51 9.057 12 13.51 21.943 19 21.943z"/>
</svg>
