<svg xmlns="http://www.w3.org/2000/svg" width="32" height="32" viewBox="0 0 32 32">
    <path fill="none" fill-rule="evenodd" stroke="#D2652A" stroke-linecap="round" stroke-linejoin="round" stroke-width="2" d="M31 8.04c-1.109.501-4.766 1.068-3.49.287 1.276-.78 2.318-2.394 2.781-3.865a12.298 12.298 0 0 1-3.927 1.532A6.102 6.102 0 0 0 21.854 4c-3.412 0-6.18 2.827-6.18 6.312 0 .494.055.977.16 1.439C10.7 11.487 6.147 8.973 3.1 5.154a6.37 6.37 0 0 0-.836 3.173 6.347 6.347 0 0 0 2.748 5.254 6.08 6.08 0 0 1-2.799-.792v.079c0 3.058 2.131 5.61 4.956 6.19a6.134 6.134 0 0 1-1.628.222 5.81 5.81 0 0 1-1.163-.117c.787 2.51 3.068 4.335 5.771 4.385a12.232 12.232 0 0 1-7.674 2.698c-.499 0-.99-.03-1.474-.087A17.2 17.2 0 0 0 10.472 29c11.367 0 17.458-8.539 17.458-16.882l-.02-.817A12.49 12.49 0 0 0 31 8.039z"/>
</svg>
