<svg xmlns="http://www.w3.org/2000/svg" width="24" height="24" viewBox="0 0 24 24">
    <path fill="none" fill-rule="evenodd" stroke="#D2652A" stroke-linecap="round" stroke-width="2" d="M22.952 18.046c-.062-.188-.458-.464-1.188-.828-.197-.115-.479-.27-.843-.469-.364-.198-.695-.38-.992-.547a33.143 33.143 0 0 1-.836-.484 20.52 20.52 0 0 0-.39-.274 4.391 4.391 0 0 0-.556-.336c-.15-.072-.3-.109-.445-.109-.208 0-.468.149-.78.445-.313.297-.6.62-.86.97a9.42 9.42 0 0 1-.828.968c-.292.297-.531.445-.719.445-.094 0-.21-.026-.351-.078a3.644 3.644 0 0 1-.32-.132 5.838 5.838 0 0 1-.375-.22 9.647 9.647 0 0 0-.298-.179c-1.427-.792-2.65-1.698-3.671-2.719-1.02-1.02-1.927-2.244-2.719-3.672a9.05 9.05 0 0 0-.18-.296 5.634 5.634 0 0 1-.218-.376 3.386 3.386 0 0 1-.133-.32 1.057 1.057 0 0 1-.078-.351c0-.188.148-.427.445-.72a9.41 9.41 0 0 1 .969-.827c.349-.26.672-.547.968-.86.297-.312.446-.572.446-.78a1.02 1.02 0 0 0-.11-.446 4.343 4.343 0 0 0-.336-.554 20.51 20.51 0 0 0-.273-.391 34.32 34.32 0 0 1-.484-.836 78.883 78.883 0 0 1-.547-.992 37.154 37.154 0 0 0-.469-.844c-.364-.729-.64-1.125-.828-1.187A.875.875 0 0 0 5.625 1c-.281 0-.649.052-1.102.156-.453.104-.81.214-1.07.328-.52.22-1.073.854-1.656 1.906C1.266 4.37 1 5.338 1 6.296c0 .281.018.555.055.82.036.266.101.566.195.9.094.333.17.58.227.741.057.162.163.45.32.867.156.417.25.672.28.766.365 1.02.798 1.932 1.298 2.734.822 1.334 1.945 2.711 3.367 4.133 1.421 1.422 2.799 2.545 4.132 3.367.802.5 1.714.933 2.735 1.297.094.031.349.125.765.282.417.156.706.263.867.32.162.057.41.133.742.227.334.094.633.159.899.195.266.036.54.055.82.055.958 0 1.927-.266 2.906-.797 1.052-.583 1.687-1.135 1.906-1.656.115-.26.224-.617.328-1.07.105-.454.157-.82.157-1.102a.871.871 0 0 0-.047-.33z"/>
</svg>
