<svg xmlns="http://www.w3.org/2000/svg" width="80" height="80" viewBox="0 0 80 80">
    <g fill="none" fill-rule="evenodd" stroke="#FFF" stroke-linecap="round" stroke-linejoin="round" stroke-width="2">
        <path d="M13.841 28.242c2.07-10.158-8.355-12.633-8.355-12.633s-1.804 10.562 8.355 12.633zM16.654 21.785S3.007 45.18 24.237 64.795"/>
        <path d="M12.52 35.128c.737-10.34 11.444-9.92 11.444-9.92s-1.103 10.657-11.444 9.92zM12.105 40.242C11.259 29.91.557 30.443.557 30.443s1.216 10.646 11.548 9.8zM13.857 49.824c-1.682-10.229 8.83-12.305 8.83-12.305s1.4 10.623-8.83 12.305zM21.68 62.692c-5.398-8.851 3.566-14.72 3.566-14.72s5.285 9.323-3.566 14.72z"/>
        <path d="M15.319 53.386c-2.743-9.997-13.161-7.494-13.161-7.494s3.163 10.237 13.16 7.494zM22.284 63.322c-6.521-8.06-15.062-1.59-15.062-1.59s7.002 8.11 15.062 1.59z"/>
        <g>
            <path d="M65.996 28.242c-2.07-10.158 8.355-12.633 8.355-12.633s1.803 10.562-8.355 12.633zM63.184 21.785s13.647 23.395-7.583 43.01"/>
            <path d="M67.318 35.128c-.737-10.34-11.444-9.92-11.444-9.92s1.103 10.657 11.444 9.92zM67.732 40.242c.847-10.332 11.549-9.799 11.549-9.799s-1.216 10.646-11.55 9.8zM65.98 49.824c1.683-10.229-8.83-12.305-8.83-12.305s-1.4 10.623 8.83 12.305zM58.158 62.692c5.398-8.851-3.567-14.72-3.567-14.72s-5.284 9.323 3.567 14.72z"/>
            <path d="M64.519 53.386c2.743-9.997 13.161-7.494 13.161-7.494s-3.163 10.237-13.161 7.494zM57.554 63.322c6.521-8.06 15.062-1.59 15.062-1.59s-7.002 8.11-15.062 1.59z"/>
        </g>
        <path d="M45.694 48l-5.23-2.556L35.233 48l.83-5.734L32 38.112l5.744-.988L40.464 32l2.719 5.124 5.744.988-4.063 4.154z"/>
    </g>
</svg>
