<svg xmlns="http://www.w3.org/2000/svg" width="24" height="24" viewBox="0 0 24 24">
    <path fill="#D2652A" fill-rule="evenodd" d="M17.759 13.79c.229.11.41.198.515.37.153.254.093.954-.138 1.594-.293.814-1.579 1.48-2.164 1.532l-.086.008a4.614 4.614 0 0 1-.48.029c-.457 0-1.26-.079-2.954-.756-1.76-.703-3.496-2.21-4.889-4.244-.024-.035-.04-.06-.05-.072-.363-.479-1.21-1.74-1.21-3.074 0-1.483.71-2.326 1.13-2.59.395-.25 1.29-.368 1.455-.375.135-.006.102-.006.135-.006.346 0 .596.21.785.663.078.187.817 1.97.859 2.053.05.099.206.405.023.768l-.039.079c-.075.151-.14.282-.284.45l-.141.169c-.1.12-.204.244-.299.338a.564.564 0 0 0-.102.122s.001.021.029.069c.195.33 1.62 2.29 3.497 3.106.082.036.353.147.368.147.018 0 .047-.029.068-.053.164-.185.693-.803.868-1.063.154-.232.353-.35.589-.35.145 0 .28.045.407.09.311.113 2.061.974 2.108.997zM12.213 0C18.713 0 24 5.248 24 11.7c0 6.45-5.288 11.698-11.787 11.698-1.95 0-3.875-.481-5.58-1.392l-6.227 1.98a.31.31 0 0 1-.317-.08.312.312 0 0 1-.072-.318l2.024-5.972a11.613 11.613 0 0 1-1.616-5.917C.425 5.25 5.713 0 12.213 0zm0 20.96c5.148 0 9.336-4.154 9.336-9.26 0-5.108-4.188-9.263-9.336-9.263-5.149 0-9.337 4.155-9.337 9.262 0 1.963.615 3.84 1.777 5.43.06.082.077.188.044.284L3.69 20.384l3.12-.992a.312.312 0 0 1 .265.037 9.339 9.339 0 0 0 5.138 1.532z"/>
</svg>
