<?xml version="1.0" encoding="utf-8"?><svg width="256" height="256" viewBox="0 0 256 256" xmlns="http://www.w3.org/2000/svg" xmlns:xlink="http://www.w3.org/1999/xlink"><svg width="16" height="16" viewBox="0 0 16 16" id="icon-16-arrow-down-primary" x="48" y="240" xmlns="http://www.w3.org/2000/svg"><path d="M12 10l-4 4-4-4m4 3V2" fill="none" fill-rule="evenodd" stroke="#D2652A" stroke-linecap="round" stroke-width="2"/></svg><svg width="16" height="16" viewBox="0 0 16 16" id="icon-16-arrow-left-primary" x="136" y="216" xmlns="http://www.w3.org/2000/svg"><path d="M6 12L2 8l4-4M3 8h11" fill="none" fill-rule="evenodd" stroke="#D2652A" stroke-linecap="round" stroke-width="2"/></svg><svg width="16" height="16" viewBox="0 0 16 16" id="icon-16-arrow-right-primary" x="32" y="240" xmlns="http://www.w3.org/2000/svg"><path d="M10 4l4 4-4 4m3-4H2" fill="none" fill-rule="evenodd" stroke="#D2652A" stroke-linecap="round" stroke-width="2"/></svg><svg width="16" height="16" viewBox="0 0 16 16" id="icon-16-arrow-up-primary" x="16" y="240" xmlns="http://www.w3.org/2000/svg"><path d="M4 6l4-4 4 4M8 3v11" fill="none" fill-rule="evenodd" stroke="#D2652A" stroke-linecap="round" stroke-width="2"/></svg><svg width="24" height="24" viewBox="0 0 24 24" id="icon-16-arrow-up-primary_2" x="62" y="160" xmlns="http://www.w3.org/2000/svg"><path d="M5.5 9l7-7 7 7m-7-5.25V23" fill="none" fill-rule="evenodd" stroke="#D2652A" stroke-linecap="round" stroke-width="2"/></svg><svg width="16" height="16" viewBox="0 0 16 16" id="icon-16-bullet-primary" y="240" xmlns="http://www.w3.org/2000/svg"><circle cx="8" cy="8" r="4" fill="#D2652A" fill-rule="evenodd"/></svg><svg width="16" height="16" viewBox="0 0 16 16" id="icon-16-burger-primary" x="240" y="224" xmlns="http://www.w3.org/2000/svg"><path d="M1 3.5h14m-14 5h14m-14 5h14" fill="none" fill-rule="evenodd" stroke="#D2652A" stroke-linecap="round" stroke-width="2"/></svg><svg width="16" height="16" viewBox="0 0 16 16" id="icon-16-calendar-primary" x="240" y="208" xmlns="http://www.w3.org/2000/svg"><g fill="none" fill-rule="evenodd"><g transform="translate(1)"><path stroke="#D2652A" stroke-linecap="round" stroke-linejoin="round" stroke-width="2" d="M0 3h14v12H0z"/><rect width="2" height="4" x="3" fill="#D2652A" rx="1"/><rect width="2" height="4" x="9" fill="#D2652A" rx="1"/></g><path fill="#D2652A" d="M4 6h2v2H4zm0 4h2v2H4zm3-4h2v2H7zm0 4h2v2H7zm3-4h2v2h-2z"/></g></svg><svg width="16" height="16" viewBox="0 0 16 16" id="icon-16-check-primary" x="240" y="192" xmlns="http://www.w3.org/2000/svg"><path fill="none" stroke="#D2652A" stroke-linecap="round" stroke-width="2" d="M14 4l-7.85 8L2 7.772"/></svg><svg width="16" height="16" viewBox="0 0 16 16" id="icon-16-chevron-down-primary" x="240" y="176" xmlns="http://www.w3.org/2000/svg"><path fill="none" stroke="#D2652A" stroke-linecap="round" stroke-width="2" d="M15 5l-7 7-7-7"/></svg><svg width="16" height="16" viewBox="0 0 16 16" id="icon-16-chevron-left-primary" x="240" y="160" xmlns="http://www.w3.org/2000/svg"><path fill="none" stroke="#D2652A" stroke-linecap="round" stroke-width="2" d="M11 15L4 8l7-7"/></svg><svg width="16" height="16" viewBox="0 0 16 16" id="icon-16-chevron-right-primary" x="240" y="144" xmlns="http://www.w3.org/2000/svg"><path fill="none" stroke="#D2652A" stroke-linecap="round" stroke-width="2" d="M5 1l7 7-7 7"/></svg><svg width="16" height="16" viewBox="0 0 16 16" id="icon-16-chevron-up-primary" x="240" y="128" xmlns="http://www.w3.org/2000/svg"><path fill="none" stroke="#D2652A" stroke-linecap="round" stroke-width="2" d="M1 12l7-7 7 7"/></svg><svg width="16" height="16" viewBox="0 0 16 16" id="icon-16-close-primary" x="240" y="112" xmlns="http://www.w3.org/2000/svg"><path d="M14.6 1.4L1.4 14.6m13.2 0L1.4 1.4" fill="none" fill-rule="evenodd" stroke="#D2652A" stroke-linecap="round" stroke-width="2"/></svg><svg width="16" height="16" viewBox="0 0 16 16" id="icon-16-delete-primary" x="120" y="216" xmlns="http://www.w3.org/2000/svg"><g fill="none" fill-rule="evenodd" stroke="#D2652A" stroke-linecap="round"><path stroke-width="2" d="M3 3.42h10.159"/><path stroke-linejoin="round" stroke-width="2" d="M3.847 4.148l.634 11.019h7.196l.635-11.019"/><path d="M7 7.476v4m2-4v4"/><path stroke-width="2" d="M5.963 2.693C5.963 1.758 6.721 1 7.656 1h.847c.935 0 1.693.758 1.693 1.693"/></g></svg><svg width="16" height="16" viewBox="0 0 16 16" id="icon-16-error-error" x="240" y="80" xmlns="http://www.w3.org/2000/svg"><path d="M11.771 4.229L4.23 11.77m7.541.001L4.23 4.23" fill="none" fill-rule="evenodd" stroke="#D91900" stroke-linecap="round" stroke-width="2"/></svg><svg width="16" height="16" viewBox="0 0 16 16" id="icon-16-info-primary" x="240" y="64" xmlns="http://www.w3.org/2000/svg"><g fill="none" fill-rule="evenodd" stroke="#D2652A" stroke-linecap="round" stroke-width="2" transform="translate(1 1)"><path d="M7 7v3"/><circle cx="7" cy="7" r="7"/><path d="M7 4v.2"/></g></svg><svg width="16" height="16" viewBox="0 0 16 16" id="icon-16-minus-primary" x="240" y="48" xmlns="http://www.w3.org/2000/svg"><path fill="none" stroke="#D2652A" stroke-linecap="round" stroke-width="2" d="M15 8H1"/></svg><svg width="16" height="16" viewBox="0 0 16 16" id="icon-16-navigate-white" x="240" y="32" xmlns="http://www.w3.org/2000/svg"><path fill="#FFF" fill-rule="evenodd" d="M1 9.257L15.45.495l-6.79 15.19-1.167-6.388z"/></svg><svg width="16" height="16" viewBox="0 0 16 16" id="icon-16-plus-primary" x="240" y="16" xmlns="http://www.w3.org/2000/svg"><path d="M8 1v14m7-7H1" fill="none" fill-rule="evenodd" stroke="#D2652A" stroke-linecap="round" stroke-width="2"/></svg><svg width="16" height="16" viewBox="0 0 16 16" id="icon-16-refresh-primary" x="240" xmlns="http://www.w3.org/2000/svg"><g fill="none" fill-rule="evenodd" stroke="#D2652A" stroke-linecap="round" stroke-width="2"><path d="M7.588 2.013a6 6 0 0 0-2.873 11.009m.165-2.558v2.829H2.05m6.687.663a6 6 0 0 0 2.547-10.977"/><path d="M11.12 5.536V2.707h2.829"/></g></svg><svg width="16" height="16" viewBox="0 0 16 16" id="icon-16-search-primary" x="216" y="216" xmlns="http://www.w3.org/2000/svg"><g fill="none" fill-rule="evenodd" stroke="#D2652A" stroke-linecap="round" stroke-width="2" transform="translate(1 1)"><circle cx="5.5" cy="5.5" r="5.5"/><path d="M13.879 13.879L9.636 9.636"/></g></svg><svg width="16" height="16" viewBox="0 0 16 16" id="icon-16-success-success" x="200" y="216" xmlns="http://www.w3.org/2000/svg"><path fill="none" stroke="#3BA941" stroke-linecap="round" stroke-width="2" d="M14 4l-7.85 8L2 7.772"/></svg><svg width="16" height="16" viewBox="0 0 16 16" id="icon-16-user-primary" x="184" y="216" xmlns="http://www.w3.org/2000/svg"><g fill="none" fill-rule="evenodd" stroke="#D2652A" stroke-linecap="round" stroke-width="2" transform="translate(1 1)"><circle cx="7" cy="4" r="4"/><path d="M14 14a3 3 0 0 0-3-3H3a3 3 0 0 0-3 3"/></g></svg><svg width="16" height="16" viewBox="0 0 16 16" id="icon-16-warning-warning" x="168" y="216" xmlns="http://www.w3.org/2000/svg"><g fill="none" fill-rule="evenodd" stroke="#FED960" stroke-linecap="round" stroke-width="2"><path d="M8 8V5m0 6v-.2"/><circle cx="8" cy="8" r="7"/></g></svg><svg width="16" height="16" viewBox="0 0 16 16" id="icon-16-zoom-in-primary" x="152" y="216" xmlns="http://www.w3.org/2000/svg"><g fill="none" fill-rule="evenodd" stroke="#D2652A" stroke-linecap="round" stroke-width="2" transform="translate(1 1)"><circle cx="5.5" cy="5.5" r="5.5"/><path d="M13.879 13.879L9.636 9.636M5.5 3v5M3 5.5h5"/></g></svg><svg width="16" height="16" viewBox="0 0 16 16" id="icon-16-zoom-out-primary" x="240" y="96" xmlns="http://www.w3.org/2000/svg"><g fill="none" fill-rule="evenodd" stroke="#D2652A" stroke-linecap="round" stroke-width="2" transform="translate(1 1)"><circle cx="5.5" cy="5.5" r="5.5"/><path d="M13.879 13.879L9.636 9.636M3 5.5h5"/></g></svg><svg width="24" height="24" viewBox="0 0 24 24" id="icon-24-arrow-down-primary" x="192" y="144" xmlns="http://www.w3.org/2000/svg"><path d="M19.5 15l-7 7-7-7m7 5.25V1" fill="none" fill-rule="evenodd" stroke="#D2652A" stroke-linecap="round" stroke-width="2"/></svg><svg width="24" height="24" viewBox="0 0 24 24" id="icon-24-arrow-left-primary" x="192" y="168" xmlns="http://www.w3.org/2000/svg"><path d="M9 19l-7-7 7-7m-5.25 7H23" fill="none" fill-rule="evenodd" stroke="#D2652A" stroke-linecap="round" stroke-width="2"/></svg><svg width="24" height="24" viewBox="0 0 24 24" id="icon-24-arrow-right-primary" y="192" xmlns="http://www.w3.org/2000/svg"><path d="M15 5l7 7-7 7m5.25-7H1" fill="none" fill-rule="evenodd" stroke="#D2652A" stroke-linecap="round" stroke-width="2"/></svg><svg width="24" height="24" viewBox="0 0 24 24" id="icon-24-burger-primary" x="24" y="192" xmlns="http://www.w3.org/2000/svg"><path d="M2 4.714h20M2 11.857h20M2 19h20" fill="none" fill-rule="evenodd" stroke="#D2652A" stroke-linecap="round" stroke-width="2"/></svg><svg width="24" height="24" viewBox="0 0 24 24" id="icon-24-call-primary" x="48" y="192" xmlns="http://www.w3.org/2000/svg"><path fill="none" stroke="#D2652A" stroke-linecap="round" stroke-width="2" d="M22.952 18.046c-.062-.188-.458-.464-1.188-.828-.197-.115-.479-.27-.843-.469-.364-.198-.695-.38-.992-.547a33.143 33.143 0 0 1-.836-.484 20.52 20.52 0 0 0-.39-.274 4.391 4.391 0 0 0-.556-.336 1.03 1.03 0 0 0-.445-.109c-.208 0-.468.149-.78.445-.313.297-.6.62-.86.97a9.42 9.42 0 0 1-.828.968c-.292.297-.531.445-.719.445-.094 0-.21-.026-.351-.078a3.644 3.644 0 0 1-.32-.132 5.838 5.838 0 0 1-.375-.22 9.647 9.647 0 0 0-.298-.179c-1.427-.792-2.65-1.698-3.671-2.719-1.02-1.02-1.927-2.244-2.719-3.672a9.05 9.05 0 0 0-.18-.296 5.634 5.634 0 0 1-.218-.376 3.386 3.386 0 0 1-.133-.32 1.057 1.057 0 0 1-.078-.351c0-.188.148-.427.445-.72a9.41 9.41 0 0 1 .969-.827c.349-.26.672-.547.968-.86.297-.312.446-.572.446-.78a1.02 1.02 0 0 0-.11-.446 4.343 4.343 0 0 0-.336-.554 20.51 20.51 0 0 0-.273-.391 34.32 34.32 0 0 1-.484-.836 78.883 78.883 0 0 1-.547-.992 37.154 37.154 0 0 0-.469-.844c-.364-.729-.64-1.125-.828-1.187A.875.875 0 0 0 5.625 1c-.281 0-.649.052-1.102.156-.453.104-.81.214-1.07.328-.52.22-1.073.854-1.656 1.906C1.266 4.37 1 5.338 1 6.296a5.933 5.933 0 0 0 .25 1.72c.094.333.17.58.227.741.057.162.163.45.32.867.156.417.25.672.28.766.365 1.02.798 1.932 1.298 2.734.822 1.334 1.945 2.711 3.367 4.133 1.421 1.422 2.799 2.545 4.132 3.367.802.5 1.714.933 2.735 1.297.094.031.349.125.765.282.417.156.706.263.867.32.162.057.41.133.742.227.334.094.633.159.899.195.266.036.54.055.82.055.958 0 1.927-.266 2.906-.797 1.052-.583 1.687-1.135 1.906-1.656.115-.26.224-.617.328-1.07.105-.454.157-.82.157-1.102a.871.871 0 0 0-.047-.33z"/></svg><svg width="24" height="24" viewBox="0 0 24 24" id="icon-24-check-active-primary" x="72" y="192" xmlns="http://www.w3.org/2000/svg"><g fill="none" fill-rule="evenodd" stroke="#D2652A" stroke-linecap="round" stroke-width="2"><rect width="22" height="22" x="1" y="1" rx="2"/><path d="M18 8l-7.85 8L6 11.772"/></g></svg><svg width="24" height="24" viewBox="0 0 24 24" id="icon-24-check-error-error" x="96" y="192" xmlns="http://www.w3.org/2000/svg"><rect width="22" height="22" x="1" y="1" fill="none" stroke="#D91900" stroke-linecap="round" stroke-width="2" rx="2"/></svg><svg width="24" height="24" viewBox="0 0 24 24" id="icon-24-check-hover-primary" x="120" y="192" xmlns="http://www.w3.org/2000/svg"><rect width="22" height="22" x="1" y="1" fill="none" stroke="#D2652A" stroke-linecap="round" stroke-width="2" rx="2"/></svg><svg width="24" height="24" viewBox="0 0 24 24" id="icon-24-check-primary" x="144" y="192" xmlns="http://www.w3.org/2000/svg"><path fill="none" stroke="#D2652A" stroke-linecap="round" stroke-width="2" d="M21 6L9.224 18 3 11.658"/></svg><svg width="24" height="24" viewBox="0 0 24 24" id="icon-24-check-standard-grey-300" x="168" y="192" xmlns="http://www.w3.org/2000/svg"><rect width="22" height="22" x="1" y="1" fill="none" stroke="#DBDFE6" stroke-linecap="round" stroke-width="2" rx="2"/></svg><svg width="24" height="24" viewBox="0 0 24 24" id="icon-24-chevron-down-primary" x="192" y="192" xmlns="http://www.w3.org/2000/svg"><path fill="none" stroke="#D2652A" stroke-linecap="round" stroke-width="2" d="M23 7L12 18 1 7"/></svg><svg width="24" height="24" viewBox="0 0 24 24" id="icon-24-chevron-left-primary" x="216" xmlns="http://www.w3.org/2000/svg"><path fill="none" stroke="#D2652A" stroke-linecap="round" stroke-width="2" d="M17 23L6 12 17 1"/></svg><svg width="24" height="24" viewBox="0 0 24 24" id="icon-24-chevron-right-primary" x="158" y="160" xmlns="http://www.w3.org/2000/svg"><path fill="none" stroke="#D2652A" stroke-linecap="round" stroke-width="2" d="M6 1l11 11L6 23"/></svg><svg width="24" height="24" viewBox="0 0 24 24" id="icon-24-chevron-up-primary" x="216" y="48" xmlns="http://www.w3.org/2000/svg"><path fill="none" stroke="#D2652A" stroke-linecap="round" stroke-width="2" d="M1 18L12 7l11 11"/></svg><svg width="24" height="24" viewBox="0 0 24 24" id="icon-24-close-primary" x="216" y="72" xmlns="http://www.w3.org/2000/svg"><path d="M22.37 1.63L1.63 22.37m20.74 0L1.63 1.63" fill="none" fill-rule="evenodd" stroke="#D2652A" stroke-linecap="round" stroke-width="2"/></svg><svg width="38" height="24" viewBox="0 0 38 24" id="icon-24-delivery-white" x="118" y="128" xmlns="http://www.w3.org/2000/svg"><g fill="none" fill-rule="evenodd" stroke="#FFF" stroke-linecap="round" stroke-width="2" transform="translate(1 1)"><circle cx="13.5" cy="18.5" r="3.5"/><circle cx="29.5" cy="18.5" r="3.5"/><path d="M9.609 18.73H6V0l17 .09v13.892m3 4.749h-8.362M24 4h5.387L36 10.526v8.344h-2.121M2 4h14M0 12h9M4 8h8"/></g></svg><svg width="24" height="24" viewBox="0 0 24 24" id="icon-24-dropbox-primary" x="216" y="120" xmlns="http://www.w3.org/2000/svg"><path fill="#D2652A" fill-rule="evenodd" d="M7.06 1.003V1L12 5.125 4.881 9.517 0 5.608l7.06-4.605zM0 13.429l4.881-3.91L12 13.918l-4.94 4.12L0 13.43zm12 .489v-.003l7.119-4.395L24 13.43l-7.06 4.61L12 13.918zm12-8.307l-4.881 3.907L12 5.123l4.94-4.12L24 5.611zm-11.985 9.192l4.954 4.111 2.12-1.384v1.552l-7.074 4.241-7.076-4.24V17.53l2.122 1.383 4.954-4.11z"/></svg><svg width="24" height="24" viewBox="0 0 24 24" id="icon-24-email-primary" x="216" y="144" xmlns="http://www.w3.org/2000/svg"><path fill="#D2652A" fill-rule="evenodd" d="M11.892 15.634l2.968-2.71 8.48 7.591a1.685 1.685 0 0 1-1.18.485H1.625c-.459 0-.875-.186-1.184-.485l8.485-7.592 2.967 2.711zM23.56 3.49L12.108 13.846.661 3.494A1.671 1.671 0 0 1 1.84 3h20.535c.46 0 .875.186 1.184.49zM0 4.615L8.367 12.2 0 19.615v-15zm15.633 7.588L24 4.615v15l-8.367-7.412z"/></svg><svg width="24" height="24" viewBox="0 0 24 24" id="icon-24-email-primary_2" x="216" y="168" xmlns="http://www.w3.org/2000/svg"><g fill="none" fill-rule="evenodd" stroke="#D2652A" stroke-linecap="round" stroke-linejoin="round" stroke-width="2"><path d="M1 5l11 8 11-8"/><path d="M1 5h22v15H1z"/></g></svg><svg width="24" height="24" viewBox="0 0 24 24" id="icon-24-facebook-primary" x="216" y="192" xmlns="http://www.w3.org/2000/svg"><path fill="#D2652A" fill-rule="evenodd" d="M22.675 0H1.325C.593 0 0 .593 0 1.325v21.35C0 23.407.593 24 1.325 24h11.494v-9.294H9.69v-3.621h3.129V8.41c0-3.099 1.893-4.784 4.659-4.784 1.324 0 2.463.095 2.794.14v3.24h-1.92c-1.5 0-1.792.72-1.792 1.77v2.31h3.585l-.465 3.63h-3.12V24h6.116c.732 0 1.324-.593 1.324-1.325V1.325C24 .593 23.407 0 22.675 0"/></svg><svg width="24" height="24" viewBox="0 0 24 24" id="icon-24-google-primary" y="216" xmlns="http://www.w3.org/2000/svg"><path fill="#D2652A" fill-rule="evenodd" d="M12 10.286V14.4h6.805c-.274 1.766-2.055 5.175-6.805 5.175-4.095 0-7.44-3.39-7.44-7.575 0-4.185 3.345-7.575 7.44-7.575 2.331 0 3.891.99 4.785 1.85l3.255-3.139C17.949 1.185 15.24 0 12 0 5.365 0 0 5.365 0 12c0 6.634 5.365 12 12 12 6.925 0 11.52-4.869 11.52-11.726 0-.788-.085-1.388-.189-1.988H12z"/></svg><svg width="24" height="24" viewBox="0 0 24 24" id="icon-24-info-primary" x="24" y="216" xmlns="http://www.w3.org/2000/svg"><g fill="none" fill-rule="evenodd" stroke="#D2652A" stroke-linecap="round" stroke-width="2" transform="translate(2 2)"><path d="M10 10v4.286"/><circle cx="10" cy="10" r="10"/><path d="M10 5.714V6"/></g></svg><svg width="24" height="24" viewBox="0 0 24 24" id="icon-24-linkedin-primary" x="48" y="216" xmlns="http://www.w3.org/2000/svg"><path fill="#D2652A" fill-rule="evenodd" d="M20.448 20.453h-3.555v-5.57c0-1.329-.027-3.037-1.851-3.037-1.852 0-2.136 1.445-2.136 2.94v5.667H9.351V9h3.414v1.56h.045c.477-.9 1.638-1.85 3.37-1.85 3.6 0 4.268 2.37 4.268 5.456v6.287zM5.337 7.433a2.063 2.063 0 1 1-.001-4.127 2.063 2.063 0 0 1 .001 4.127zm1.782 13.02H3.555V9h3.564v11.453zM22.224 0H1.77C.792 0 0 .774 0 1.73v20.54C0 23.226.792 24 1.77 24h20.453C23.2 24 24 23.226 24 22.27V1.73C24 .774 23.2 0 22.223 0h.001z"/></svg><svg width="24" height="24" viewBox="0 0 24 24" id="icon-24-location-primary-copy" x="72" y="216" xmlns="http://www.w3.org/2000/svg"><path fill="none" stroke="#D2652A" stroke-linecap="round" stroke-width="2" d="M12.25 1C7.7 1 4 4.633 4 9.1c0 1.165.243 2.277.721 3.306 2.063 4.43 6.018 9.11 7.181 10.438a.463.463 0 0 0 .696 0c1.163-1.328 5.117-6.007 7.18-10.438A7.775 7.775 0 0 0 20.5 9.1c0-4.467-3.701-8.1-8.25-8.1zm0 12.307c-2.363 0-4.286-1.888-4.286-4.208 0-2.32 1.923-4.207 4.286-4.207 2.362 0 4.285 1.887 4.285 4.207s-1.922 4.208-4.285 4.208z"/></svg><svg width="24" height="24" viewBox="0 0 24 24" id="icon-24-minus-primary" x="96" y="216" xmlns="http://www.w3.org/2000/svg"><path fill="none" stroke="#D2652A" stroke-linecap="round" stroke-width="2" d="M23 12H1"/></svg><svg width="24" height="24" viewBox="0 0 24 24" id="icon-24-plus-primary" x="216" y="24" xmlns="http://www.w3.org/2000/svg"><path d="M12 1v22m11-11H1" fill="none" fill-rule="evenodd" stroke="#D2652A" stroke-linecap="round" stroke-width="2"/></svg><svg width="24" height="24" viewBox="0 0 24 24" id="icon-24-radio-active-primary" x="192" y="120" xmlns="http://www.w3.org/2000/svg"><g fill="none" fill-rule="evenodd"><circle cx="12" cy="12" r="11" stroke="#D2652A" stroke-linecap="round" stroke-width="2"/><circle cx="12" cy="12" r="6" fill="#D2652A"/></g></svg><svg width="24" height="24" viewBox="0 0 24 24" id="icon-24-radio-error-error" x="192" y="96" xmlns="http://www.w3.org/2000/svg"><circle cx="12" cy="12" r="11" fill="none" stroke="#D91900" stroke-linecap="round" stroke-width="2"/></svg><svg width="24" height="24" viewBox="0 0 24 24" id="icon-24-radio-hover-primary" x="192" y="72" xmlns="http://www.w3.org/2000/svg"><circle cx="12" cy="12" r="11" fill="none" stroke="#D2652A" stroke-linecap="round" stroke-width="2"/></svg><svg width="24" height="24" viewBox="0 0 24 24" id="icon-24-radio-standard-grey-300" x="192" y="48" xmlns="http://www.w3.org/2000/svg"><circle cx="12" cy="12" r="11" fill="none" stroke="#DBDFE6" stroke-linecap="round" stroke-width="2"/></svg><svg width="24" height="24" viewBox="0 0 24 24" id="icon-24-search-primary" x="192" y="24" xmlns="http://www.w3.org/2000/svg"><g fill="none" fill-rule="evenodd" stroke="#D2652A" stroke-linecap="round" stroke-width="2" transform="translate(1 1)"><circle cx="8.067" cy="8.067" r="8.067"/><path d="M20.356 20.356l-6.223-6.223"/></g></svg><svg width="48" height="24" viewBox="0 0 48 24" id="icon-24-toggle-off" x="80" y="80" xmlns="http://www.w3.org/2000/svg"><g fill="none" fill-rule="evenodd"><rect width="48" height="24" fill="#A5A9AF" rx="12"/><circle cx="12" cy="12" r="10" fill="#F5F7F9"/></g></svg><svg width="48" height="24" viewBox="0 0 48 24" id="icon-24-toggle-on" x="80" y="104" xmlns="http://www.w3.org/2000/svg"><g fill="none" fill-rule="evenodd"><rect width="48" height="24" fill="#3BA941" rx="12"/><circle cx="36" cy="12" r="10" fill="#F5F7F9"/></g></svg><svg width="24" height="24" viewBox="0 0 24 24" id="icon-24-twitter-primary" x="134" y="160" xmlns="http://www.w3.org/2000/svg"><path fill="#D2652A" fill-rule="evenodd" d="M23.954 5.143c-.885.36-1.83.604-2.826.715 1.015-.563 1.796-1.453 2.163-2.512-.95.512-2.004.885-3.126 1.093C19.27 3.553 17.992 3 16.574 3c-2.717 0-4.92 2.034-4.92 4.537 0 .36.045.706.127 1.038-4.09-.18-7.716-1.992-10.143-4.731a4.198 4.198 0 0 0-.665 2.284c0 1.577.87 2.964 2.189 3.779a5.231 5.231 0 0 1-2.23-.567v.055c0 2.2 1.694 4.037 3.947 4.455a5.396 5.396 0 0 1-2.21.077c.629 1.804 2.443 3.117 4.601 3.154-1.678 1.217-3.807 1.942-6.1 1.942-.39 0-.78-.02-1.17-.062A14.853 14.853 0 0 0 7.555 21c9.055 0 14.002-6.917 14.002-12.907 0-.193 0-.387-.015-.58A9.552 9.552 0 0 0 24 5.16l-.046-.018z"/></svg><svg width="24" height="24" viewBox="0 0 24 24" id="icon-24-user-primary" x="110" y="160" xmlns="http://www.w3.org/2000/svg"><g fill="none" fill-rule="evenodd" stroke="#D2652A" stroke-linecap="round" stroke-width="2" transform="translate(2 2)"><circle cx="10" cy="5.714" r="5.714"/><path d="M20 20a4.286 4.286 0 0 0-4.286-4.286H4.286A4.286 4.286 0 0 0 0 20"/></g></svg><svg width="24" height="24" viewBox="0 0 24 24" id="icon-24-whatsapp-primary" x="86" y="160" xmlns="http://www.w3.org/2000/svg"><path fill="#D2652A" fill-rule="evenodd" d="M17.759 13.79c.229.11.41.198.515.37.153.254.093.954-.138 1.594-.293.814-1.579 1.48-2.164 1.532l-.086.008a4.614 4.614 0 0 1-.48.029c-.457 0-1.26-.079-2.954-.756-1.76-.703-3.496-2.21-4.889-4.244-.024-.035-.04-.06-.05-.072-.363-.479-1.21-1.74-1.21-3.074 0-1.483.71-2.326 1.13-2.59.395-.25 1.29-.368 1.455-.375.135-.006.102-.006.135-.006.346 0 .596.21.785.663.078.187.817 1.97.859 2.053.05.099.206.405.023.768l-.039.079c-.075.151-.14.282-.284.45l-.141.169c-.1.12-.204.244-.299.338a.564.564 0 0 0-.102.122s.001.021.029.069c.195.33 1.62 2.29 3.497 3.106.082.036.353.147.368.147.018 0 .047-.029.068-.053.164-.185.693-.803.868-1.063.154-.232.353-.35.589-.35.145 0 .28.045.407.09.311.113 2.061.974 2.108.997zM12.213 0C18.713 0 24 5.248 24 11.7c0 6.45-5.288 11.698-11.787 11.698-1.95 0-3.875-.481-5.58-1.392l-6.227 1.98a.31.31 0 0 1-.317-.08.312.312 0 0 1-.072-.318l2.024-5.972a11.613 11.613 0 0 1-1.616-5.917C.425 5.25 5.713 0 12.213 0zm0 20.96c5.148 0 9.336-4.154 9.336-9.26 0-5.108-4.188-9.263-9.336-9.263-5.149 0-9.337 4.155-9.337 9.262 0 1.963.615 3.84 1.777 5.43a.31.31 0 0 1 .044.284L3.69 20.384l3.12-.992a.312.312 0 0 1 .265.037 9.339 9.339 0 0 0 5.138 1.532z"/></svg><svg width="38" height="24" viewBox="0 0 38 24" id="icon-24-world-white" x="80" y="128" xmlns="http://www.w3.org/2000/svg"><path fill="#FFF" d="M18.67.333C24.93.334 30 5.41 30 11.668c0 6.26-5.075 11.333-11.333 11.332-1.46 0-2.908-.281-4.261-.83-5.796-2.35-8.59-8.956-6.24-14.753l-.055-.164.142-.047A11.33 11.33 0 0 1 18.67.333zm-6.35 19.793c4.67 3.505 11.298 2.56 14.802-2.113l-.79-.79a.378.378 0 0 1-.11-.267v-1.422l-1.474-2.943a.377.377 0 0 1-.037-.169v-1.309l-.825-.55-1.349.337a.373.373 0 0 1-.24-.02l-2.644-1.133a.378.378 0 0 1-.226-.293l-.378-2.645a.378.378 0 0 1 .107-.32l1.133-1.134a.38.38 0 0 1 .267-.11h2.266c.126 0 .243.063.312.168l.665.997 2.012.335 1.858-.62a10.657 10.657 0 0 0-1.136-1.517l-.86.573a.375.375 0 0 1-.283.056l-1.889-.378a.278.278 0 0 1-.045-.012l-1.029-.343-1.404.351a.37.37 0 0 1-.21-.008l-1.134-.378a.379.379 0 0 1-.219-.527l.756-1.51a.378.378 0 0 1 .34-.21h1.421l.69-.344a10.544 10.544 0 0 0-7.263-.27l.384.256 2.186.364a.378.378 0 0 1 .296.491l-.378 1.134a.374.374 0 0 1-.238.238l-1 .334-1.062 1.77a.378.378 0 0 1-.13.129l-1.888 1.133a.38.38 0 0 1-.14.05l-2.32.332v.649l.644.645c.07.07.11.167.11.267v.6l.491-.49a.378.378 0 0 1 .605.098l.649 1.303h2.41c.133 0 .256.07.324.183L17.37 12.8h1.297a.376.376 0 0 1 .37.452l-.377 1.889a.378.378 0 0 1-.103.193l-1.4 1.4v.977a.375.375 0 0 1-.152.302l-1.36 1.02v1.7a.378.378 0 0 1-.494.358l-1.134-.377a.378.378 0 0 1-.231-.218l-.755-1.89a.378.378 0 0 1-.027-.14v-3.468l-1.587-.317a.378.378 0 0 1-.264-.201l-.755-1.511a.378.378 0 0 1-.04-.169v-1.133c0-.1.04-.197.11-.267l.43-.43-1.883-1.256a.378.378 0 0 1-.148-.195l-.314-.941a10.576 10.576 0 0 0 3.767 11.548zM19 24c-6.627 0-12-5.373-12-12S12.373 0 19 0s12 5.373 12 12-5.373 12-12 12zm0-2.057c5.491 0 9.943-4.452 9.943-9.943S24.49 2.057 19 2.057 9.057 6.51 9.057 12 13.51 21.943 19 21.943z"/></svg><svg width="24" height="24" viewBox="0 0 24 24" id="icon-24-zoom-in-primary" x="216" y="96" xmlns="http://www.w3.org/2000/svg"><g fill="none" fill-rule="evenodd" stroke="#D2652A" stroke-linecap="round" stroke-width="2" transform="translate(1 1)"><circle cx="8.067" cy="8.067" r="8.067"/><path d="M20.356 20.356l-6.223-6.223M8.067 4.4v7.333M4.4 8.067h7.333"/></g></svg><svg width="24" height="24" viewBox="0 0 24 24" id="icon-24-zoom-out-primary" x="192" xmlns="http://www.w3.org/2000/svg"><g fill="none" fill-rule="evenodd" stroke="#D2652A" stroke-linecap="round" stroke-width="2" transform="translate(1 1)"><circle cx="8.067" cy="8.067" r="8.067"/><path d="M20.356 20.356l-6.223-6.223M4.4 8.067h7.333"/></g></svg><svg width="32" height="32" viewBox="0 0 32 32" id="icon-32-facebook-primary" x="160" y="128" xmlns="http://www.w3.org/2000/svg"><g fill="none" fill-rule="evenodd" stroke="#D2652A" stroke-linecap="round" stroke-width="2"><path d="M15.122 31H3.419A2.42 2.42 0 0 1 1 28.58V3.42A2.42 2.42 0 0 1 3.42 1h25.16A2.42 2.42 0 0 1 31 3.42v25.16A2.42 2.42 0 0 1 28.58 31h-7.823"/><path d="M15.115 31v-9.324h-3.803V16h3.803v-3.375a6 6 0 0 1 6-6h5.274v5.625h-5.754V16h5.754l-1.113 5.676h-4.64V31h1.023"/></g></svg><svg width="32" height="32" viewBox="0 0 32 32" id="icon-32-facebook-white" x="160" y="96" xmlns="http://www.w3.org/2000/svg"><g fill="none" fill-rule="evenodd" stroke="#FFF" stroke-linecap="round" stroke-width="2"><path d="M15.122 31H3.419A2.42 2.42 0 0 1 1 28.58V3.42A2.42 2.42 0 0 1 3.42 1h25.16A2.42 2.42 0 0 1 31 3.42v25.16A2.42 2.42 0 0 1 28.58 31h-7.823"/><path stroke-linejoin="round" d="M15.115 31v-9.324h-3.803V16h3.803v-3.375a6 6 0 0 1 6-6h5.274v5.625h-5.754V16h5.754l-1.113 5.676h-4.64V31h1.023"/></g></svg><svg width="32" height="32" viewBox="0 0 32 32" id="icon-32-instagram-primary" x="160" y="64" xmlns="http://www.w3.org/2000/svg"><g fill="none" fill-rule="evenodd" stroke="#D2652A" stroke-linecap="round" stroke-width="2" transform="translate(1 1)"><path d="M2.42 0h25.16A2.42 2.42 0 0 1 30 2.42v25.16A2.42 2.42 0 0 1 27.58 30H2.42A2.42 2.42 0 0 1 0 27.58V2.42A2.42 2.42 0 0 1 2.42 0z"/><circle cx="15" cy="15" r="7.941"/><circle cx="24.706" cy="5.294" r="1.765"/></g></svg><svg width="32" height="32" viewBox="0 0 32 32" id="icon-32-instagram-white" y="160" xmlns="http://www.w3.org/2000/svg"><g fill="none" fill-rule="evenodd" stroke="#FFF" stroke-linecap="round" stroke-width="2" transform="translate(1 1)"><path d="M2.42 0h25.16A2.42 2.42 0 0 1 30 2.42v25.16A2.42 2.42 0 0 1 27.58 30H2.42A2.42 2.42 0 0 1 0 27.58V2.42A2.42 2.42 0 0 1 2.42 0z"/><circle cx="15" cy="15" r="7.941"/><circle cx="24.706" cy="5.294" r="1.765"/></g></svg><svg width="32" height="32" viewBox="0 0 32 32" id="icon-32-twitter-primary" x="160" xmlns="http://www.w3.org/2000/svg"><path fill="none" stroke="#D2652A" stroke-linecap="round" stroke-linejoin="round" stroke-width="2" d="M31 8.04c-1.109.501-4.766 1.068-3.49.287 1.276-.78 2.318-2.394 2.781-3.865a12.298 12.298 0 0 1-3.927 1.532A6.102 6.102 0 0 0 21.854 4c-3.412 0-6.18 2.827-6.18 6.312 0 .494.055.977.16 1.439C10.7 11.487 6.147 8.973 3.1 5.154a6.37 6.37 0 0 0-.836 3.173 6.347 6.347 0 0 0 2.748 5.254 6.08 6.08 0 0 1-2.799-.792v.079c0 3.058 2.131 5.61 4.956 6.19a6.134 6.134 0 0 1-1.628.222 5.81 5.81 0 0 1-1.163-.117c.787 2.51 3.068 4.335 5.771 4.385a12.232 12.232 0 0 1-7.674 2.698c-.499 0-.99-.03-1.474-.087A17.2 17.2 0 0 0 10.472 29c11.367 0 17.458-8.539 17.458-16.882l-.02-.817A12.49 12.49 0 0 0 31 8.039z"/></svg><svg width="32" height="32" viewBox="0 0 32 32" id="icon-32-twitter-white" x="160" y="32" xmlns="http://www.w3.org/2000/svg"><path fill="none" stroke="#FFF" stroke-linecap="round" stroke-linejoin="round" stroke-width="2" d="M31 8.04c-1.109.501-4.766 1.068-3.49.287 1.276-.78 2.318-2.394 2.781-3.865a12.298 12.298 0 0 1-3.927 1.532A6.102 6.102 0 0 0 21.854 4c-3.412 0-6.18 2.827-6.18 6.312 0 .494.055.977.16 1.439C10.7 11.487 6.147 8.973 3.1 5.154a6.37 6.37 0 0 0-.836 3.173 6.347 6.347 0 0 0 2.748 5.254 6.08 6.08 0 0 1-2.799-.792v.079c0 3.058 2.131 5.61 4.956 6.19a6.134 6.134 0 0 1-1.628.222 5.81 5.81 0 0 1-1.163-.117c.787 2.51 3.068 4.335 5.771 4.385a12.232 12.232 0 0 1-7.674 2.698c-.499 0-.99-.03-1.474-.087A17.2 17.2 0 0 0 10.472 29c11.367 0 17.458-8.539 17.458-16.882l-.02-.817A12.49 12.49 0 0 0 31 8.039z"/></svg><svg width="30" height="24" viewBox="0 0 30 24" id="icon-cart-black" x="128" y="80" xmlns="http://www.w3.org/2000/svg"><g fill="none" fill-rule="evenodd" stroke="#191919" stroke-linecap="round" stroke-width="2" transform="matrix(-1 0 0 1 27 2)"><path d="M0 3.333h21.667l-3.334 11H4.167zm21.667 0L22.5 0H25M7.083 6.667v4.166m4.167-4.166v4.166m4.167-4.166v4.166"/><circle cx="6.667" cy="18.333" r="1.667"/><circle cx="15.833" cy="18.333" r="1.667"/></g></svg><svg width="30" height="24" viewBox="0 0 30 24" id="icon-cart-black-full" x="128" y="104" xmlns="http://www.w3.org/2000/svg"><g fill="none" fill-rule="evenodd"><g stroke="#191919" stroke-linecap="round" stroke-width="2" transform="matrix(-1 0 0 1 27 2)"><path d="M0 3.333h21.667l-3.334 11H4.167zm21.667 0L22.5 0H25M7.083 6.667v4.166m4.167-4.166v4.166m4.167-4.166v4.166"/><circle cx="6.667" cy="18.333" r="1.667"/><circle cx="15.833" cy="18.333" r="1.667"/></g><circle cx="25" cy="5" r="4.5" fill="#D2652A" stroke="#FFF"/></g></svg><svg width="30" height="24" viewBox="0 0 30 24" id="icon-cart-white" x="32" y="160" xmlns="http://www.w3.org/2000/svg"><g fill="none" fill-rule="evenodd" stroke="#FFF" stroke-linecap="round" stroke-width="2" transform="matrix(-1 0 0 1 27 2)"><path d="M0 3.333h21.667l-3.334 11H4.167zm21.667 0L22.5 0H25M7.083 6.667v4.166m4.167-4.166v4.166m4.167-4.166v4.166"/><circle cx="6.667" cy="18.333" r="1.667"/><circle cx="15.833" cy="18.333" r="1.667"/></g></svg><svg width="80" height="80" viewBox="0 0 80 80" id="icon-delivery" x="80" xmlns="http://www.w3.org/2000/svg"><g fill="none" fill-rule="evenodd" stroke="#FFF" stroke-linecap="round" stroke-width="2" transform="translate(2 19)"><circle cx="28.875" cy="35.175" r="6.825"/><circle cx="65.625" cy="35.175" r="6.825"/><path d="M22.57 36.493h-6.82V0h37.8v27.241m0 9.252H35.855M53.55 7.35h10.37l12.73 12.792v16.352h-4.083m-14.397 0h-4.62M7.35 7.35h33.6M0 23.1h25.2m-12.6-7.35h17.85"/></g></svg><svg width="80" height="80" viewBox="0 0 80 80" id="icon-quality" y="80" xmlns="http://www.w3.org/2000/svg"><g fill="none" fill-rule="evenodd" stroke="#FFF" stroke-linecap="round" stroke-linejoin="round" stroke-width="2"><path d="M13.841 28.242c2.07-10.158-8.355-12.633-8.355-12.633s-1.804 10.562 8.355 12.633zm2.813-6.457S3.007 45.18 24.237 64.795"/><path d="M12.52 35.128c.737-10.34 11.444-9.92 11.444-9.92s-1.103 10.657-11.444 9.92zm-.415 5.114C11.259 29.91.557 30.443.557 30.443s1.216 10.646 11.548 9.8zm1.752 9.582c-1.682-10.229 8.83-12.305 8.83-12.305s1.4 10.623-8.83 12.305zm7.823 12.868c-5.398-8.851 3.566-14.72 3.566-14.72s5.285 9.323-3.566 14.72z"/><path d="M15.319 53.386c-2.743-9.997-13.161-7.494-13.161-7.494s3.163 10.237 13.16 7.494zm6.965 9.936c-6.521-8.06-15.062-1.59-15.062-1.59s7.002 8.11 15.062 1.59zM65.996 28.242c-2.07-10.158 8.355-12.633 8.355-12.633s1.803 10.562-8.355 12.633zm-2.812-6.457s13.647 23.395-7.583 43.01"/><path d="M67.318 35.128c-.737-10.34-11.444-9.92-11.444-9.92s1.103 10.657 11.444 9.92zm.414 5.114c.847-10.332 11.549-9.799 11.549-9.799s-1.216 10.646-11.55 9.8zm-1.752 9.582c1.683-10.229-8.83-12.305-8.83-12.305s-1.4 10.623 8.83 12.305zm-7.822 12.868c5.398-8.851-3.567-14.72-3.567-14.72s-5.284 9.323 3.567 14.72z"/><path d="M64.519 53.386c2.743-9.997 13.161-7.494 13.161-7.494s-3.163 10.237-13.161 7.494zm-6.965 9.936c6.521-8.06 15.062-1.59 15.062-1.59s-7.002 8.11-15.062 1.59zM45.694 48l-5.23-2.556L35.233 48l.83-5.734L32 38.112l5.744-.988L40.464 32l2.719 5.124 5.744.988-4.063 4.154z"/></g></svg><svg width="80" height="80" viewBox="0 0 80 80" id="icon-reliable" xmlns="http://www.w3.org/2000/svg"><g fill="none" fill-rule="evenodd" stroke="#FFF" stroke-linecap="round" stroke-linejoin="round" stroke-width="2"><path d="M52.9 12.154l.53 8.608 8.616.375-3.845 7.72 7.275 4.632-7.19 4.763 3.983 7.649-8.61.53-.374 8.616-7.718-3.847-4.634 7.275-4.762-7.19-7.649 3.984-.53-8.608-8.616-.376 3.845-7.72-7.274-4.631 7.19-4.763-3.983-7.65 8.607-.529.376-8.616 7.72 3.845 4.633-7.273 4.762 7.19z"/><path d="M52.896 33.712c0 6.729-5.456 12.183-12.185 12.183-6.728 0-12.184-5.454-12.184-12.183 0-6.73 5.456-12.185 12.184-12.185 6.73 0 12.185 5.454 12.185 12.185zM36.67 52.037l-6.998 19.225-3.411-5.636-6.262 2.115 7.677-21.095m17.244 5.848l6.83 18.768 3.412-5.636 6.262 2.115-7.764-21.31"/></g></svg></svg>